<svg viewBox="0 0 300 185" fill="none"
    xmlns="http://www.w3.org/2000/svg">
    <g clip-path="url(#clip0_563_3309)">
        <path d="M176.995 42.5646L169.704 35.4889C169.032 34.8374 167.944 34.8374 167.273 35.4889L164.842 37.8468C164.17 38.4987 164.17 39.5542 164.842 40.2057L156.61 48.1935C151.601 46.1348 145.61 47.073 141.528 51.0341L124.512 67.5455C121.827 70.1515 121.827 74.3742 124.512 76.9802L134.235 86.4159C136.921 89.0219 141.272 89.0219 143.958 86.4159L160.973 69.9044C165.055 65.9434 166.022 60.131 163.901 55.2693L172.132 47.2815C172.804 47.9329 173.905 47.9329 174.576 47.2815L177.007 44.9225C177.661 44.2721 177.661 43.2161 176.995 42.5646ZM141.761 79.114L132.038 69.6793L145.144 56.9621L154.866 66.3978L141.761 79.114Z"/>
    </g>
    <path d="M61.9141 107.152V121.37H58.9941V107.152H61.9141ZM67.2949 112.991V121.37H64.4727V110.804H67.1191L67.2949 112.991ZM66.9043 115.716H66.123C66.123 114.98 66.2109 114.303 66.3867 113.685C66.569 113.06 66.8327 112.519 67.1777 112.064C67.5293 111.601 67.9622 111.243 68.4766 110.99C68.9909 110.736 69.5866 110.609 70.2637 110.609C70.7324 110.609 71.1621 110.68 71.5527 110.823C71.9434 110.96 72.2786 111.178 72.5586 111.478C72.8451 111.771 73.0664 112.155 73.2227 112.63C73.3789 113.099 73.457 113.662 73.457 114.32V121.37H70.6445V114.632C70.6445 114.15 70.5794 113.779 70.4492 113.519C70.319 113.258 70.1335 113.076 69.8926 112.972C69.6582 112.868 69.375 112.816 69.043 112.816C68.6784 112.816 68.3594 112.891 68.0859 113.04C67.819 113.19 67.5977 113.398 67.4219 113.665C67.2461 113.926 67.1159 114.232 67.0312 114.583C66.9466 114.935 66.9043 115.312 66.9043 115.716ZM73.1934 115.394L72.1875 115.521C72.1875 114.831 72.2721 114.189 72.4414 113.597C72.6172 113.004 72.8743 112.484 73.2129 112.034C73.5579 111.585 73.9844 111.237 74.4922 110.99C75 110.736 75.5859 110.609 76.25 110.609C76.7578 110.609 77.2201 110.684 77.6367 110.833C78.0534 110.976 78.4082 111.208 78.7012 111.527C79.0007 111.839 79.2285 112.249 79.3848 112.757C79.5475 113.265 79.6289 113.887 79.6289 114.622V121.37H76.8066V114.622C76.8066 114.134 76.7415 113.763 76.6113 113.509C76.4876 113.249 76.3053 113.07 76.0645 112.972C75.8301 112.868 75.5501 112.816 75.2246 112.816C74.8861 112.816 74.5898 112.884 74.3359 113.021C74.082 113.151 73.8704 113.333 73.7012 113.568C73.5319 113.802 73.4049 114.075 73.3203 114.388C73.2357 114.694 73.1934 115.029 73.1934 115.394ZM87.5098 118.988V114.281C87.5098 113.942 87.4544 113.652 87.3438 113.411C87.2331 113.164 87.0605 112.972 86.8262 112.835C86.5983 112.698 86.3021 112.63 85.9375 112.63C85.625 112.63 85.3548 112.685 85.127 112.796C84.8991 112.9 84.7233 113.053 84.5996 113.255C84.4759 113.45 84.4141 113.682 84.4141 113.948H81.6016C81.6016 113.499 81.7057 113.073 81.9141 112.669C82.1224 112.266 82.4251 111.911 82.8223 111.605C83.2194 111.292 83.6914 111.048 84.2383 110.872C84.7917 110.697 85.4102 110.609 86.0938 110.609C86.9141 110.609 87.6432 110.745 88.2812 111.019C88.9193 111.292 89.4206 111.702 89.7852 112.249C90.1562 112.796 90.3418 113.48 90.3418 114.3V118.822C90.3418 119.401 90.3776 119.876 90.4492 120.247C90.5208 120.612 90.625 120.931 90.7617 121.204V121.37H87.9199C87.7832 121.084 87.679 120.726 87.6074 120.296C87.5423 119.86 87.5098 119.424 87.5098 118.988ZM87.8809 114.935L87.9004 116.527H86.3281C85.957 116.527 85.6348 116.569 85.3613 116.654C85.0879 116.738 84.8633 116.859 84.6875 117.015C84.5117 117.165 84.3815 117.34 84.2969 117.542C84.2188 117.744 84.1797 117.965 84.1797 118.206C84.1797 118.447 84.235 118.665 84.3457 118.861C84.4564 119.049 84.6159 119.199 84.8242 119.31C85.0326 119.414 85.2767 119.466 85.5566 119.466C85.9798 119.466 86.3477 119.381 86.6602 119.212C86.9727 119.043 87.2135 118.835 87.3828 118.587C87.5586 118.34 87.6497 118.105 87.6562 117.884L88.3984 119.075C88.2943 119.342 88.151 119.619 87.9688 119.906C87.793 120.192 87.5684 120.462 87.2949 120.716C87.0215 120.963 86.6927 121.169 86.3086 121.331C85.9245 121.488 85.4688 121.566 84.9414 121.566C84.2708 121.566 83.6621 121.432 83.1152 121.165C82.5749 120.892 82.1452 120.517 81.8262 120.042C81.5137 119.56 81.3574 119.014 81.3574 118.402C81.3574 117.848 81.4616 117.357 81.6699 116.927C81.8783 116.497 82.1842 116.136 82.5879 115.843C82.998 115.544 83.5091 115.319 84.1211 115.169C84.7331 115.013 85.4427 114.935 86.25 114.935H87.8809ZM99.1992 110.804H101.748V121.019C101.748 121.982 101.533 122.799 101.104 123.47C100.68 124.147 100.088 124.658 99.3262 125.003C98.5645 125.355 97.679 125.531 96.6699 125.531C96.2272 125.531 95.7585 125.472 95.2637 125.355C94.7754 125.238 94.3066 125.055 93.8574 124.808C93.4147 124.56 93.0436 124.248 92.7441 123.87L93.9844 122.21C94.3099 122.588 94.6875 122.881 95.1172 123.089C95.5469 123.304 96.0221 123.411 96.543 123.411C97.0508 123.411 97.4805 123.317 97.832 123.128C98.1836 122.946 98.4538 122.676 98.6426 122.318C98.8314 121.966 98.9258 121.54 98.9258 121.038V113.245L99.1992 110.804ZM92.0898 116.214V116.009C92.0898 115.202 92.1875 114.469 92.3828 113.812C92.5846 113.148 92.8678 112.578 93.2324 112.103C93.6035 111.628 94.0527 111.26 94.5801 110.999C95.1074 110.739 95.7031 110.609 96.3672 110.609C97.0703 110.609 97.6595 110.739 98.1348 110.999C98.61 111.26 99.0007 111.631 99.3066 112.113C99.6126 112.588 99.8503 113.151 100.02 113.802C100.195 114.447 100.332 115.153 100.43 115.921V116.37C100.332 117.106 100.186 117.79 99.9902 118.421C99.7949 119.053 99.5378 119.606 99.2188 120.081C98.8997 120.55 98.5026 120.915 98.0273 121.175C97.5586 121.435 96.9987 121.566 96.3477 121.566C95.6966 121.566 95.1074 121.432 94.5801 121.165C94.0592 120.898 93.6133 120.524 93.2422 120.042C92.8711 119.56 92.5846 118.994 92.3828 118.343C92.1875 117.692 92.0898 116.982 92.0898 116.214ZM94.9023 116.009V116.214C94.9023 116.65 94.9447 117.057 95.0293 117.435C95.1139 117.812 95.2441 118.148 95.4199 118.441C95.6022 118.727 95.8268 118.952 96.0938 119.115C96.3672 119.271 96.6895 119.349 97.0605 119.349C97.5749 119.349 97.9948 119.241 98.3203 119.027C98.6458 118.805 98.89 118.503 99.0527 118.118C99.2155 117.734 99.3099 117.292 99.3359 116.79V115.511C99.3229 115.101 99.2676 114.733 99.1699 114.407C99.0723 114.075 98.9355 113.792 98.7598 113.558C98.584 113.323 98.3561 113.141 98.0762 113.011C97.7962 112.881 97.4642 112.816 97.0801 112.816C96.709 112.816 96.3867 112.9 96.1133 113.07C95.8464 113.232 95.6217 113.457 95.4395 113.743C95.2637 114.03 95.1302 114.368 95.0391 114.759C94.9479 115.143 94.9023 115.56 94.9023 116.009ZM108.799 121.566C107.979 121.566 107.243 121.435 106.592 121.175C105.941 120.908 105.387 120.54 104.932 120.072C104.482 119.603 104.137 119.059 103.896 118.441C103.656 117.816 103.535 117.152 103.535 116.448V116.058C103.535 115.257 103.649 114.525 103.877 113.861C104.105 113.197 104.43 112.62 104.854 112.132C105.283 111.644 105.804 111.269 106.416 111.009C107.028 110.742 107.718 110.609 108.486 110.609C109.235 110.609 109.899 110.732 110.479 110.98C111.058 111.227 111.543 111.579 111.934 112.034C112.331 112.49 112.63 113.037 112.832 113.675C113.034 114.307 113.135 115.01 113.135 115.784V116.956H104.736V115.081H110.371V114.866C110.371 114.476 110.299 114.128 110.156 113.822C110.02 113.509 109.811 113.262 109.531 113.079C109.251 112.897 108.893 112.806 108.457 112.806C108.086 112.806 107.767 112.887 107.5 113.05C107.233 113.213 107.015 113.441 106.846 113.734C106.683 114.027 106.559 114.372 106.475 114.769C106.396 115.159 106.357 115.589 106.357 116.058V116.448C106.357 116.872 106.416 117.262 106.533 117.62C106.657 117.978 106.829 118.288 107.051 118.548C107.279 118.809 107.552 119.01 107.871 119.154C108.197 119.297 108.564 119.368 108.975 119.368C109.482 119.368 109.954 119.271 110.391 119.075C110.833 118.874 111.214 118.571 111.533 118.167L112.9 119.652C112.679 119.971 112.376 120.277 111.992 120.57C111.615 120.863 111.159 121.103 110.625 121.292C110.091 121.475 109.482 121.566 108.799 121.566ZM117.49 113.06V121.37H114.678V110.804H117.314L117.49 113.06ZM117.08 115.716H116.318C116.318 114.935 116.419 114.232 116.621 113.607C116.823 112.975 117.106 112.438 117.471 111.995C117.835 111.546 118.268 111.204 118.77 110.97C119.277 110.729 119.844 110.609 120.469 110.609C120.964 110.609 121.416 110.68 121.826 110.823C122.236 110.967 122.588 111.195 122.881 111.507C123.18 111.82 123.408 112.233 123.564 112.747C123.727 113.262 123.809 113.89 123.809 114.632V121.37H120.977V114.622C120.977 114.154 120.911 113.789 120.781 113.529C120.651 113.268 120.459 113.086 120.205 112.982C119.958 112.871 119.652 112.816 119.287 112.816C118.91 112.816 118.581 112.891 118.301 113.04C118.027 113.19 117.799 113.398 117.617 113.665C117.441 113.926 117.308 114.232 117.217 114.583C117.126 114.935 117.08 115.312 117.08 115.716ZM137.168 119.066V106.37H140V121.37H137.451L137.168 119.066ZM130.488 116.214V116.009C130.488 115.202 130.579 114.469 130.762 113.812C130.944 113.148 131.211 112.578 131.562 112.103C131.914 111.628 132.347 111.26 132.861 110.999C133.376 110.739 133.962 110.609 134.619 110.609C135.238 110.609 135.778 110.739 136.24 110.999C136.709 111.26 137.106 111.631 137.432 112.113C137.764 112.588 138.031 113.151 138.232 113.802C138.434 114.447 138.581 115.153 138.672 115.921V116.37C138.581 117.106 138.434 117.79 138.232 118.421C138.031 119.053 137.764 119.606 137.432 120.081C137.106 120.55 136.709 120.915 136.24 121.175C135.771 121.435 135.225 121.566 134.6 121.566C133.942 121.566 133.356 121.432 132.842 121.165C132.334 120.898 131.904 120.524 131.553 120.042C131.208 119.56 130.944 118.994 130.762 118.343C130.579 117.692 130.488 116.982 130.488 116.214ZM133.301 116.009V116.214C133.301 116.65 133.333 117.057 133.398 117.435C133.47 117.812 133.584 118.148 133.74 118.441C133.903 118.727 134.111 118.952 134.365 119.115C134.626 119.271 134.941 119.349 135.312 119.349C135.794 119.349 136.191 119.241 136.504 119.027C136.816 118.805 137.054 118.503 137.217 118.118C137.386 117.734 137.484 117.292 137.51 116.79V115.511C137.49 115.101 137.432 114.733 137.334 114.407C137.243 114.075 137.106 113.792 136.924 113.558C136.748 113.323 136.527 113.141 136.26 113.011C135.999 112.881 135.69 112.816 135.332 112.816C134.967 112.816 134.655 112.9 134.395 113.07C134.134 113.232 133.923 113.457 133.76 113.743C133.604 114.03 133.486 114.368 133.408 114.759C133.337 115.143 133.301 115.56 133.301 116.009ZM147.061 121.566C146.24 121.566 145.505 121.435 144.854 121.175C144.202 120.908 143.649 120.54 143.193 120.072C142.744 119.603 142.399 119.059 142.158 118.441C141.917 117.816 141.797 117.152 141.797 116.448V116.058C141.797 115.257 141.911 114.525 142.139 113.861C142.367 113.197 142.692 112.62 143.115 112.132C143.545 111.644 144.066 111.269 144.678 111.009C145.29 110.742 145.98 110.609 146.748 110.609C147.497 110.609 148.161 110.732 148.74 110.98C149.32 111.227 149.805 111.579 150.195 112.034C150.592 112.49 150.892 113.037 151.094 113.675C151.296 114.307 151.396 115.01 151.396 115.784V116.956H142.998V115.081H148.633V114.866C148.633 114.476 148.561 114.128 148.418 113.822C148.281 113.509 148.073 113.262 147.793 113.079C147.513 112.897 147.155 112.806 146.719 112.806C146.348 112.806 146.029 112.887 145.762 113.05C145.495 113.213 145.277 113.441 145.107 113.734C144.945 114.027 144.821 114.372 144.736 114.769C144.658 115.159 144.619 115.589 144.619 116.058V116.448C144.619 116.872 144.678 117.262 144.795 117.62C144.919 117.978 145.091 118.288 145.312 118.548C145.54 118.809 145.814 119.01 146.133 119.154C146.458 119.297 146.826 119.368 147.236 119.368C147.744 119.368 148.216 119.271 148.652 119.075C149.095 118.874 149.476 118.571 149.795 118.167L151.162 119.652C150.941 119.971 150.638 120.277 150.254 120.57C149.876 120.863 149.421 121.103 148.887 121.292C148.353 121.475 147.744 121.566 147.061 121.566ZM155.967 106.37V121.37H153.145V106.37H155.967ZM166.084 112.835V125.433H163.271V110.804H165.879L166.084 112.835ZM172.773 115.97V116.175C172.773 116.943 172.682 117.656 172.5 118.314C172.324 118.971 172.064 119.544 171.719 120.032C171.374 120.514 170.944 120.892 170.43 121.165C169.922 121.432 169.336 121.566 168.672 121.566C168.027 121.566 167.467 121.435 166.992 121.175C166.517 120.915 166.117 120.55 165.791 120.081C165.472 119.606 165.215 119.056 165.02 118.431C164.824 117.806 164.674 117.135 164.57 116.419V115.882C164.674 115.114 164.824 114.411 165.02 113.773C165.215 113.128 165.472 112.572 165.791 112.103C166.117 111.628 166.514 111.26 166.982 110.999C167.458 110.739 168.014 110.609 168.652 110.609C169.323 110.609 169.912 110.736 170.42 110.99C170.934 111.243 171.364 111.608 171.709 112.083C172.061 112.559 172.324 113.125 172.5 113.782C172.682 114.44 172.773 115.169 172.773 115.97ZM169.951 116.175V115.97C169.951 115.521 169.912 115.107 169.834 114.73C169.762 114.346 169.645 114.01 169.482 113.724C169.326 113.437 169.118 113.216 168.857 113.06C168.604 112.897 168.294 112.816 167.93 112.816C167.546 112.816 167.217 112.878 166.943 113.001C166.676 113.125 166.458 113.304 166.289 113.538C166.12 113.773 165.993 114.053 165.908 114.378C165.824 114.704 165.771 115.072 165.752 115.482V116.839C165.785 117.321 165.876 117.754 166.025 118.138C166.175 118.516 166.406 118.815 166.719 119.036C167.031 119.258 167.441 119.368 167.949 119.368C168.32 119.368 168.633 119.287 168.887 119.124C169.141 118.955 169.346 118.724 169.502 118.431C169.665 118.138 169.779 117.799 169.844 117.415C169.915 117.031 169.951 116.618 169.951 116.175ZM177.334 113.109V121.37H174.521V110.804H177.168L177.334 113.109ZM180.518 110.736L180.469 113.343C180.332 113.323 180.166 113.307 179.971 113.294C179.782 113.275 179.609 113.265 179.453 113.265C179.056 113.265 178.711 113.317 178.418 113.421C178.132 113.519 177.891 113.665 177.695 113.861C177.507 114.056 177.363 114.294 177.266 114.573C177.174 114.853 177.122 115.172 177.109 115.531L176.543 115.355C176.543 114.671 176.611 114.043 176.748 113.47C176.885 112.891 177.083 112.386 177.344 111.956C177.611 111.527 177.936 111.195 178.32 110.96C178.704 110.726 179.144 110.609 179.639 110.609C179.795 110.609 179.954 110.622 180.117 110.648C180.28 110.667 180.413 110.697 180.518 110.736ZM181.104 116.195V115.99C181.104 115.215 181.214 114.502 181.436 113.851C181.657 113.193 181.979 112.624 182.402 112.142C182.826 111.66 183.346 111.286 183.965 111.019C184.583 110.745 185.293 110.609 186.094 110.609C186.895 110.609 187.607 110.745 188.232 111.019C188.857 111.286 189.382 111.66 189.805 112.142C190.234 112.624 190.56 113.193 190.781 113.851C191.003 114.502 191.113 115.215 191.113 115.99V116.195C191.113 116.963 191.003 117.676 190.781 118.333C190.56 118.984 190.234 119.554 189.805 120.042C189.382 120.524 188.861 120.898 188.242 121.165C187.624 121.432 186.914 121.566 186.113 121.566C185.312 121.566 184.6 121.432 183.975 121.165C183.356 120.898 182.832 120.524 182.402 120.042C181.979 119.554 181.657 118.984 181.436 118.333C181.214 117.676 181.104 116.963 181.104 116.195ZM183.916 115.99V116.195C183.916 116.637 183.955 117.051 184.033 117.435C184.111 117.819 184.235 118.157 184.404 118.45C184.58 118.737 184.808 118.962 185.088 119.124C185.368 119.287 185.71 119.368 186.113 119.368C186.504 119.368 186.839 119.287 187.119 119.124C187.399 118.962 187.624 118.737 187.793 118.45C187.962 118.157 188.086 117.819 188.164 117.435C188.249 117.051 188.291 116.637 188.291 116.195V115.99C188.291 115.56 188.249 115.156 188.164 114.779C188.086 114.394 187.959 114.056 187.783 113.763C187.614 113.463 187.389 113.229 187.109 113.06C186.829 112.891 186.491 112.806 186.094 112.806C185.697 112.806 185.358 112.891 185.078 113.06C184.805 113.229 184.58 113.463 184.404 113.763C184.235 114.056 184.111 114.394 184.033 114.779C183.955 115.156 183.916 115.56 183.916 115.99ZM199.082 119.066V106.37H201.914V121.37H199.365L199.082 119.066ZM192.402 116.214V116.009C192.402 115.202 192.493 114.469 192.676 113.812C192.858 113.148 193.125 112.578 193.477 112.103C193.828 111.628 194.261 111.26 194.775 110.999C195.29 110.739 195.876 110.609 196.533 110.609C197.152 110.609 197.692 110.739 198.154 110.999C198.623 111.26 199.02 111.631 199.346 112.113C199.678 112.588 199.945 113.151 200.146 113.802C200.348 114.447 200.495 115.153 200.586 115.921V116.37C200.495 117.106 200.348 117.79 200.146 118.421C199.945 119.053 199.678 119.606 199.346 120.081C199.02 120.55 198.623 120.915 198.154 121.175C197.686 121.435 197.139 121.566 196.514 121.566C195.856 121.566 195.27 121.432 194.756 121.165C194.248 120.898 193.818 120.524 193.467 120.042C193.122 119.56 192.858 118.994 192.676 118.343C192.493 117.692 192.402 116.982 192.402 116.214ZM195.215 116.009V116.214C195.215 116.65 195.247 117.057 195.312 117.435C195.384 117.812 195.498 118.148 195.654 118.441C195.817 118.727 196.025 118.952 196.279 119.115C196.54 119.271 196.855 119.349 197.227 119.349C197.708 119.349 198.105 119.241 198.418 119.027C198.73 118.805 198.968 118.503 199.131 118.118C199.3 117.734 199.398 117.292 199.424 116.79V115.511C199.404 115.101 199.346 114.733 199.248 114.407C199.157 114.075 199.02 113.792 198.838 113.558C198.662 113.323 198.441 113.141 198.174 113.011C197.913 112.881 197.604 112.816 197.246 112.816C196.882 112.816 196.569 112.9 196.309 113.07C196.048 113.232 195.837 113.457 195.674 113.743C195.518 114.03 195.4 114.368 195.322 114.759C195.251 115.143 195.215 115.56 195.215 116.009ZM210.361 118.841V110.804H213.174V121.37H210.527L210.361 118.841ZM210.674 116.673L211.504 116.654C211.504 117.357 211.423 118.011 211.26 118.616C211.097 119.215 210.853 119.736 210.527 120.179C210.202 120.615 209.792 120.957 209.297 121.204C208.802 121.445 208.219 121.566 207.549 121.566C207.035 121.566 206.559 121.494 206.123 121.351C205.693 121.201 205.322 120.97 205.01 120.657C204.704 120.338 204.463 119.932 204.287 119.437C204.118 118.935 204.033 118.333 204.033 117.63V110.804H206.846V117.65C206.846 117.962 206.882 118.226 206.953 118.441C207.031 118.656 207.139 118.831 207.275 118.968C207.412 119.105 207.572 119.202 207.754 119.261C207.943 119.32 208.151 119.349 208.379 119.349C208.958 119.349 209.414 119.232 209.746 118.997C210.085 118.763 210.322 118.444 210.459 118.04C210.602 117.63 210.674 117.174 210.674 116.673ZM219.688 119.368C220.033 119.368 220.339 119.303 220.605 119.173C220.872 119.036 221.081 118.848 221.23 118.607C221.387 118.359 221.468 118.07 221.475 117.738H224.121C224.115 118.48 223.916 119.141 223.525 119.72C223.135 120.293 222.611 120.745 221.953 121.077C221.296 121.403 220.56 121.566 219.746 121.566C218.926 121.566 218.21 121.429 217.598 121.156C216.992 120.882 216.488 120.504 216.084 120.023C215.68 119.534 215.378 118.968 215.176 118.323C214.974 117.672 214.873 116.976 214.873 116.234V115.95C214.873 115.202 214.974 114.505 215.176 113.861C215.378 113.21 215.68 112.643 216.084 112.161C216.488 111.673 216.992 111.292 217.598 111.019C218.203 110.745 218.913 110.609 219.727 110.609C220.592 110.609 221.351 110.775 222.002 111.107C222.66 111.439 223.174 111.914 223.545 112.532C223.923 113.144 224.115 113.87 224.121 114.71H221.475C221.468 114.359 221.393 114.04 221.25 113.753C221.113 113.467 220.911 113.239 220.645 113.07C220.384 112.894 220.062 112.806 219.678 112.806C219.268 112.806 218.932 112.894 218.672 113.07C218.411 113.239 218.21 113.473 218.066 113.773C217.923 114.066 217.822 114.401 217.764 114.779C217.712 115.15 217.686 115.54 217.686 115.95V116.234C217.686 116.644 217.712 117.038 217.764 117.415C217.816 117.793 217.913 118.128 218.057 118.421C218.206 118.714 218.411 118.945 218.672 119.115C218.932 119.284 219.271 119.368 219.688 119.368ZM230.928 110.804V112.796H224.775V110.804H230.928ZM226.299 108.197H229.111V118.187C229.111 118.493 229.15 118.727 229.229 118.89C229.313 119.053 229.437 119.167 229.6 119.232C229.762 119.29 229.967 119.32 230.215 119.32C230.391 119.32 230.547 119.313 230.684 119.3C230.827 119.281 230.947 119.261 231.045 119.241L231.055 121.312C230.814 121.39 230.553 121.452 230.273 121.497C229.993 121.543 229.684 121.566 229.346 121.566C228.727 121.566 228.187 121.465 227.725 121.263C227.269 121.055 226.917 120.723 226.67 120.267C226.423 119.811 226.299 119.212 226.299 118.47V108.197ZM231.826 116.195V115.99C231.826 115.215 231.937 114.502 232.158 113.851C232.38 113.193 232.702 112.624 233.125 112.142C233.548 111.66 234.069 111.286 234.688 111.019C235.306 110.745 236.016 110.609 236.816 110.609C237.617 110.609 238.33 110.745 238.955 111.019C239.58 111.286 240.104 111.66 240.527 112.142C240.957 112.624 241.283 113.193 241.504 113.851C241.725 114.502 241.836 115.215 241.836 115.99V116.195C241.836 116.963 241.725 117.676 241.504 118.333C241.283 118.984 240.957 119.554 240.527 120.042C240.104 120.524 239.583 120.898 238.965 121.165C238.346 121.432 237.637 121.566 236.836 121.566C236.035 121.566 235.322 121.432 234.697 121.165C234.079 120.898 233.555 120.524 233.125 120.042C232.702 119.554 232.38 118.984 232.158 118.333C231.937 117.676 231.826 116.963 231.826 116.195ZM234.639 115.99V116.195C234.639 116.637 234.678 117.051 234.756 117.435C234.834 117.819 234.958 118.157 235.127 118.45C235.303 118.737 235.531 118.962 235.811 119.124C236.09 119.287 236.432 119.368 236.836 119.368C237.227 119.368 237.562 119.287 237.842 119.124C238.122 118.962 238.346 118.737 238.516 118.45C238.685 118.157 238.809 117.819 238.887 117.435C238.971 117.051 239.014 116.637 239.014 116.195V115.99C239.014 115.56 238.971 115.156 238.887 114.779C238.809 114.394 238.682 114.056 238.506 113.763C238.337 113.463 238.112 113.229 237.832 113.06C237.552 112.891 237.214 112.806 236.816 112.806C236.419 112.806 236.081 112.891 235.801 113.06C235.527 113.229 235.303 113.463 235.127 113.763C234.958 114.056 234.834 114.394 234.756 114.779C234.678 115.156 234.639 115.56 234.639 115.99ZM93.4961 136.06V144.37H90.6836V133.804H93.3203L93.4961 136.06ZM93.0859 138.716H92.3242C92.3242 137.935 92.4251 137.232 92.627 136.607C92.8288 135.975 93.112 135.438 93.4766 134.995C93.8411 134.546 94.2741 134.204 94.7754 133.97C95.2832 133.729 95.8496 133.609 96.4746 133.609C96.9694 133.609 97.4219 133.68 97.832 133.823C98.2422 133.967 98.5938 134.195 98.8867 134.507C99.1862 134.82 99.4141 135.233 99.5703 135.747C99.7331 136.262 99.8145 136.89 99.8145 137.632V144.37H96.9824V137.622C96.9824 137.154 96.9173 136.789 96.7871 136.529C96.6569 136.268 96.4648 136.086 96.2109 135.982C95.9635 135.871 95.6576 135.816 95.293 135.816C94.9154 135.816 94.5866 135.891 94.3066 136.04C94.0332 136.19 93.8053 136.398 93.623 136.665C93.4473 136.926 93.3138 137.232 93.2227 137.583C93.1315 137.935 93.0859 138.312 93.0859 138.716ZM101.504 139.195V138.99C101.504 138.215 101.615 137.502 101.836 136.851C102.057 136.193 102.38 135.624 102.803 135.142C103.226 134.66 103.747 134.286 104.365 134.019C104.984 133.745 105.693 133.609 106.494 133.609C107.295 133.609 108.008 133.745 108.633 134.019C109.258 134.286 109.782 134.66 110.205 135.142C110.635 135.624 110.96 136.193 111.182 136.851C111.403 137.502 111.514 138.215 111.514 138.99V139.195C111.514 139.963 111.403 140.676 111.182 141.333C110.96 141.984 110.635 142.554 110.205 143.042C109.782 143.524 109.261 143.898 108.643 144.165C108.024 144.432 107.314 144.566 106.514 144.566C105.713 144.566 105 144.432 104.375 144.165C103.757 143.898 103.232 143.524 102.803 143.042C102.38 142.554 102.057 141.984 101.836 141.333C101.615 140.676 101.504 139.963 101.504 139.195ZM104.316 138.99V139.195C104.316 139.637 104.355 140.051 104.434 140.435C104.512 140.819 104.635 141.157 104.805 141.45C104.98 141.737 105.208 141.962 105.488 142.124C105.768 142.287 106.11 142.368 106.514 142.368C106.904 142.368 107.24 142.287 107.52 142.124C107.799 141.962 108.024 141.737 108.193 141.45C108.363 141.157 108.486 140.819 108.564 140.435C108.649 140.051 108.691 139.637 108.691 139.195V138.99C108.691 138.56 108.649 138.156 108.564 137.779C108.486 137.394 108.359 137.056 108.184 136.763C108.014 136.463 107.79 136.229 107.51 136.06C107.23 135.891 106.891 135.806 106.494 135.806C106.097 135.806 105.758 135.891 105.479 136.06C105.205 136.229 104.98 136.463 104.805 136.763C104.635 137.056 104.512 137.394 104.434 137.779C104.355 138.156 104.316 138.56 104.316 138.99ZM124.463 142.066V129.37H127.295V144.37H124.746L124.463 142.066ZM117.783 139.214V139.009C117.783 138.202 117.874 137.469 118.057 136.812C118.239 136.148 118.506 135.578 118.857 135.103C119.209 134.628 119.642 134.26 120.156 133.999C120.671 133.739 121.257 133.609 121.914 133.609C122.533 133.609 123.073 133.739 123.535 133.999C124.004 134.26 124.401 134.631 124.727 135.113C125.059 135.588 125.326 136.151 125.527 136.802C125.729 137.447 125.876 138.153 125.967 138.921V139.37C125.876 140.106 125.729 140.79 125.527 141.421C125.326 142.053 125.059 142.606 124.727 143.081C124.401 143.55 124.004 143.915 123.535 144.175C123.066 144.435 122.52 144.566 121.895 144.566C121.237 144.566 120.651 144.432 120.137 144.165C119.629 143.898 119.199 143.524 118.848 143.042C118.503 142.56 118.239 141.994 118.057 141.343C117.874 140.692 117.783 139.982 117.783 139.214ZM120.596 139.009V139.214C120.596 139.65 120.628 140.057 120.693 140.435C120.765 140.812 120.879 141.148 121.035 141.441C121.198 141.727 121.406 141.952 121.66 142.115C121.921 142.271 122.236 142.349 122.607 142.349C123.089 142.349 123.486 142.241 123.799 142.027C124.111 141.805 124.349 141.503 124.512 141.118C124.681 140.734 124.779 140.292 124.805 139.79V138.511C124.785 138.101 124.727 137.733 124.629 137.407C124.538 137.075 124.401 136.792 124.219 136.558C124.043 136.323 123.822 136.141 123.555 136.011C123.294 135.881 122.985 135.816 122.627 135.816C122.262 135.816 121.95 135.9 121.689 136.07C121.429 136.232 121.217 136.457 121.055 136.743C120.898 137.03 120.781 137.368 120.703 137.759C120.632 138.143 120.596 138.56 120.596 139.009ZM132.461 133.804V144.37H129.639V133.804H132.461ZM129.463 131.05C129.463 130.64 129.606 130.301 129.893 130.034C130.179 129.767 130.563 129.634 131.045 129.634C131.52 129.634 131.901 129.767 132.188 130.034C132.48 130.301 132.627 130.64 132.627 131.05C132.627 131.46 132.48 131.799 132.188 132.066C131.901 132.333 131.52 132.466 131.045 132.466C130.563 132.466 130.179 132.333 129.893 132.066C129.606 131.799 129.463 131.46 129.463 131.05ZM140.498 141.45C140.498 141.249 140.439 141.066 140.322 140.904C140.205 140.741 139.987 140.591 139.668 140.454C139.355 140.311 138.903 140.181 138.311 140.064C137.777 139.947 137.279 139.8 136.816 139.624C136.361 139.442 135.964 139.224 135.625 138.97C135.293 138.716 135.033 138.417 134.844 138.072C134.655 137.72 134.561 137.32 134.561 136.87C134.561 136.428 134.655 136.011 134.844 135.62C135.039 135.23 135.316 134.885 135.674 134.585C136.038 134.279 136.481 134.042 137.002 133.872C137.529 133.697 138.122 133.609 138.779 133.609C139.697 133.609 140.485 133.755 141.143 134.048C141.807 134.341 142.314 134.745 142.666 135.259C143.024 135.767 143.203 136.346 143.203 136.997H140.391C140.391 136.724 140.332 136.48 140.215 136.265C140.104 136.044 139.928 135.871 139.688 135.747C139.453 135.617 139.147 135.552 138.77 135.552C138.457 135.552 138.187 135.607 137.959 135.718C137.731 135.822 137.555 135.965 137.432 136.148C137.314 136.323 137.256 136.519 137.256 136.734C137.256 136.896 137.288 137.043 137.354 137.173C137.425 137.297 137.539 137.411 137.695 137.515C137.852 137.619 138.053 137.717 138.301 137.808C138.555 137.892 138.867 137.971 139.238 138.042C140 138.198 140.68 138.404 141.279 138.657C141.878 138.905 142.354 139.243 142.705 139.673C143.057 140.096 143.232 140.653 143.232 141.343C143.232 141.812 143.128 142.241 142.92 142.632C142.712 143.023 142.412 143.365 142.021 143.657C141.631 143.944 141.162 144.169 140.615 144.331C140.075 144.488 139.466 144.566 138.789 144.566C137.806 144.566 136.973 144.39 136.289 144.038C135.612 143.687 135.098 143.241 134.746 142.7C134.401 142.154 134.229 141.594 134.229 141.021H136.895C136.908 141.405 137.005 141.714 137.188 141.948C137.376 142.183 137.614 142.352 137.9 142.456C138.193 142.56 138.509 142.613 138.848 142.613C139.212 142.613 139.515 142.564 139.756 142.466C139.997 142.362 140.179 142.225 140.303 142.056C140.433 141.88 140.498 141.678 140.498 141.45ZM147.871 135.835V148.433H145.059V133.804H147.666L147.871 135.835ZM154.561 138.97V139.175C154.561 139.943 154.469 140.656 154.287 141.314C154.111 141.971 153.851 142.544 153.506 143.032C153.161 143.514 152.731 143.892 152.217 144.165C151.709 144.432 151.123 144.566 150.459 144.566C149.814 144.566 149.255 144.435 148.779 144.175C148.304 143.915 147.904 143.55 147.578 143.081C147.259 142.606 147.002 142.056 146.807 141.431C146.611 140.806 146.462 140.135 146.357 139.419V138.882C146.462 138.114 146.611 137.411 146.807 136.773C147.002 136.128 147.259 135.572 147.578 135.103C147.904 134.628 148.301 134.26 148.77 133.999C149.245 133.739 149.801 133.609 150.439 133.609C151.11 133.609 151.699 133.736 152.207 133.99C152.721 134.243 153.151 134.608 153.496 135.083C153.848 135.559 154.111 136.125 154.287 136.782C154.469 137.44 154.561 138.169 154.561 138.97ZM151.738 139.175V138.97C151.738 138.521 151.699 138.107 151.621 137.73C151.549 137.346 151.432 137.01 151.27 136.724C151.113 136.437 150.905 136.216 150.645 136.06C150.391 135.897 150.081 135.816 149.717 135.816C149.333 135.816 149.004 135.878 148.73 136.001C148.464 136.125 148.245 136.304 148.076 136.538C147.907 136.773 147.78 137.053 147.695 137.378C147.611 137.704 147.559 138.072 147.539 138.482V139.839C147.572 140.321 147.663 140.754 147.812 141.138C147.962 141.516 148.193 141.815 148.506 142.036C148.818 142.258 149.229 142.368 149.736 142.368C150.107 142.368 150.42 142.287 150.674 142.124C150.928 141.955 151.133 141.724 151.289 141.431C151.452 141.138 151.566 140.799 151.631 140.415C151.702 140.031 151.738 139.618 151.738 139.175ZM155.859 139.195V138.99C155.859 138.215 155.97 137.502 156.191 136.851C156.413 136.193 156.735 135.624 157.158 135.142C157.581 134.66 158.102 134.286 158.721 134.019C159.339 133.745 160.049 133.609 160.85 133.609C161.65 133.609 162.363 133.745 162.988 134.019C163.613 134.286 164.137 134.66 164.561 135.142C164.99 135.624 165.316 136.193 165.537 136.851C165.758 137.502 165.869 138.215 165.869 138.99V139.195C165.869 139.963 165.758 140.676 165.537 141.333C165.316 141.984 164.99 142.554 164.561 143.042C164.137 143.524 163.617 143.898 162.998 144.165C162.38 144.432 161.67 144.566 160.869 144.566C160.068 144.566 159.355 144.432 158.73 144.165C158.112 143.898 157.588 143.524 157.158 143.042C156.735 142.554 156.413 141.984 156.191 141.333C155.97 140.676 155.859 139.963 155.859 139.195ZM158.672 138.99V139.195C158.672 139.637 158.711 140.051 158.789 140.435C158.867 140.819 158.991 141.157 159.16 141.45C159.336 141.737 159.564 141.962 159.844 142.124C160.124 142.287 160.465 142.368 160.869 142.368C161.26 142.368 161.595 142.287 161.875 142.124C162.155 141.962 162.38 141.737 162.549 141.45C162.718 141.157 162.842 140.819 162.92 140.435C163.005 140.051 163.047 139.637 163.047 139.195V138.99C163.047 138.56 163.005 138.156 162.92 137.779C162.842 137.394 162.715 137.056 162.539 136.763C162.37 136.463 162.145 136.229 161.865 136.06C161.585 135.891 161.247 135.806 160.85 135.806C160.452 135.806 160.114 135.891 159.834 136.06C159.561 136.229 159.336 136.463 159.16 136.763C158.991 137.056 158.867 137.394 158.789 137.779C158.711 138.156 158.672 138.56 158.672 138.99ZM170.352 136.06V144.37H167.539V133.804H170.176L170.352 136.06ZM169.941 138.716H169.18C169.18 137.935 169.281 137.232 169.482 136.607C169.684 135.975 169.967 135.438 170.332 134.995C170.697 134.546 171.13 134.204 171.631 133.97C172.139 133.729 172.705 133.609 173.33 133.609C173.825 133.609 174.277 133.68 174.688 133.823C175.098 133.967 175.449 134.195 175.742 134.507C176.042 134.82 176.27 135.233 176.426 135.747C176.589 136.262 176.67 136.89 176.67 137.632V144.37H173.838V137.622C173.838 137.154 173.773 136.789 173.643 136.529C173.512 136.268 173.32 136.086 173.066 135.982C172.819 135.871 172.513 135.816 172.148 135.816C171.771 135.816 171.442 135.891 171.162 136.04C170.889 136.19 170.661 136.398 170.479 136.665C170.303 136.926 170.169 137.232 170.078 137.583C169.987 137.935 169.941 138.312 169.941 138.716ZM181.777 133.804V144.37H178.955V133.804H181.777ZM178.779 131.05C178.779 130.64 178.923 130.301 179.209 130.034C179.495 129.767 179.88 129.634 180.361 129.634C180.837 129.634 181.217 129.767 181.504 130.034C181.797 130.301 181.943 130.64 181.943 131.05C181.943 131.46 181.797 131.799 181.504 132.066C181.217 132.333 180.837 132.466 180.361 132.466C179.88 132.466 179.495 132.333 179.209 132.066C178.923 131.799 178.779 131.46 178.779 131.05ZM184.102 129.37H186.914V141.948L186.631 144.37H184.102V129.37ZM193.604 138.98V139.185C193.604 139.973 193.519 140.695 193.35 141.353C193.187 142.01 192.933 142.58 192.588 143.062C192.243 143.537 191.813 143.908 191.299 144.175C190.791 144.435 190.192 144.566 189.502 144.566C188.857 144.566 188.298 144.435 187.822 144.175C187.354 143.915 186.96 143.547 186.641 143.072C186.322 142.596 186.064 142.04 185.869 141.402C185.674 140.764 185.527 140.067 185.43 139.312V138.863C185.527 138.107 185.674 137.411 185.869 136.773C186.064 136.135 186.322 135.578 186.641 135.103C186.96 134.628 187.354 134.26 187.822 133.999C188.291 133.739 188.844 133.609 189.482 133.609C190.179 133.609 190.785 133.742 191.299 134.009C191.82 134.269 192.249 134.641 192.588 135.122C192.933 135.598 193.187 136.164 193.35 136.822C193.519 137.473 193.604 138.192 193.604 138.98ZM190.791 139.185V138.98C190.791 138.55 190.758 138.146 190.693 137.769C190.635 137.385 190.531 137.049 190.381 136.763C190.231 136.47 190.026 136.239 189.766 136.07C189.512 135.9 189.183 135.816 188.779 135.816C188.395 135.816 188.07 135.881 187.803 136.011C187.536 136.141 187.314 136.323 187.139 136.558C186.969 136.792 186.842 137.072 186.758 137.398C186.673 137.717 186.621 138.068 186.602 138.452V139.732C186.621 140.246 186.706 140.702 186.855 141.099C187.012 141.49 187.246 141.799 187.559 142.027C187.878 142.248 188.291 142.359 188.799 142.359C189.196 142.359 189.525 142.281 189.785 142.124C190.046 141.968 190.247 141.747 190.391 141.46C190.54 141.174 190.645 140.838 190.703 140.454C190.762 140.064 190.791 139.641 190.791 139.185ZM198.32 129.37V144.37H195.498V129.37H198.32ZM205.508 144.566C204.688 144.566 203.952 144.435 203.301 144.175C202.65 143.908 202.096 143.54 201.641 143.072C201.191 142.603 200.846 142.059 200.605 141.441C200.365 140.816 200.244 140.152 200.244 139.448V139.058C200.244 138.257 200.358 137.525 200.586 136.861C200.814 136.197 201.139 135.62 201.562 135.132C201.992 134.644 202.513 134.269 203.125 134.009C203.737 133.742 204.427 133.609 205.195 133.609C205.944 133.609 206.608 133.732 207.188 133.98C207.767 134.227 208.252 134.579 208.643 135.034C209.04 135.49 209.339 136.037 209.541 136.675C209.743 137.307 209.844 138.01 209.844 138.784V139.956H201.445V138.081H207.08V137.866C207.08 137.476 207.008 137.128 206.865 136.822C206.729 136.509 206.52 136.262 206.24 136.079C205.96 135.897 205.602 135.806 205.166 135.806C204.795 135.806 204.476 135.887 204.209 136.05C203.942 136.213 203.724 136.441 203.555 136.734C203.392 137.027 203.268 137.372 203.184 137.769C203.105 138.159 203.066 138.589 203.066 139.058V139.448C203.066 139.872 203.125 140.262 203.242 140.62C203.366 140.978 203.538 141.288 203.76 141.548C203.988 141.809 204.261 142.01 204.58 142.154C204.906 142.297 205.273 142.368 205.684 142.368C206.191 142.368 206.663 142.271 207.1 142.075C207.542 141.874 207.923 141.571 208.242 141.167L209.609 142.652C209.388 142.971 209.085 143.277 208.701 143.57C208.324 143.863 207.868 144.103 207.334 144.292C206.8 144.475 206.191 144.566 205.508 144.566Z"/>
</svg>