<svg viewBox="0 0 50 50" fill="none"
    xmlns="http://www.w3.org/2000/svg">
    <circle cx="25" cy="25" r="25" fill="#2C2C2C"/>
    <g clip-path="url(#clip0_927_1009)">
        <path d="M36.7797 16.3009L33.5978 13.2133C33.3047 12.9291 32.83 12.9291 32.537 13.2133L31.4762 14.2422C31.1833 14.5267 31.1832 14.9873 31.4762 15.2716L27.8842 18.7572C25.6984 17.8588 23.0842 18.2682 21.3029 19.9967L13.8779 27.2017C12.7061 28.3388 12.7061 30.1815 13.8779 31.3186L18.1206 35.436C19.2925 36.5732 21.1914 36.5732 22.3632 35.436L29.7882 28.231C31.5695 26.5026 31.9914 23.9663 31.0656 21.8448L34.6576 18.3592C34.9506 18.6435 35.4311 18.6435 35.724 18.3592L36.7848 17.3298C37.0703 17.046 37.0703 16.5852 36.7797 16.3009ZM21.4047 32.2497L17.162 28.1328L22.8808 22.5835L27.1234 26.7009L21.4047 32.2497Z" fill="white"/>
    </g>
</svg>