<svg viewBox="0 0 500 501" fill="none"
    xmlns="http://www.w3.org/2000/svg">
    <path d="M250 484.48C380.693 484.48 486.64 424.298 486.64 350.06C486.64 275.822 380.693 215.64 250 215.64C119.307 215.64 13.36 275.822 13.36 350.06C13.36 424.298 119.307 484.48 250 484.48Z" fill="#F5F5F5"/>
    <path d="M122.62 373.16C162.462 373.16 194.76 354.62 194.76 331.75C194.76 308.88 162.462 290.34 122.62 290.34C82.7782 290.34 50.48 308.88 50.48 331.75C50.48 354.62 82.7782 373.16 122.62 373.16Z" fill="#E0E0E0"/>
    <path d="M205.36 459.89C227.882 459.89 246.14 449.409 246.14 436.48C246.14 423.551 227.882 413.07 205.36 413.07C182.838 413.07 164.58 423.551 164.58 436.48C164.58 449.409 182.838 459.89 205.36 459.89Z" fill="#E0E0E0"/>
    <path d="M269.23 438.47H294.57L476.76 333.38L297.24 223.64L214.89 275.19L338.39 347.55L225.74 413.09L269.23 438.47Z" fill="#E0E0E0"/>
    <path d="M91.3499 306.08L79.2699 312.99C79.2699 312.99 85.5499 293.52 82.4199 273.82C81.2399 266.38 78.6099 262.67 77.6899 260.67C76.7699 258.67 69.6899 246.34 76.1099 240.76C82.5299 235.18 97.3699 246.6 96.3499 276.87C95.9093 286.777 94.2295 296.59 91.3499 306.08V306.08Z" fill="#455A64"/>
    <path d="M85.7299 309.77C85.677 309.78 85.6228 309.78 85.5699 309.77C85.4502 309.725 85.3529 309.635 85.2987 309.519C85.2445 309.403 85.2378 309.271 85.2799 309.15C85.2799 309.03 89.9499 296.5 89.9499 276.27C89.9499 256.04 79.6799 245.35 79.5799 245.27C79.5352 245.226 79.4996 245.173 79.4754 245.114C79.4512 245.056 79.4387 244.993 79.4387 244.93C79.4387 244.867 79.4512 244.805 79.4754 244.746C79.4996 244.688 79.5352 244.635 79.5799 244.59C79.6712 244.502 79.7931 244.453 79.9199 244.453C80.0467 244.453 80.1686 244.502 80.2599 244.59C80.3699 244.7 90.9099 255.77 90.9099 276.29C90.9099 296.81 86.2199 309.39 86.1699 309.51C86.1305 309.592 86.0677 309.661 85.9893 309.707C85.911 309.753 85.8207 309.775 85.7299 309.77V309.77Z" fill="white"/>
    <path d="M88.68 307.51L68.68 319.06C68.68 319.06 59.62 317.6 60.41 308.97C61.2 300.34 64.91 298.35 60.41 294.5C55.91 290.65 54.67 290.38 54.94 286.66C55.21 282.94 57.7 281.35 58.88 279.89C60.06 278.43 63.35 275.38 61.11 270.89C58.87 266.4 55.83 262.01 60.46 260.01C63.21 258.81 67.81 260.4 70.84 263.72C73.87 267.04 76.35 269.43 79.24 270.23C82.13 271.03 88.18 271.16 87.92 276.23C87.66 281.3 86.34 283.01 87.52 285.23C89.73 289.45 99.46 291.84 88.68 307.51Z" fill="#37474F"/>
    <path d="M80.55 312.69C80.4869 312.685 80.4254 312.668 80.3691 312.639C80.3127 312.61 80.2627 312.57 80.2218 312.522C80.1809 312.474 80.15 312.418 80.1308 312.357C80.1116 312.297 80.1045 312.233 80.11 312.17C80.11 311.87 82.6 282.49 62.64 262.97C62.5873 262.928 62.5441 262.876 62.513 262.816C62.4819 262.756 62.4638 262.691 62.4597 262.624C62.4557 262.557 62.4658 262.489 62.4894 262.426C62.5131 262.363 62.5497 262.306 62.5969 262.258C62.6442 262.21 62.701 262.172 62.7637 262.148C62.8263 262.123 62.8935 262.112 62.9607 262.115C63.028 262.118 63.0938 262.135 63.154 262.166C63.2142 262.196 63.2673 262.238 63.31 262.29C83.6 282.13 81.1 311.96 81.07 312.29C81.0526 312.412 80.9885 312.521 80.8913 312.596C80.7942 312.671 80.6717 312.705 80.55 312.69V312.69Z" fill="white"/>
    <path d="M77.29 287.04C77.1635 287.028 77.0469 286.966 76.9648 286.869C76.8827 286.772 76.8415 286.647 76.85 286.52C77.0236 284.079 77.6994 281.7 78.8351 279.532C79.9708 277.363 81.5418 275.453 83.45 273.92C83.5018 273.884 83.5602 273.858 83.622 273.845C83.6838 273.831 83.7476 273.83 83.8099 273.841C83.8722 273.852 83.9316 273.876 83.9848 273.91C84.038 273.944 84.084 273.988 84.12 274.04C84.1581 274.091 84.1855 274.149 84.2006 274.211C84.2158 274.272 84.2183 274.336 84.208 274.399C84.1977 274.461 84.1749 274.521 84.1408 274.575C84.1068 274.628 84.0623 274.674 84.01 274.71C82.2296 276.173 80.7628 277.98 79.6974 280.023C78.6321 282.066 77.9901 284.303 77.81 286.6C77.8049 286.663 77.7874 286.725 77.7585 286.781C77.7296 286.838 77.6899 286.888 77.6415 286.929C77.5932 286.969 77.5372 287 77.4769 287.02C77.4166 287.039 77.353 287.046 77.29 287.04V287.04Z" fill="white"/>
    <path d="M78.6999 292.16C78.6313 292.159 78.5636 292.144 78.5015 292.114C78.4394 292.085 78.3843 292.043 78.3399 291.99C78.3399 291.94 73.3399 286.45 61.9399 287.9C61.8073 287.916 61.6738 287.879 61.5688 287.796C61.4638 287.714 61.3958 287.593 61.3799 287.46C61.364 287.327 61.4014 287.194 61.484 287.089C61.5665 286.984 61.6873 286.916 61.8199 286.9C73.7599 285.39 78.8199 291.08 79.0599 291.32C79.1047 291.365 79.1402 291.418 79.1644 291.476C79.1886 291.534 79.2011 291.597 79.2011 291.66C79.2011 291.723 79.1886 291.786 79.1644 291.844C79.1402 291.903 79.1047 291.956 79.0599 292C79.0151 292.051 78.9597 292.092 78.8975 292.12C78.8354 292.147 78.7679 292.161 78.6999 292.16V292.16Z" fill="white"/>
    <path d="M123.91 351.18C157.544 351.18 184.81 335.528 184.81 316.22C184.81 296.912 157.544 281.26 123.91 281.26C90.2759 281.26 63.01 296.912 63.01 316.22C63.01 335.528 90.2759 351.18 123.91 351.18Z" fill="#37474F"/>
    <path d="M184.81 316.22C184.81 335.53 157.55 351.22 123.91 351.22C90.27 351.22 63 335.53 63 316.22V325.99C63 345.29 90.26 360.94 123.89 360.94C157.52 360.94 184.79 345.29 184.79 325.99V316.22H184.81Z" fill="#253239"/>
    <path d="M123.91 347.01C92.68 347.01 67.27 333.2 67.27 316.22C67.27 299.24 92.68 285.43 123.91 285.43C155.14 285.43 180.56 299.24 180.56 316.22C180.56 333.2 155.15 347.01 123.91 347.01ZM123.91 286.49C93.26 286.49 68.32 299.82 68.32 316.22C68.32 332.62 93.26 345.95 123.91 345.95C154.56 345.95 179.5 332.61 179.5 316.22C179.5 299.83 154.57 286.49 123.91 286.49Z" fill="#FFD600"/>
    <path d="M123.91 161.8C92.68 161.8 67.27 147.98 67.27 131C67.27 114.02 92.68 100.21 123.91 100.21C155.14 100.21 180.56 114.02 180.56 131C180.56 147.98 155.15 161.8 123.91 161.8ZM123.91 101.27C93.26 101.27 68.32 114.61 68.32 131C68.32 147.39 93.26 160.74 123.91 160.74C154.56 160.74 179.5 147.37 179.5 131C179.5 114.63 154.57 101.27 123.91 101.27Z" fill="#FFD600"/>
    <path d="M179.5 316.23V316.22H180.56L179.5 316.23Z" fill="#FFD600"/>
    <path d="M67.27 316.23V316.22H68.33L67.27 316.23Z" fill="#FFD600"/>
    <path d="M180.56 316.22H179.5C179.5 299.82 154.57 286.49 123.91 286.49C93.25 286.49 68.32 299.82 68.32 316.22H67.32V283.79C67.292 274.933 69.6651 266.234 74.187 258.619C78.7088 251.003 85.2103 244.755 93 240.54L108.47 232.21C109.848 231.462 110.998 230.356 111.8 229.009C112.602 227.662 113.025 226.123 113.025 224.555C113.025 222.987 112.602 221.449 111.8 220.101C110.998 218.754 109.848 217.648 108.47 216.9L93 208.57C85.2085 204.366 78.7018 198.129 74.1713 190.522C69.6408 182.916 67.2559 174.224 67.27 165.37V132.37H68.39V132.84C70.18 148.49 94.54 160.75 123.86 160.75C153.18 160.75 177.55 148.49 179.34 132.84L179.39 132.37H180.51V165.37C180.535 174.226 178.16 182.924 173.636 190.538C169.112 198.152 162.61 204.397 154.82 208.61L139.34 216.94C137.965 217.69 136.817 218.797 136.018 220.144C135.218 221.491 134.796 223.029 134.796 224.595C134.796 226.162 135.218 227.699 136.018 229.046C136.817 230.393 137.965 231.5 139.34 232.25L154.82 240.58C170.51 249.81 180.35 266.37 180.51 283.83L180.56 316.22ZM123.91 285.43C151.41 285.43 174.39 296.13 179.5 310.27V283.79C179.35 266.71 169.71 250.49 154.35 241.47L138.89 233.15C137.345 232.309 136.056 231.068 135.158 229.556C134.26 228.045 133.785 226.319 133.785 224.56C133.785 222.802 134.26 221.076 135.158 219.564C136.056 218.052 137.345 216.811 138.89 215.97L154.37 207.64C161.986 203.521 168.344 197.416 172.769 189.974C177.194 182.531 179.52 174.029 179.5 165.37V136.97C174.4 151.2 151.27 161.84 123.91 161.84C96.55 161.84 73.43 151.2 68.32 136.97V165.37C68.2949 174.036 70.6194 182.547 75.0462 189.997C79.473 197.448 85.8366 203.559 93.46 207.68L108.94 216.01C110.484 216.851 111.774 218.092 112.672 219.604C113.57 221.116 114.044 222.842 114.044 224.6C114.044 226.359 113.57 228.085 112.672 229.596C111.774 231.108 110.484 232.349 108.94 233.19L93.46 241.52C85.8359 245.641 79.4717 251.752 75.0448 259.202C70.6179 266.652 68.2938 275.164 68.32 283.83V310.27C73.43 296.13 96.42 285.43 123.91 285.43Z" fill="#FFD600"/>
    <path d="M128.68 260.6C127.229 259.769 125.587 259.333 123.915 259.333C122.243 259.333 120.601 259.769 119.15 260.6C106.55 267.81 73.3101 287.96 73.3101 300.17C73.3101 315.24 95.9601 327.46 123.91 327.46C151.86 327.46 174.52 315.24 174.52 300.17C174.52 287.96 141.28 267.81 128.68 260.6Z" fill="#FFD600"/>
    <path opacity="0.3" d="M128.68 260.6C127.229 259.769 125.587 259.333 123.915 259.333C122.243 259.333 120.601 259.769 119.15 260.6C106.55 267.81 73.3101 287.96 73.3101 300.17C73.3101 315.24 95.9601 327.46 123.91 327.46C151.86 327.46 174.52 315.24 174.52 300.17C174.52 287.96 141.28 267.81 128.68 260.6Z" fill="white"/>
    <path d="M123.91 327.46C95.9601 327.46 73.3101 315.24 73.3101 300.17V314C73.3101 329.07 95.9701 341.29 123.91 341.29C151.85 341.29 174.52 329.07 174.52 314V300.17C174.52 315.24 151.86 327.46 123.91 327.46Z" fill="#FFD600"/>
    <path d="M73.31 132.89V162.89C73.2929 170.791 75.4145 178.549 79.4497 185.341C83.485 192.133 89.2834 197.707 96.23 201.47L110.23 208.98C110.44 209.1 110.65 209.22 110.84 209.35C111.34 209.67 111.84 209.98 112.36 210.27C115.223 212.061 117.582 214.551 119.216 217.506C120.85 220.461 121.705 223.784 121.7 227.16V240.16C121.697 240.763 121.934 241.343 122.357 241.772C122.781 242.201 123.357 242.445 123.96 242.45V242.45C124.564 242.445 125.141 242.201 125.566 241.772C125.992 241.343 126.23 240.764 126.23 240.16V227.16C126.225 223.785 127.079 220.463 128.711 217.509C130.343 214.554 132.7 212.063 135.56 210.27C136.08 209.98 136.56 209.67 137.09 209.35C137.28 209.22 137.49 209.1 137.7 208.98L151.65 201.47C158.597 197.707 164.395 192.133 168.43 185.341C172.466 178.549 174.587 170.791 174.57 162.89V132.89H73.31Z" fill="#FFD600"/>
    <path d="M126.18 249.48C126.178 249.032 126.043 248.594 125.793 248.222C125.542 247.85 125.187 247.56 124.772 247.39C124.357 247.22 123.901 247.176 123.461 247.265C123.021 247.354 122.618 247.571 122.301 247.889C121.985 248.206 121.77 248.611 121.683 249.051C121.596 249.491 121.642 249.947 121.814 250.361C121.986 250.775 122.277 251.129 122.65 251.378C123.023 251.627 123.461 251.76 123.91 251.76C124.512 251.755 125.088 251.513 125.513 251.086C125.938 250.659 126.177 250.082 126.18 249.48V249.48Z" fill="#FFD600"/>
    <path opacity="0.3" d="M73.31 132.89V162.89C73.2929 170.791 75.4145 178.549 79.4497 185.341C83.485 192.133 89.2834 197.707 96.23 201.47L110.23 208.98C110.44 209.1 110.65 209.22 110.84 209.35C111.34 209.67 111.84 209.98 112.36 210.27C115.223 212.061 117.582 214.551 119.216 217.506C120.85 220.461 121.705 223.784 121.7 227.16V240.16C121.697 240.763 121.934 241.343 122.357 241.772C122.781 242.201 123.357 242.445 123.96 242.45V242.45C124.564 242.445 125.141 242.201 125.566 241.772C125.992 241.343 126.23 240.764 126.23 240.16V227.16C126.225 223.785 127.079 220.463 128.711 217.509C130.343 214.554 132.7 212.063 135.56 210.27C136.08 209.98 136.56 209.67 137.09 209.35C137.28 209.22 137.49 209.1 137.7 208.98L151.65 201.47C158.597 197.707 164.395 192.133 168.43 185.341C172.466 178.549 174.587 170.791 174.57 162.89V132.89H73.31Z" fill="white"/>
    <g opacity="0.3">
        <path d="M126.18 249.48C126.178 249.032 126.043 248.594 125.793 248.222C125.542 247.85 125.187 247.56 124.772 247.39C124.357 247.22 123.901 247.176 123.461 247.265C123.021 247.354 122.618 247.571 122.301 247.889C121.985 248.206 121.77 248.611 121.683 249.051C121.596 249.491 121.642 249.947 121.814 250.361C121.986 250.775 122.277 251.129 122.65 251.378C123.023 251.627 123.461 251.76 123.91 251.76C124.512 251.755 125.088 251.513 125.513 251.086C125.938 250.659 126.177 250.082 126.18 249.48V249.48Z" fill="white"/>
    </g>
    <path d="M123.91 160.18C151.861 160.18 174.52 147.962 174.52 132.89C174.52 117.818 151.861 105.6 123.91 105.6C95.9589 105.6 73.3 117.818 73.3 132.89C73.3 147.962 95.9589 160.18 123.91 160.18Z" fill="#FFD600"/>
    <g style="mix-blend-mode:overlay" opacity="0.5">
        <g style="mix-blend-mode:overlay">
            <path d="M119.75 232.68L109.91 241.01C99.91 249.43 93.75 265.88 93.75 283.79V340.85C90.6936 339.805 87.7188 338.535 84.85 337.05V283.79C84.85 265.88 91.96 249.43 103.36 241.01L114.61 232.68C119.3 229.21 119.3 219.89 114.61 216.44L103.36 208.11C92 199.69 84.85 183.23 84.85 165.37V132.89H93.75V165.37C93.75 183.28 99.96 199.74 109.91 208.16L119.75 216.49C123.84 219.89 123.84 229.21 119.75 232.68Z" fill="white"/>
        </g>
    </g>
    <path d="M123.91 165.96C157.544 165.96 184.81 150.308 184.81 131C184.81 111.692 157.544 96.04 123.91 96.04C90.2759 96.04 63.01 111.692 63.01 131C63.01 150.308 90.2759 165.96 123.91 165.96Z" fill="#37474F"/>
    <path d="M184.81 131C184.81 150.31 157.55 166 123.91 166C90.27 166 63 150.31 63 131V140.77C63 160.08 90.26 175.77 123.89 175.77C157.52 175.77 184.79 160.12 184.79 140.77V131H184.81Z" fill="#253239"/>
    <path d="M323.19 228.33V189.75L269.25 158.29V119.71L215.32 88.2402V281.13L269.25 312.6L323.19 344.06L377.12 375.53V259.8L323.19 228.33Z" fill="#FFD600"/>
    <path opacity="0.3" d="M323.19 228.33V266.91L377.12 298.38V259.8L323.19 228.33Z" fill="white"/>
    <path d="M377.12 259.8V298.38L323.19 329.85V368.42L269.25 399.89V438.47L323.19 407L377.12 375.53L431.06 344.06V228.33L377.12 259.8Z" fill="#FFD600"/>
    <path opacity="0.1" d="M377.12 259.8V298.38L323.19 329.85V368.42L269.25 399.89V438.47L323.19 407L377.12 375.53L431.06 344.06V228.33L377.12 259.8Z" fill="white"/>
    <path d="M269.25 119.71L215.32 88.24L269.25 56.77L323.19 88.24L269.25 119.71Z" fill="#FFD600"/>
    <path opacity="0.7" d="M269.25 119.71L215.32 88.24L269.25 56.77L323.19 88.24L269.25 119.71Z" fill="white"/>
    <path d="M269.25 158.29V119.71L323.19 88.2402V126.82L269.25 158.29Z" fill="#FFD600"/>
    <path opacity="0.1" d="M269.25 158.29V119.71L323.19 88.2402V126.82L269.25 158.29Z" fill="black"/>
    <path d="M323.19 189.75L269.25 158.29L323.19 126.82L377.12 158.29L323.19 189.75Z" fill="#FFD600"/>
    <path d="M323.19 228.33V189.75L377.12 158.29V196.86L323.19 228.33Z" fill="#FFD600"/>
    <path opacity="0.7" d="M323.19 189.75L269.25 158.29L323.19 126.82L377.12 158.29L323.19 189.75Z" fill="white"/>
    <path opacity="0.1" d="M323.19 228.33V189.75L377.12 158.29V196.86L323.19 228.33Z" fill="black"/>
    <path d="M377.12 259.8L323.19 228.33L377.12 196.86L431.06 228.33L377.12 259.8Z" fill="#FFD600"/>
    <g opacity="0.7">
        <path d="M377.12 259.8L323.19 228.33L377.12 196.86L431.06 228.33L377.12 259.8Z" fill="white"/>
    </g>
    <path d="M323.19 329.85L377.12 298.38L323.19 266.91L269.25 298.38L323.19 329.85Z" fill="#FFD600"/>
    <path opacity="0.7" d="M323.19 329.85L377.12 298.38L323.19 266.91L269.25 298.38L323.19 329.85Z" fill="white"/>
    <path d="M323.19 368.42V329.85L269.25 298.38V336.96L323.19 368.42Z" fill="#FFD600"/>
    <path opacity="0.3" d="M323.19 368.42V329.85L269.25 298.38V336.96L323.19 368.42Z" fill="white"/>
    <path d="M269.25 399.89L323.19 368.42L269.25 336.96L215.32 368.42L269.25 399.89Z" fill="#FFD600"/>
    <path d="M269.25 438.47V399.89L215.32 368.42V407L269.25 438.47Z" fill="#FFD600"/>
    <path opacity="0.7" d="M269.25 399.89L323.19 368.42L269.25 336.96L215.32 368.42L269.25 399.89Z" fill="white"/>
    <path opacity="0.3" d="M269.25 438.47V399.89L215.32 368.42V407L269.25 438.47Z" fill="white"/>
    <path d="M312.76 362.34L258.83 393.81L225.75 374.51L279.69 343.04L312.76 362.34Z" fill="#FFD600"/>
    <path opacity="0.4" d="M312.76 362.34L258.83 393.81L225.75 374.51L279.69 343.04L312.76 362.34Z" fill="white"/>
    <path d="M258.83 393.81V432.38L225.74 413.09V374.51H225.75L258.83 393.81Z" fill="#FFD600"/>
    <path d="M366.7 292.29L312.76 323.76L279.69 304.47L333.62 273L366.7 292.29Z" fill="#FFD600"/>
    <path opacity="0.4" d="M366.7 292.29L312.76 323.76L279.69 304.47L333.62 273L366.7 292.29Z" fill="white"/>
    <path d="M312.76 323.76V362.34L279.68 343.04V304.47H279.69L312.76 323.76Z" fill="#FFD600"/>
    <path d="M366.7 253.72V292.29L333.61 273V234.42H333.62L366.7 253.72Z" fill="#FFD600"/>
    <path d="M366.7 253.72V292.29L333.61 273V234.42H333.62L366.7 253.72Z" fill="#FFD600"/>
    <path d="M279.68 152.2L333.61 183.67L366.69 164.38L312.75 132.9L279.68 152.2Z" fill="#FFD600"/>
    <g style="mix-blend-mode:overlay" opacity="0.5">
        <path d="M279.68 152.2L333.61 183.67L366.69 164.38L312.75 132.9L279.68 152.2Z" fill="white"/>
    </g>
    <path d="M333.61 183.67V222.25L366.7 202.95V164.38H366.69L333.61 183.67Z" fill="#FFD600"/>
    <path opacity="0.3" d="M333.61 183.67V222.25L366.7 202.95V164.38H366.69L333.61 183.67Z" fill="black"/>
    <path d="M225.74 82.1503L279.68 113.63L312.75 94.3303L258.82 62.8604L225.74 82.1503Z" fill="#FFD600"/>
    <g style="mix-blend-mode:overlay" opacity="0.5">
        <path d="M225.74 82.1503L279.68 113.63L312.75 94.3303L258.82 62.8604L225.74 82.1503Z" fill="white"/>
    </g>
    <path d="M279.68 113.63V152.2L312.76 132.9V94.3301H312.75L279.68 113.63Z" fill="#FFD600"/>
    <path opacity="0.3" d="M279.68 113.63V152.2L312.76 132.9V94.3301H312.75L279.68 113.63Z" fill="black"/>
    <path d="M377.12 209.04L366.69 202.94L333.61 222.24L344.05 228.33L333.62 234.42L366.7 253.71L377.12 247.63L410.2 228.33L377.12 209.04Z" fill="#FFD600"/>
    <path opacity="0.4" d="M377.12 209.04L366.69 202.94L333.61 222.24L344.05 228.33L333.62 234.42L366.7 253.71L377.12 247.63L410.2 228.33L377.12 209.04Z" fill="white"/>
    <path d="M247.77 76.1901C247.687 76.1893 247.604 76.1688 247.53 76.1301L245.53 74.9501C245.475 74.9181 245.428 74.8756 245.389 74.8251C245.351 74.7745 245.323 74.7169 245.308 74.6555C245.292 74.5942 245.288 74.5303 245.297 74.4676C245.306 74.4049 245.328 74.3446 245.36 74.2901C245.423 74.1807 245.527 74.1004 245.648 74.0667C245.77 74.033 245.9 74.0486 246.01 74.1101L248.01 75.2901C248.12 75.3549 248.201 75.4602 248.234 75.5835C248.268 75.7068 248.252 75.8384 248.19 75.9501C248.148 76.0245 248.087 76.086 248.013 76.1283C247.939 76.1706 247.855 76.192 247.77 76.1901V76.1901Z" fill="#FFD600"/>
    <path d="M287.38 99.3104C287.295 99.3107 287.212 99.2864 287.14 99.2404L283.14 96.9304C283.085 96.8988 283.037 96.8568 282.998 96.8065C282.959 96.7563 282.93 96.6989 282.913 96.6376C282.897 96.5764 282.892 96.5124 282.9 96.4494C282.908 96.3863 282.929 96.3255 282.96 96.2704C282.992 96.2152 283.034 96.1668 283.084 96.1279C283.134 96.089 283.192 96.0604 283.253 96.0437C283.314 96.027 283.378 96.0225 283.441 96.0305C283.504 96.0385 283.565 96.0588 283.62 96.0904L287.62 98.4004C287.675 98.4324 287.723 98.4749 287.761 98.5254C287.799 98.576 287.827 98.6336 287.843 98.695C287.858 98.7563 287.862 98.8202 287.853 98.8829C287.844 98.9456 287.823 99.0059 287.79 99.0604C287.751 99.1358 287.693 99.199 287.62 99.2431C287.548 99.2872 287.465 99.3105 287.38 99.3104V99.3104ZM279.46 94.6804C279.376 94.6796 279.294 94.659 279.22 94.6204L275.22 92.3104C275.165 92.2788 275.117 92.2368 275.078 92.1865C275.039 92.1363 275.01 92.0789 274.993 92.0176C274.977 91.9564 274.972 91.8924 274.98 91.8294C274.988 91.7663 275.009 91.7055 275.04 91.6504C275.072 91.5952 275.114 91.5468 275.164 91.5079C275.214 91.469 275.272 91.4404 275.333 91.4237C275.394 91.407 275.458 91.4025 275.521 91.4105C275.584 91.4185 275.645 91.4388 275.7 91.4704L279.7 93.7804C279.755 93.8124 279.803 93.8549 279.841 93.9054C279.879 93.956 279.907 94.0136 279.923 94.075C279.938 94.1363 279.942 94.2002 279.933 94.2629C279.924 94.3256 279.903 94.3859 279.87 94.4404C279.831 94.5146 279.772 94.5765 279.699 94.6189C279.627 94.6613 279.544 94.6826 279.46 94.6804V94.6804ZM271.54 90.0604C271.456 90.0608 271.374 90.0401 271.3 90.0004L267.3 87.6904C267.189 87.6237 267.109 87.5166 267.075 87.3917C267.041 87.2667 267.058 87.1336 267.12 87.0204C267.152 86.9657 267.195 86.9179 267.245 86.8797C267.296 86.8415 267.353 86.8137 267.415 86.7979C267.476 86.7821 267.54 86.7786 267.603 86.7876C267.665 86.7966 267.726 86.8179 267.78 86.8504L271.78 89.1604C271.874 89.2122 271.948 89.2938 271.989 89.3924C272.031 89.4909 272.039 89.6006 272.012 89.7041C271.984 89.8076 271.923 89.8988 271.837 89.9634C271.752 90.028 271.647 90.0621 271.54 90.0604V90.0604ZM263.62 85.4404C263.535 85.4433 263.451 85.4187 263.38 85.3704L259.38 83.0604C259.27 82.9956 259.189 82.8903 259.156 82.767C259.122 82.6437 259.138 82.5121 259.2 82.4004C259.231 82.346 259.273 82.2984 259.322 82.2603C259.372 82.2223 259.429 82.1945 259.489 82.1787C259.55 82.1628 259.613 82.1593 259.675 82.1681C259.737 82.177 259.796 82.1982 259.85 82.2304L263.85 84.5404C263.959 84.6068 264.037 84.7128 264.069 84.836C264.1 84.9591 264.083 85.0898 264.02 85.2004C263.979 85.2705 263.92 85.3291 263.85 85.371C263.781 85.4129 263.701 85.4368 263.62 85.4404ZM255.69 80.8204C255.605 80.8207 255.522 80.7964 255.45 80.7504L251.45 78.4404C251.342 78.3739 251.263 78.2679 251.232 78.1448C251.2 78.0216 251.217 77.8909 251.28 77.7804C251.343 77.6709 251.446 77.5907 251.568 77.557C251.69 77.5233 251.82 77.5389 251.93 77.6004L255.93 79.9104C256.04 79.9752 256.121 80.0805 256.154 80.2038C256.188 80.327 256.172 80.4586 256.11 80.5704C256.069 80.6458 256.008 80.7088 255.934 80.7528C255.86 80.7968 255.776 80.8201 255.69 80.8204V80.8204Z" fill="#FFD600"/>
    <path d="M293.36 102.8C293.275 102.8 293.192 102.776 293.12 102.73L291.12 101.55C291.065 101.518 291.018 101.475 290.979 101.425C290.941 101.374 290.913 101.317 290.898 101.255C290.882 101.194 290.878 101.13 290.887 101.067C290.896 101.005 290.918 100.944 290.95 100.89C290.98 100.835 291.021 100.786 291.071 100.747C291.12 100.708 291.177 100.68 291.238 100.664C291.299 100.648 291.363 100.645 291.425 100.654C291.487 100.664 291.547 100.686 291.6 100.72L293.6 101.89C293.71 101.955 293.791 102.06 293.824 102.183C293.858 102.307 293.842 102.438 293.78 102.55C293.739 102.625 293.678 102.688 293.604 102.732C293.53 102.776 293.446 102.8 293.36 102.8Z" fill="#FFD600"/>
    <g opacity="0.3">
        <path d="M247.77 76.1901C247.687 76.1893 247.604 76.1688 247.53 76.1301L245.53 74.9501C245.475 74.9181 245.428 74.8756 245.389 74.8251C245.351 74.7745 245.323 74.7169 245.308 74.6555C245.292 74.5942 245.288 74.5303 245.297 74.4676C245.306 74.4049 245.328 74.3446 245.36 74.2901C245.423 74.1807 245.527 74.1004 245.648 74.0667C245.77 74.033 245.9 74.0486 246.01 74.1101L248.01 75.2901C248.12 75.3549 248.201 75.4602 248.234 75.5835C248.268 75.7068 248.252 75.8384 248.19 75.9501C248.148 76.0245 248.087 76.086 248.013 76.1283C247.939 76.1706 247.855 76.192 247.77 76.1901V76.1901Z" fill="black"/>
        <path d="M287.38 99.3104C287.295 99.3107 287.212 99.2864 287.14 99.2404L283.14 96.9304C283.085 96.8988 283.037 96.8568 282.998 96.8065C282.959 96.7563 282.93 96.6989 282.913 96.6376C282.897 96.5764 282.892 96.5124 282.9 96.4494C282.908 96.3863 282.929 96.3255 282.96 96.2704C282.992 96.2152 283.034 96.1668 283.084 96.1279C283.134 96.089 283.192 96.0604 283.253 96.0437C283.314 96.027 283.378 96.0225 283.441 96.0305C283.504 96.0385 283.565 96.0588 283.62 96.0904L287.62 98.4004C287.675 98.4324 287.723 98.4749 287.761 98.5254C287.799 98.576 287.827 98.6336 287.843 98.695C287.858 98.7563 287.862 98.8202 287.853 98.8829C287.844 98.9456 287.823 99.0059 287.79 99.0604C287.751 99.1358 287.693 99.199 287.62 99.2431C287.548 99.2872 287.465 99.3105 287.38 99.3104V99.3104ZM279.46 94.6804C279.376 94.6796 279.294 94.659 279.22 94.6204L275.22 92.3104C275.165 92.2788 275.117 92.2368 275.078 92.1865C275.039 92.1363 275.01 92.0789 274.993 92.0176C274.977 91.9564 274.972 91.8924 274.98 91.8294C274.988 91.7663 275.009 91.7055 275.04 91.6504C275.072 91.5952 275.114 91.5468 275.164 91.5079C275.214 91.469 275.272 91.4404 275.333 91.4237C275.394 91.407 275.458 91.4025 275.521 91.4105C275.584 91.4185 275.645 91.4388 275.7 91.4704L279.7 93.7804C279.755 93.8124 279.803 93.8549 279.841 93.9054C279.879 93.956 279.907 94.0136 279.923 94.075C279.938 94.1363 279.942 94.2002 279.933 94.2629C279.924 94.3256 279.903 94.3859 279.87 94.4404C279.831 94.5146 279.772 94.5765 279.699 94.6189C279.627 94.6613 279.544 94.6826 279.46 94.6804V94.6804ZM271.54 90.0604C271.456 90.0608 271.374 90.0401 271.3 90.0004L267.3 87.6904C267.189 87.6237 267.109 87.5166 267.075 87.3917C267.041 87.2667 267.058 87.1336 267.12 87.0204C267.152 86.9657 267.195 86.9179 267.245 86.8797C267.296 86.8415 267.353 86.8137 267.415 86.7979C267.476 86.7821 267.54 86.7786 267.603 86.7876C267.665 86.7966 267.726 86.8179 267.78 86.8504L271.78 89.1604C271.874 89.2122 271.948 89.2938 271.989 89.3924C272.031 89.4909 272.039 89.6006 272.012 89.7041C271.984 89.8076 271.923 89.8988 271.837 89.9634C271.752 90.028 271.647 90.0621 271.54 90.0604V90.0604ZM263.62 85.4404C263.535 85.4433 263.451 85.4187 263.38 85.3704L259.38 83.0604C259.27 82.9956 259.189 82.8903 259.156 82.767C259.122 82.6437 259.138 82.5121 259.2 82.4004C259.231 82.346 259.273 82.2984 259.322 82.2603C259.372 82.2223 259.429 82.1945 259.489 82.1787C259.55 82.1628 259.613 82.1593 259.675 82.1681C259.737 82.177 259.796 82.1982 259.85 82.2304L263.85 84.5404C263.959 84.6068 264.037 84.7128 264.069 84.836C264.1 84.9591 264.083 85.0898 264.02 85.2004C263.979 85.2705 263.92 85.3291 263.85 85.371C263.781 85.4129 263.701 85.4368 263.62 85.4404ZM255.69 80.8204C255.605 80.8207 255.522 80.7964 255.45 80.7504L251.45 78.4404C251.342 78.3739 251.263 78.2679 251.232 78.1448C251.2 78.0216 251.217 77.8909 251.28 77.7804C251.343 77.6709 251.446 77.5907 251.568 77.557C251.69 77.5233 251.82 77.5389 251.93 77.6004L255.93 79.9104C256.04 79.9752 256.121 80.0805 256.154 80.2038C256.188 80.327 256.172 80.4586 256.11 80.5704C256.069 80.6458 256.008 80.7088 255.934 80.7528C255.86 80.7968 255.776 80.8201 255.69 80.8204V80.8204Z" fill="black"/>
        <path d="M293.36 102.8C293.275 102.8 293.192 102.776 293.12 102.73L291.12 101.55C291.065 101.518 291.018 101.475 290.979 101.425C290.941 101.374 290.913 101.317 290.898 101.255C290.882 101.194 290.878 101.13 290.887 101.067C290.896 101.005 290.918 100.944 290.95 100.89C290.98 100.835 291.021 100.786 291.071 100.747C291.12 100.708 291.177 100.68 291.238 100.664C291.299 100.648 291.363 100.645 291.425 100.654C291.487 100.664 291.547 100.686 291.6 100.72L293.6 101.89C293.71 101.955 293.791 102.06 293.824 102.183C293.858 102.307 293.842 102.438 293.78 102.55C293.739 102.625 293.678 102.688 293.604 102.732C293.53 102.776 293.446 102.8 293.36 102.8Z" fill="black"/>
    </g>
    <path d="M301.42 146.07C301.335 146.071 301.252 146.046 301.18 146L299.18 144.82C299.125 144.788 299.078 144.746 299.039 144.695C299.001 144.645 298.973 144.587 298.958 144.526C298.942 144.464 298.938 144.4 298.947 144.338C298.956 144.275 298.978 144.215 299.01 144.16C299.041 144.106 299.083 144.058 299.132 144.02C299.182 143.982 299.239 143.954 299.299 143.939C299.36 143.923 299.423 143.919 299.485 143.928C299.547 143.937 299.606 143.958 299.66 143.99L301.66 145.17C301.754 145.222 301.827 145.304 301.869 145.402C301.911 145.501 301.919 145.611 301.892 145.714C301.864 145.818 301.803 145.909 301.717 145.973C301.632 146.038 301.527 146.072 301.42 146.07V146.07Z" fill="#FFD600"/>
    <path d="M341.07 169.21C340.988 169.212 340.907 169.187 340.84 169.14L336.84 166.83C336.785 166.799 336.737 166.756 336.698 166.706C336.659 166.656 336.63 166.599 336.613 166.537C336.597 166.476 336.592 166.412 336.6 166.349C336.608 166.286 336.629 166.225 336.66 166.17C336.692 166.115 336.734 166.066 336.784 166.028C336.834 165.989 336.892 165.96 336.953 165.943C337.014 165.927 337.078 165.922 337.141 165.93C337.204 165.938 337.265 165.959 337.32 165.99L341.32 168.31C341.43 168.375 341.511 168.48 341.544 168.603C341.578 168.727 341.562 168.858 341.5 168.97C341.456 169.044 341.393 169.106 341.317 169.148C341.242 169.19 341.157 169.212 341.07 169.21ZM333.14 164.58C333.056 164.579 332.974 164.559 332.9 164.52L328.9 162.2C328.789 162.136 328.707 162.031 328.673 161.907C328.64 161.784 328.656 161.651 328.72 161.54C328.784 161.429 328.889 161.347 329.013 161.313C329.137 161.28 329.269 161.296 329.38 161.36L333.38 163.68C333.474 163.732 333.547 163.814 333.589 163.912C333.631 164.011 333.639 164.12 333.612 164.224C333.584 164.327 333.523 164.419 333.437 164.483C333.352 164.548 333.247 164.582 333.14 164.58V164.58ZM325.21 159.95C325.126 159.949 325.044 159.929 324.97 159.89L320.97 157.57C320.86 157.505 320.779 157.4 320.746 157.277C320.712 157.153 320.728 157.022 320.79 156.91C320.822 156.855 320.865 156.808 320.915 156.769C320.966 156.731 321.023 156.703 321.085 156.688C321.146 156.672 321.21 156.668 321.273 156.677C321.335 156.686 321.396 156.708 321.45 156.74L325.45 159.05C325.56 159.115 325.641 159.22 325.674 159.343C325.708 159.467 325.692 159.598 325.63 159.71C325.588 159.784 325.527 159.846 325.453 159.888C325.379 159.931 325.295 159.952 325.21 159.95V159.95ZM317.28 155.37C317.196 155.369 317.114 155.349 317.04 155.31L313.04 153C312.93 152.935 312.849 152.83 312.816 152.707C312.782 152.583 312.798 152.452 312.86 152.34C312.891 152.285 312.933 152.236 312.983 152.197C313.033 152.157 313.091 152.129 313.152 152.112C313.214 152.095 313.278 152.091 313.341 152.099C313.404 152.107 313.465 152.128 313.52 152.16L317.52 154.47C317.63 154.535 317.711 154.64 317.744 154.763C317.778 154.887 317.762 155.018 317.7 155.13C317.658 155.204 317.597 155.266 317.523 155.308C317.449 155.351 317.365 155.372 317.28 155.37V155.37ZM309.35 150.75C309.265 150.75 309.182 150.726 309.11 150.68L305.11 148.37C305.055 148.339 305.007 148.296 304.968 148.246C304.929 148.196 304.9 148.139 304.883 148.077C304.867 148.016 304.862 147.952 304.87 147.889C304.878 147.826 304.899 147.765 304.93 147.71C304.962 147.655 305.004 147.606 305.054 147.568C305.104 147.529 305.162 147.5 305.223 147.483C305.284 147.467 305.348 147.462 305.411 147.47C305.474 147.478 305.535 147.499 305.59 147.53L309.59 149.84C309.701 149.907 309.782 150.014 309.815 150.139C309.849 150.264 309.833 150.397 309.77 150.51C309.721 150.574 309.657 150.624 309.584 150.658C309.511 150.691 309.43 150.705 309.35 150.7V150.75Z" fill="#FFD600"/>
    <path d="M347.06 172.7C346.976 172.699 346.894 172.679 346.82 172.64L344.82 171.46C344.765 171.428 344.718 171.386 344.679 171.335C344.641 171.285 344.613 171.227 344.598 171.166C344.582 171.104 344.578 171.04 344.587 170.978C344.596 170.915 344.618 170.855 344.65 170.8C344.68 170.745 344.721 170.696 344.77 170.657C344.82 170.618 344.876 170.589 344.937 170.573C344.998 170.556 345.061 170.551 345.123 170.56C345.186 170.568 345.246 170.588 345.3 170.62L347.3 171.8C347.355 171.832 347.403 171.875 347.441 171.925C347.479 171.976 347.507 172.033 347.523 172.095C347.538 172.156 347.542 172.22 347.533 172.283C347.524 172.345 347.502 172.406 347.47 172.46C347.428 172.532 347.368 172.591 347.296 172.633C347.224 172.675 347.143 172.698 347.06 172.7V172.7Z" fill="#FFD600"/>
    <g opacity="0.3">
        <path d="M301.42 146.07C301.335 146.071 301.252 146.046 301.18 146L299.18 144.82C299.125 144.788 299.078 144.746 299.039 144.695C299.001 144.645 298.973 144.587 298.958 144.526C298.942 144.464 298.938 144.4 298.947 144.338C298.956 144.275 298.978 144.215 299.01 144.16C299.041 144.106 299.083 144.058 299.132 144.02C299.182 143.982 299.239 143.954 299.299 143.939C299.36 143.923 299.423 143.919 299.485 143.928C299.547 143.937 299.606 143.958 299.66 143.99L301.66 145.17C301.754 145.222 301.827 145.304 301.869 145.402C301.911 145.501 301.919 145.611 301.892 145.714C301.864 145.818 301.803 145.909 301.717 145.973C301.632 146.038 301.527 146.072 301.42 146.07V146.07Z" fill="black"/>
        <path d="M341.07 169.211C340.988 169.212 340.907 169.188 340.84 169.141L336.84 166.831C336.785 166.799 336.736 166.757 336.697 166.707C336.659 166.656 336.63 166.599 336.613 166.538C336.597 166.477 336.592 166.413 336.6 166.35C336.608 166.287 336.628 166.226 336.66 166.171C336.691 166.115 336.734 166.067 336.784 166.028C336.834 165.989 336.891 165.961 336.953 165.944C337.014 165.927 337.078 165.923 337.141 165.931C337.204 165.939 337.265 165.959 337.32 165.991L341.32 168.311C341.43 168.375 341.511 168.481 341.544 168.604C341.578 168.727 341.562 168.859 341.5 168.971C341.456 169.045 341.393 169.106 341.317 169.148C341.242 169.191 341.156 169.212 341.07 169.211ZM333.14 164.581C333.056 164.58 332.974 164.559 332.9 164.521L328.9 162.201C328.789 162.137 328.707 162.032 328.673 161.908C328.64 161.784 328.656 161.652 328.72 161.541C328.784 161.429 328.889 161.348 329.013 161.314C329.136 161.28 329.269 161.297 329.38 161.361L333.38 163.681C333.474 163.732 333.547 163.814 333.589 163.913C333.631 164.011 333.639 164.121 333.611 164.224C333.584 164.328 333.523 164.419 333.437 164.484C333.352 164.548 333.247 164.582 333.14 164.581V164.581ZM325.21 159.951C325.126 159.95 325.044 159.929 324.97 159.891L320.97 157.571C320.86 157.506 320.779 157.4 320.746 157.277C320.712 157.154 320.728 157.022 320.79 156.911C320.822 156.856 320.864 156.808 320.915 156.77C320.966 156.732 321.023 156.704 321.085 156.688C321.146 156.672 321.21 156.669 321.273 156.678C321.335 156.687 321.396 156.708 321.45 156.741L325.45 159.051C325.56 159.115 325.641 159.221 325.674 159.344C325.708 159.467 325.692 159.599 325.63 159.711C325.588 159.785 325.527 159.846 325.453 159.889C325.379 159.931 325.295 159.952 325.21 159.951V159.951ZM317.28 155.371C317.196 155.37 317.114 155.349 317.04 155.311L313.04 153.001C312.93 152.936 312.849 152.83 312.816 152.707C312.782 152.584 312.798 152.452 312.86 152.341C312.891 152.285 312.933 152.236 312.983 152.197C313.033 152.158 313.091 152.129 313.152 152.112C313.214 152.096 313.278 152.091 313.341 152.099C313.404 152.108 313.465 152.129 313.52 152.161L317.52 154.471C317.63 154.535 317.711 154.641 317.744 154.764C317.778 154.887 317.762 155.019 317.7 155.131C317.658 155.205 317.597 155.266 317.523 155.309C317.449 155.351 317.365 155.372 317.28 155.371V155.371ZM309.35 150.751C309.265 150.751 309.181 150.727 309.11 150.681L305.11 148.371C305.055 148.339 305.006 148.297 304.967 148.247C304.929 148.196 304.9 148.139 304.883 148.078C304.867 148.017 304.862 147.953 304.87 147.89C304.878 147.827 304.898 147.766 304.93 147.711C304.961 147.655 305.004 147.607 305.054 147.568C305.104 147.529 305.161 147.501 305.223 147.484C305.284 147.467 305.348 147.463 305.411 147.471C305.474 147.479 305.535 147.499 305.59 147.531L309.59 149.841C309.701 149.907 309.781 150.014 309.815 150.139C309.849 150.264 309.832 150.397 309.77 150.511C309.721 150.574 309.657 150.625 309.584 150.658C309.51 150.691 309.43 150.706 309.35 150.701V150.751Z" fill="black"/>
        <path d="M347.06 172.7C346.976 172.699 346.894 172.679 346.82 172.64L344.82 171.46C344.765 171.428 344.718 171.386 344.679 171.335C344.641 171.285 344.613 171.227 344.598 171.166C344.582 171.104 344.578 171.04 344.587 170.978C344.596 170.915 344.618 170.855 344.65 170.8C344.68 170.745 344.721 170.696 344.77 170.657C344.82 170.618 344.876 170.589 344.937 170.573C344.998 170.556 345.061 170.551 345.123 170.56C345.186 170.568 345.246 170.588 345.3 170.62L347.3 171.8C347.355 171.832 347.403 171.875 347.441 171.925C347.479 171.976 347.507 172.033 347.523 172.095C347.538 172.156 347.542 172.22 347.533 172.283C347.524 172.345 347.502 172.406 347.47 172.46C347.428 172.532 347.368 172.591 347.296 172.633C347.224 172.675 347.143 172.698 347.06 172.7V172.7Z" fill="black"/>
    </g>
    <path d="M350.16 244.54C350.077 244.538 349.996 244.515 349.924 244.473C349.852 244.431 349.792 244.372 349.75 244.3C349.687 244.19 349.67 244.059 349.702 243.936C349.733 243.813 349.812 243.707 349.92 243.64L351.92 242.46C352.03 242.399 352.16 242.383 352.282 242.417C352.404 242.451 352.507 242.531 352.57 242.64C352.632 242.752 352.648 242.884 352.614 243.007C352.581 243.13 352.5 243.235 352.39 243.3L350.39 244.48C350.32 244.519 350.241 244.54 350.16 244.54V244.54Z" fill="#FFD600"/>
    <path d="M356.77 240.69C356.686 240.691 356.604 240.669 356.532 240.627C356.459 240.585 356.4 240.524 356.36 240.45C356.326 240.396 356.304 240.336 356.294 240.273C356.284 240.21 356.288 240.145 356.303 240.084C356.319 240.022 356.348 239.964 356.387 239.913C356.426 239.863 356.474 239.821 356.53 239.79L361.11 237.11C361.165 237.078 361.226 237.057 361.289 237.049C361.352 237.041 361.416 237.045 361.478 237.062C361.539 237.079 361.597 237.107 361.647 237.147C361.697 237.186 361.739 237.235 361.77 237.29C361.832 237.402 361.848 237.533 361.814 237.657C361.781 237.78 361.7 237.885 361.59 237.95L357 240.62C356.931 240.664 356.852 240.689 356.77 240.69V240.69ZM365.94 235.34C365.855 235.34 365.772 235.318 365.698 235.275C365.625 235.233 365.563 235.173 365.52 235.1C365.458 234.988 365.442 234.857 365.476 234.733C365.51 234.61 365.59 234.505 365.7 234.44L370.28 231.76C370.392 231.696 370.524 231.68 370.647 231.713C370.771 231.747 370.876 231.829 370.94 231.94C371.004 232.051 371.021 232.184 370.987 232.307C370.953 232.431 370.872 232.536 370.76 232.6L366.18 235.27C366.112 235.327 366.028 235.362 365.94 235.37V235.34Z" fill="#FFD600"/>
    <path d="M375.11 229.99C375.025 229.99 374.942 229.968 374.868 229.926C374.795 229.884 374.733 229.823 374.69 229.75C374.628 229.638 374.612 229.507 374.646 229.384C374.679 229.26 374.76 229.155 374.87 229.09L376.16 228.33L374.87 227.57C374.815 227.539 374.767 227.497 374.728 227.446C374.689 227.396 374.66 227.339 374.643 227.278C374.627 227.216 374.622 227.152 374.63 227.089C374.638 227.026 374.659 226.965 374.69 226.91C374.722 226.855 374.764 226.807 374.814 226.768C374.864 226.729 374.922 226.7 374.983 226.684C375.044 226.667 375.108 226.662 375.171 226.67C375.234 226.678 375.295 226.699 375.35 226.73L377.35 227.91C377.441 227.967 377.511 228.05 377.55 228.149C377.59 228.248 377.597 228.357 377.57 228.46C377.55 228.535 377.512 228.604 377.46 228.661C377.408 228.719 377.343 228.763 377.27 228.79L375.27 229.92C375.223 229.955 375.168 229.979 375.11 229.99V229.99Z" fill="#FFD600"/>
    <path d="M371.13 225.31C371.046 225.312 370.963 225.291 370.89 225.25L366.89 222.93C366.78 222.865 366.699 222.76 366.666 222.637C366.632 222.514 366.648 222.382 366.71 222.27C366.74 222.215 366.781 222.166 366.83 222.127C366.88 222.088 366.936 222.06 366.997 222.043C367.058 222.026 367.121 222.022 367.183 222.03C367.246 222.038 367.306 222.058 367.36 222.09L371.36 224.41C371.468 224.477 371.547 224.583 371.579 224.706C371.61 224.829 371.593 224.96 371.53 225.07C371.49 225.142 371.432 225.201 371.362 225.243C371.292 225.285 371.212 225.308 371.13 225.31V225.31ZM363.13 220.67C363.048 220.672 362.967 220.647 362.9 220.6L358.9 218.28C358.792 218.214 358.713 218.108 358.682 217.985C358.65 217.861 358.667 217.731 358.73 217.62C358.793 217.511 358.896 217.43 359.018 217.397C359.14 217.363 359.27 217.379 359.38 217.44L363.38 219.76C363.491 219.827 363.572 219.934 363.605 220.059C363.639 220.184 363.623 220.317 363.56 220.43C363.519 220.5 363.46 220.559 363.39 220.601C363.321 220.643 363.241 220.667 363.16 220.67H363.13Z" fill="#FFD600"/>
    <path d="M355.2 216.02C355.117 216.019 355.034 215.999 354.96 215.96L352.96 214.78C352.852 214.714 352.773 214.608 352.742 214.485C352.71 214.361 352.727 214.231 352.79 214.12C352.853 214.011 352.957 213.93 353.078 213.897C353.2 213.863 353.33 213.879 353.44 213.94L355.44 215.12C355.534 215.172 355.608 215.254 355.649 215.352C355.691 215.451 355.699 215.56 355.672 215.664C355.644 215.767 355.583 215.859 355.497 215.923C355.412 215.988 355.307 216.022 355.2 216.02V216.02Z" fill="#FFD600"/>
    <path d="M348.13 284.29C348.047 284.29 347.965 284.268 347.893 284.226C347.82 284.184 347.761 284.123 347.72 284.05C347.658 283.938 347.642 283.807 347.676 283.684C347.709 283.56 347.79 283.455 347.9 283.39L349.9 282.21C350.01 282.149 350.14 282.133 350.262 282.167C350.384 282.201 350.487 282.281 350.55 282.39C350.612 282.502 350.628 282.634 350.594 282.757C350.561 282.88 350.48 282.985 350.37 283.05L348.37 284.23C348.297 284.271 348.214 284.292 348.13 284.29V284.29Z" fill="#FFD600"/>
    <path d="M302.09 311.16C302.007 311.16 301.925 311.138 301.853 311.096C301.78 311.054 301.721 310.993 301.68 310.92C301.648 310.866 301.626 310.805 301.617 310.743C301.608 310.68 301.612 310.616 301.628 310.555C301.643 310.493 301.671 310.436 301.709 310.385C301.748 310.335 301.795 310.292 301.85 310.26L305.69 308.02C305.8 307.959 305.93 307.943 306.052 307.977C306.174 308.01 306.277 308.091 306.34 308.2C306.372 308.255 306.394 308.315 306.403 308.378C306.412 308.44 306.408 308.504 306.393 308.566C306.377 308.627 306.349 308.685 306.311 308.735C306.273 308.786 306.225 308.828 306.17 308.86L302.33 311.1C302.256 311.14 302.174 311.161 302.09 311.16ZM309.77 306.68C309.685 306.682 309.601 306.661 309.527 306.618C309.453 306.576 309.392 306.514 309.35 306.44C309.288 306.328 309.272 306.197 309.306 306.074C309.339 305.95 309.42 305.845 309.53 305.78L313.36 303.54C313.415 303.509 313.476 303.488 313.539 303.48C313.602 303.472 313.666 303.477 313.727 303.493C313.789 303.51 313.846 303.539 313.896 303.578C313.946 303.617 313.989 303.665 314.02 303.72C314.052 303.775 314.072 303.836 314.08 303.899C314.088 303.962 314.083 304.026 314.067 304.087C314.05 304.149 314.021 304.206 313.983 304.256C313.944 304.307 313.895 304.349 313.84 304.38L310 306.62C309.93 306.66 309.851 306.681 309.77 306.68V306.68ZM317.44 302.21C317.356 302.211 317.274 302.189 317.202 302.147C317.129 302.105 317.07 302.044 317.03 301.97C316.964 301.859 316.945 301.726 316.977 301.6C317.009 301.475 317.089 301.367 317.2 301.3L321 299.07C321.054 299.038 321.113 299.017 321.175 299.008C321.237 298.999 321.3 299.003 321.361 299.018C321.421 299.034 321.478 299.062 321.528 299.1C321.577 299.138 321.619 299.186 321.65 299.24C321.713 299.351 321.73 299.481 321.699 299.605C321.667 299.728 321.589 299.834 321.48 299.9L317.64 302.14C317.58 302.179 317.511 302.203 317.44 302.21V302.21ZM325.11 297.73C325.027 297.728 324.946 297.705 324.874 297.663C324.802 297.621 324.742 297.562 324.7 297.49C324.637 297.38 324.62 297.249 324.652 297.126C324.683 297.003 324.762 296.897 324.87 296.83L328.71 294.59C328.763 294.557 328.823 294.534 328.885 294.525C328.947 294.515 329.011 294.518 329.072 294.534C329.133 294.55 329.19 294.578 329.239 294.617C329.289 294.656 329.33 294.705 329.36 294.76C329.394 294.814 329.416 294.875 329.426 294.938C329.436 295.001 329.433 295.065 329.417 295.127C329.401 295.188 329.373 295.246 329.334 295.297C329.295 295.347 329.246 295.389 329.19 295.42L325.35 297.66C325.279 297.707 325.195 297.732 325.11 297.73V297.73ZM332.79 293.25C332.683 293.252 332.578 293.218 332.493 293.153C332.408 293.089 332.346 292.997 332.319 292.894C332.291 292.79 332.299 292.681 332.341 292.582C332.383 292.484 332.456 292.402 332.55 292.35L336.39 290.11C336.444 290.078 336.504 290.058 336.567 290.05C336.629 290.041 336.692 290.046 336.753 290.063C336.814 290.079 336.87 290.108 336.92 290.147C336.969 290.186 337.01 290.235 337.04 290.29C337.102 290.402 337.118 290.533 337.084 290.657C337.051 290.78 336.97 290.885 336.86 290.95L333 293.19C332.935 293.225 332.863 293.245 332.79 293.25V293.25ZM340.46 288.77C340.376 288.772 340.293 288.751 340.221 288.709C340.148 288.666 340.089 288.604 340.05 288.53C340.018 288.476 339.996 288.415 339.987 288.353C339.978 288.29 339.982 288.226 339.998 288.165C340.013 288.103 340.041 288.046 340.079 287.995C340.118 287.945 340.165 287.902 340.22 287.87L344.06 285.63C344.17 285.569 344.3 285.553 344.422 285.587C344.544 285.62 344.647 285.701 344.71 285.81C344.742 285.865 344.764 285.925 344.773 285.988C344.782 286.05 344.778 286.114 344.763 286.176C344.747 286.237 344.719 286.295 344.681 286.345C344.643 286.396 344.595 286.438 344.54 286.47L340.7 288.71C340.626 288.749 340.544 288.769 340.46 288.77V288.77Z" fill="#FFD600"/>
    <path d="M296.23 314.58C296.147 314.578 296.066 314.555 295.994 314.513C295.922 314.471 295.863 314.412 295.82 314.34C295.757 314.229 295.74 314.099 295.772 313.976C295.803 313.852 295.882 313.746 295.99 313.68L297.99 312.5C298.044 312.468 298.104 312.448 298.167 312.44C298.229 312.431 298.293 312.436 298.353 312.453C298.414 312.469 298.47 312.498 298.52 312.537C298.569 312.576 298.61 312.625 298.64 312.68C298.702 312.792 298.718 312.923 298.684 313.047C298.651 313.17 298.57 313.275 298.46 313.34L296.46 314.52C296.39 314.559 296.311 314.58 296.23 314.58V314.58Z" fill="#FFD600"/>
    <path d="M294.2 354.37C294.117 354.37 294.035 354.348 293.962 354.306C293.89 354.264 293.831 354.203 293.79 354.13C293.73 354.019 293.714 353.889 293.745 353.767C293.777 353.644 293.853 353.538 293.96 353.47L295.96 352.29C296.07 352.229 296.2 352.213 296.322 352.247C296.444 352.281 296.547 352.361 296.61 352.47C296.672 352.582 296.688 352.714 296.654 352.837C296.621 352.96 296.54 353.066 296.43 353.13L294.43 354.31C294.36 354.349 294.281 354.37 294.2 354.37V354.37Z" fill="#FFD600"/>
    <path d="M248.16 381.2C248.076 381.202 247.993 381.181 247.921 381.139C247.848 381.096 247.789 381.034 247.75 380.96C247.718 380.906 247.696 380.845 247.687 380.783C247.678 380.72 247.682 380.656 247.698 380.595C247.713 380.533 247.741 380.476 247.779 380.425C247.817 380.375 247.865 380.332 247.92 380.3L251.76 378.06C251.87 377.999 252 377.983 252.122 378.017C252.244 378.05 252.347 378.131 252.41 378.24C252.442 378.295 252.464 378.355 252.473 378.418C252.482 378.48 252.478 378.544 252.462 378.606C252.447 378.667 252.419 378.725 252.381 378.775C252.343 378.826 252.295 378.868 252.24 378.9L248.4 381.14C248.326 381.179 248.244 381.199 248.16 381.2V381.2ZM255.83 376.72C255.747 376.72 255.665 376.698 255.592 376.656C255.52 376.614 255.461 376.553 255.42 376.48C255.36 376.369 255.344 376.239 255.375 376.117C255.407 375.994 255.483 375.888 255.59 375.82L259.43 373.58C259.485 373.549 259.546 373.528 259.609 373.52C259.672 373.512 259.736 373.517 259.797 373.533C259.859 373.55 259.916 373.579 259.966 373.618C260.016 373.657 260.058 373.705 260.09 373.76C260.122 373.815 260.142 373.876 260.15 373.939C260.158 374.002 260.153 374.066 260.137 374.127C260.12 374.189 260.091 374.246 260.052 374.296C260.014 374.347 259.965 374.389 259.91 374.42L256.07 376.66C255.997 376.701 255.914 376.722 255.83 376.72V376.72ZM263.51 372.25C263.424 372.25 263.34 372.227 263.266 372.183C263.192 372.139 263.131 372.076 263.09 372C263.028 371.888 263.012 371.757 263.046 371.634C263.079 371.51 263.16 371.405 263.27 371.34L267.11 369.11C267.164 369.078 267.223 369.057 267.285 369.048C267.347 369.039 267.41 369.043 267.471 369.058C267.531 369.074 267.588 369.102 267.638 369.14C267.687 369.178 267.729 369.226 267.76 369.28C267.822 369.392 267.838 369.524 267.804 369.647C267.771 369.77 267.69 369.875 267.58 369.94L263.75 372.18C263.678 372.226 263.595 372.251 263.51 372.25V372.25ZM271.18 367.77C271.073 367.772 270.968 367.738 270.883 367.673C270.797 367.609 270.736 367.517 270.708 367.414C270.681 367.31 270.689 367.201 270.731 367.102C270.773 367.004 270.846 366.922 270.94 366.87L274.78 364.63C274.833 364.597 274.893 364.574 274.955 364.565C275.017 364.555 275.081 364.558 275.142 364.574C275.203 364.59 275.26 364.618 275.309 364.657C275.359 364.696 275.4 364.745 275.43 364.8C275.464 364.854 275.486 364.915 275.496 364.978C275.506 365.041 275.503 365.105 275.487 365.167C275.471 365.228 275.442 365.286 275.404 365.337C275.365 365.387 275.316 365.429 275.26 365.46L271.42 367.7C271.349 367.747 271.265 367.772 271.18 367.77V367.77ZM278.86 363.29C278.753 363.292 278.648 363.258 278.563 363.193C278.477 363.129 278.416 363.037 278.388 362.934C278.361 362.83 278.369 362.721 278.411 362.622C278.453 362.524 278.526 362.442 278.62 362.39L282.45 360.15C282.505 360.118 282.566 360.097 282.629 360.089C282.692 360.081 282.756 360.085 282.818 360.102C282.879 360.119 282.937 360.148 282.987 360.187C283.037 360.226 283.079 360.275 283.11 360.33C283.172 360.442 283.188 360.573 283.154 360.697C283.121 360.82 283.04 360.925 282.93 360.99L279.09 363.23C279.02 363.27 278.941 363.291 278.86 363.29V363.29ZM286.53 358.81C286.446 358.812 286.363 358.791 286.291 358.749C286.218 358.706 286.159 358.644 286.12 358.57C286.088 358.516 286.066 358.455 286.057 358.393C286.048 358.33 286.052 358.266 286.068 358.205C286.083 358.143 286.111 358.086 286.149 358.035C286.188 357.985 286.235 357.942 286.29 357.91L290.13 355.67C290.24 355.609 290.37 355.593 290.492 355.627C290.614 355.66 290.717 355.741 290.78 355.85C290.84 355.961 290.856 356.091 290.825 356.214C290.793 356.336 290.717 356.442 290.61 356.51L286.77 358.75C286.696 358.789 286.614 358.809 286.53 358.81V358.81Z" fill="#FFD600"/>
    <path d="M242.3 384.62C242.217 384.618 242.136 384.595 242.064 384.553C241.992 384.511 241.932 384.452 241.89 384.38C241.827 384.27 241.81 384.139 241.842 384.016C241.873 383.893 241.952 383.787 242.06 383.72L244.06 382.54C244.115 382.508 244.176 382.487 244.239 382.479C244.302 382.471 244.366 382.475 244.428 382.492C244.489 382.509 244.547 382.538 244.597 382.577C244.647 382.616 244.689 382.665 244.72 382.72C244.782 382.832 244.798 382.964 244.764 383.087C244.731 383.21 244.65 383.315 244.54 383.38L242.54 384.56C242.466 384.6 242.384 384.621 242.3 384.62Z" fill="#FFD600"/>
    <path d="M273.86 90.9304C272.433 91.6646 270.85 92.0476 269.245 92.0476C267.64 92.0476 266.058 91.6646 264.63 90.9304C262.09 89.4504 262.09 87.0404 264.63 85.5504C266.058 84.8161 267.64 84.4331 269.245 84.4331C270.85 84.4331 272.433 84.8161 273.86 85.5504C276.41 87.0404 276.41 89.4504 273.86 90.9304Z" fill="#455A64"/>
    <path d="M269.25 62.3299V40.6699L297.24 51.4999L269.25 62.3299Z" fill="#FFD600"/>
    <path d="M269.25 89.2101C268.985 89.2101 268.731 89.1048 268.543 88.9172C268.355 88.7297 268.25 88.4753 268.25 88.2101V36.4201C268.207 36.2711 268.198 36.114 268.226 35.9613C268.254 35.8085 268.317 35.6643 268.41 35.5401C268.503 35.4159 268.624 35.3151 268.763 35.2457C268.902 35.1763 269.055 35.1401 269.21 35.1401C269.365 35.1401 269.518 35.1763 269.657 35.2457C269.796 35.3151 269.917 35.4159 270.01 35.5401C270.103 35.6643 270.166 35.8085 270.194 35.9613C270.222 36.114 270.214 36.2711 270.17 36.4201V88.2401C270.163 88.4869 270.066 88.7224 269.896 88.9015C269.726 89.0805 269.496 89.1905 269.25 89.2101Z" fill="#263238"/>
    <path d="M286.111 131.49V130.445L288.221 126.957C288.401 126.651 288.552 126.383 288.673 126.152C288.797 125.919 288.89 125.707 288.954 125.516C289.018 125.323 289.05 125.136 289.05 124.955C289.05 124.754 289.01 124.604 288.931 124.505C288.852 124.403 288.744 124.353 288.607 124.355C288.47 124.354 288.314 124.404 288.14 124.505C287.959 124.611 287.801 124.745 287.666 124.909C287.53 125.072 287.426 125.255 287.353 125.456C287.28 125.657 287.243 125.867 287.243 126.086L286.053 126.778C286.053 126.329 286.141 125.888 286.316 125.455C286.492 125.023 286.738 124.624 287.055 124.259C287.371 123.894 287.736 123.592 288.149 123.352C288.574 123.105 288.943 122.977 289.258 122.968C289.575 122.956 289.821 123.052 289.996 123.256C290.172 123.459 290.26 123.759 290.26 124.154C290.26 124.413 290.215 124.695 290.127 124.998C290.04 125.301 289.884 125.672 289.66 126.11C289.437 126.546 289.121 127.097 288.714 127.762L287.848 129.247V129.294L290.338 127.846V129.032L286.111 131.49ZM293.571 127.303C293.073 127.59 292.645 127.697 292.286 127.625C291.929 127.551 291.654 127.304 291.461 126.882C291.27 126.46 291.175 125.873 291.177 125.121C291.177 124.373 291.272 123.68 291.464 123.042C291.657 122.403 291.932 121.842 292.289 121.36C292.648 120.875 293.075 120.488 293.571 120.199C294.067 119.911 294.494 119.801 294.851 119.87C295.21 119.939 295.486 120.18 295.679 120.595C295.872 121.007 295.968 121.588 295.966 122.337C295.966 123.089 295.869 123.789 295.676 124.434C295.485 125.079 295.211 125.646 294.854 126.135C294.497 126.624 294.069 127.013 293.571 127.303ZM293.571 126.1C293.911 125.903 294.182 125.548 294.385 125.035C294.588 124.522 294.688 123.87 294.686 123.081C294.686 122.561 294.64 122.155 294.547 121.862C294.456 121.569 294.327 121.384 294.159 121.308C293.993 121.23 293.797 121.257 293.571 121.388C293.234 121.584 292.963 121.937 292.761 122.446C292.558 122.954 292.456 123.599 292.454 124.379C292.454 124.906 292.499 125.319 292.59 125.619C292.683 125.916 292.813 126.104 292.981 126.183C293.149 126.259 293.346 126.232 293.571 126.1ZM299.136 124.011C298.831 124.186 298.536 124.298 298.253 124.347C297.971 124.394 297.718 124.353 297.494 124.222C297.27 124.091 297.092 123.848 296.961 123.493C296.832 123.138 296.767 122.646 296.767 122.019C296.769 121.441 296.826 120.894 296.938 120.375C297.052 119.854 297.214 119.373 297.424 118.934C297.637 118.493 297.891 118.104 298.186 117.767C298.481 117.428 298.812 117.152 299.179 116.939C299.575 116.709 299.924 116.595 300.227 116.597C300.53 116.598 300.773 116.696 300.957 116.893C301.142 117.089 301.254 117.365 301.293 117.72L300.056 118.438C300.008 118.228 299.907 118.099 299.752 118.052C299.598 118.006 299.407 118.049 299.179 118.181C298.793 118.406 298.5 118.771 298.299 119.276C298.1 119.78 297.999 120.367 297.995 121.037L298.035 121.013C298.124 120.758 298.244 120.516 298.394 120.285C298.547 120.052 298.72 119.841 298.913 119.653C299.108 119.461 299.313 119.302 299.529 119.177C299.881 118.973 300.193 118.887 300.467 118.919C300.742 118.95 300.958 119.085 301.116 119.326C301.274 119.567 301.353 119.901 301.353 120.33C301.353 120.794 301.26 121.262 301.073 121.733C300.887 122.202 300.628 122.636 300.294 123.036C299.962 123.432 299.576 123.757 299.136 124.011ZM299.13 122.875C299.323 122.763 299.496 122.609 299.648 122.413C299.801 122.218 299.92 122.003 300.007 121.769C300.094 121.536 300.137 121.305 300.137 121.077C300.137 120.85 300.094 120.67 300.007 120.54C299.922 120.409 299.804 120.333 299.654 120.313C299.503 120.294 299.332 120.34 299.138 120.452C298.994 120.536 298.86 120.646 298.736 120.78C298.614 120.913 298.507 121.063 298.415 121.228C298.324 121.393 298.253 121.564 298.2 121.741C298.148 121.917 298.122 122.087 298.122 122.252C298.122 122.473 298.166 122.65 298.253 122.783C298.341 122.914 298.461 122.991 298.612 123.013C298.764 123.033 298.937 122.988 299.13 122.875ZM304.567 120.91C304.069 121.197 303.641 121.304 303.282 121.232C302.925 121.158 302.65 120.911 302.457 120.489C302.266 120.067 302.171 119.48 302.173 118.728C302.173 117.98 302.268 117.287 302.459 116.649C302.653 116.01 302.928 115.449 303.285 114.967C303.644 114.482 304.071 114.095 304.567 113.806C305.063 113.518 305.49 113.408 305.847 113.477C306.206 113.546 306.482 113.787 306.675 114.202C306.868 114.614 306.964 115.195 306.962 115.944C306.962 116.697 306.865 117.396 306.672 118.042C306.481 118.686 306.207 119.253 305.85 119.742C305.493 120.231 305.065 120.62 304.567 120.91ZM304.567 119.707C304.907 119.51 305.178 119.155 305.381 118.642C305.584 118.129 305.684 117.477 305.682 116.688C305.682 116.168 305.636 115.762 305.543 115.469C305.452 115.176 305.323 114.991 305.155 114.915C304.989 114.837 304.793 114.864 304.567 114.995C304.23 115.192 303.959 115.544 303.757 116.053C303.554 116.561 303.452 117.206 303.45 117.986C303.45 118.513 303.495 118.926 303.586 119.226C303.678 119.523 303.809 119.711 303.977 119.79C304.145 119.866 304.341 119.839 304.567 119.707Z" fill="#F4F4F4"/>
    <path d="M340.221 201.43V200.385L342.331 196.897C342.511 196.591 342.661 196.323 342.783 196.092C342.907 195.859 343 195.647 343.064 195.456C343.128 195.263 343.159 195.076 343.159 194.895C343.159 194.694 343.12 194.544 343.041 194.445C342.962 194.343 342.853 194.293 342.716 194.295C342.579 194.294 342.424 194.344 342.25 194.445C342.069 194.551 341.911 194.685 341.775 194.849C341.64 195.012 341.536 195.194 341.463 195.396C341.389 195.597 341.353 195.807 341.353 196.026L340.163 196.717C340.163 196.269 340.251 195.828 340.426 195.395C340.602 194.963 340.848 194.564 341.165 194.199C341.481 193.834 341.846 193.532 342.259 193.292C342.684 193.045 343.053 192.917 343.368 192.908C343.684 192.896 343.931 192.992 344.106 193.196C344.282 193.399 344.37 193.699 344.37 194.094C344.37 194.353 344.325 194.634 344.237 194.938C344.15 195.241 343.994 195.612 343.77 196.05C343.546 196.486 343.231 197.037 342.824 197.702L341.958 199.187V199.234L344.448 197.786V198.972L340.221 201.43ZM347.681 197.243C347.183 197.53 346.755 197.637 346.396 197.565C346.039 197.491 345.764 197.243 345.571 196.822C345.379 196.4 345.285 195.813 345.287 195.061C345.287 194.313 345.382 193.62 345.573 192.982C345.766 192.343 346.042 191.782 346.399 191.3C346.758 190.815 347.185 190.428 347.681 190.139C348.177 189.851 348.604 189.741 348.961 189.81C349.32 189.878 349.596 190.12 349.789 190.535C349.982 190.947 350.078 191.528 350.076 192.277C350.076 193.029 349.979 193.729 349.786 194.374C349.595 195.019 349.321 195.586 348.964 196.075C348.607 196.564 348.179 196.953 347.681 197.243ZM347.681 196.04C348.021 195.843 348.292 195.488 348.495 194.974C348.698 194.461 348.798 193.81 348.796 193.021C348.796 192.501 348.75 192.095 348.657 191.802C348.566 191.509 348.437 191.324 348.269 191.248C348.103 191.17 347.907 191.197 347.681 191.328C347.343 191.524 347.073 191.877 346.871 192.385C346.668 192.894 346.566 193.539 346.564 194.319C346.564 194.846 346.609 195.259 346.7 195.559C346.792 195.856 346.923 196.044 347.091 196.122C347.259 196.199 347.455 196.172 347.681 196.04ZM353.135 194.015C352.726 194.253 352.361 194.378 352.041 194.39C351.722 194.401 351.47 194.308 351.282 194.111C351.095 193.914 350.998 193.62 350.99 193.229L352.206 192.522C352.22 192.78 352.316 192.939 352.496 193C352.675 193.061 352.888 193.02 353.135 192.876C353.332 192.762 353.506 192.61 353.657 192.422C353.809 192.231 353.928 192.02 354.013 191.79C354.1 191.556 354.143 191.321 354.143 191.084C354.143 190.843 354.099 190.657 354.01 190.526C353.923 190.393 353.802 190.32 353.648 190.307C353.494 190.294 353.317 190.345 353.118 190.458C352.944 190.559 352.775 190.698 352.611 190.876C352.449 191.053 352.323 191.24 352.232 191.435L351.117 191.852L351.398 188.072L355.023 185.964V187.15L352.432 188.657L352.278 190.464L352.313 190.444C352.417 190.213 352.575 189.981 352.785 189.747C352.995 189.513 353.231 189.321 353.492 189.169C353.849 188.961 354.167 188.873 354.447 188.905C354.727 188.936 354.948 189.075 355.11 189.32C355.272 189.563 355.352 189.905 355.35 190.346C355.352 190.807 355.26 191.271 355.072 191.74C354.887 192.205 354.628 192.637 354.294 193.037C353.962 193.433 353.576 193.759 353.135 194.015ZM358.55 190.924C358.052 191.211 357.623 191.318 357.264 191.246C356.907 191.172 356.632 190.925 356.439 190.503C356.248 190.081 356.153 189.494 356.155 188.742C356.155 187.994 356.251 187.301 356.442 186.663C356.635 186.024 356.91 185.463 357.267 184.981C357.626 184.496 358.054 184.109 358.55 183.82C359.046 183.532 359.472 183.422 359.83 183.491C360.189 183.56 360.465 183.801 360.658 184.216C360.851 184.628 360.946 185.209 360.944 185.958C360.944 186.711 360.848 187.41 360.655 188.056C360.464 188.7 360.19 189.267 359.832 189.756C359.475 190.245 359.048 190.634 358.55 190.924ZM358.55 189.721C358.89 189.524 359.161 189.169 359.363 188.656C359.566 188.143 359.666 187.491 359.665 186.702C359.665 186.182 359.618 185.776 359.526 185.483C359.435 185.19 359.305 185.005 359.138 184.929C358.972 184.851 358.776 184.878 358.55 185.009C358.212 185.206 357.942 185.558 357.739 186.067C357.536 186.575 357.434 187.22 357.432 188C357.432 188.527 357.478 188.94 357.568 189.24C357.661 189.537 357.791 189.725 357.959 189.804C358.127 189.88 358.324 189.853 358.55 189.721Z" fill="#F4F4F4"/>
    <path d="M339.811 259.618V258.573L341.921 257.54C342.101 257.443 342.251 257.35 342.373 257.26C342.497 257.171 342.59 257.068 342.654 256.951C342.718 256.832 342.749 256.682 342.749 256.501C342.749 256.3 342.71 256.104 342.631 255.913C342.552 255.719 342.444 255.544 342.307 255.386C342.169 255.226 342.014 255.095 341.84 254.994C341.659 254.889 341.501 254.839 341.366 254.845C341.23 254.852 341.126 254.913 341.053 255.029C340.979 255.145 340.943 255.312 340.943 255.531L339.753 254.839C339.753 254.39 339.841 254.052 340.016 253.823C340.192 253.595 340.438 253.482 340.755 253.486C341.071 253.489 341.436 253.61 341.849 253.851C342.274 254.097 342.643 254.399 342.958 254.757C343.275 255.112 343.521 255.494 343.696 255.902C343.872 256.31 343.96 256.712 343.96 257.107C343.96 257.366 343.915 257.596 343.827 257.797C343.74 257.999 343.584 258.188 343.36 258.366C343.137 258.542 342.821 258.726 342.414 258.918L341.548 259.396V259.443L344.038 260.89V262.076L339.811 259.618ZM347.271 264.107C346.773 263.815 346.345 263.424 345.986 262.934C345.629 262.445 345.354 261.877 345.161 261.232C344.97 260.587 344.875 259.89 344.877 259.141C344.877 258.393 344.972 257.811 345.163 257.395C345.357 256.981 345.632 256.74 345.989 256.673C346.348 256.604 346.775 256.715 347.271 257.003C347.767 257.291 348.194 257.678 348.551 258.162C348.91 258.648 349.186 259.21 349.379 259.85C349.572 260.486 349.668 261.178 349.666 261.925C349.666 262.678 349.569 263.265 349.376 263.686C349.185 264.108 348.911 264.357 348.554 264.43C348.197 264.504 347.769 264.396 347.271 264.107ZM347.271 262.904C347.611 263.102 347.882 263.062 348.085 262.784C348.288 262.507 348.388 261.973 348.386 261.181C348.386 260.661 348.34 260.201 348.247 259.801C348.156 259.402 348.027 259.067 347.859 258.795C347.693 258.524 347.497 258.323 347.271 258.192C346.934 257.996 346.663 258.034 346.461 258.307C346.258 258.58 346.156 259.105 346.154 259.883C346.154 260.41 346.199 260.876 346.29 261.282C346.382 261.686 346.513 262.026 346.681 262.3C346.849 262.571 347.045 262.773 347.271 262.904ZM350.47 264.61V263.468L352.945 260.396L353.797 260.891V262.471L353.293 262.179L351.732 264.128V264.182L355.25 266.227V267.389L350.47 264.61ZM353.316 267.47V265.916L353.339 265.424V260.625L354.515 261.308V268.167L353.316 267.47ZM358.41 270.583C357.912 270.291 357.484 269.9 357.125 269.41C356.768 268.921 356.493 268.354 356.3 267.708C356.109 267.063 356.014 266.366 356.016 265.617C356.016 264.869 356.112 264.287 356.303 263.871C356.496 263.457 356.771 263.216 357.128 263.149C357.487 263.081 357.914 263.191 358.41 263.479C358.907 263.768 359.333 264.154 359.69 264.639C360.049 265.124 360.325 265.687 360.518 266.326C360.711 266.963 360.807 267.655 360.805 268.401C360.805 269.154 360.708 269.741 360.515 270.162C360.324 270.585 360.05 270.833 359.693 270.907C359.336 270.98 358.908 270.872 358.41 270.583ZM358.41 269.38C358.75 269.578 359.021 269.538 359.224 269.261C359.427 268.983 359.527 268.449 359.525 267.657C359.525 267.137 359.479 266.677 359.386 266.277C359.295 265.878 359.166 265.543 358.998 265.271C358.832 265.001 358.636 264.8 358.41 264.668C358.073 264.472 357.802 264.51 357.6 264.783C357.397 265.056 357.295 265.581 357.293 266.36C357.293 266.886 357.338 267.353 357.429 267.758C357.522 268.163 357.652 268.502 357.82 268.776C357.988 269.048 358.185 269.249 358.41 269.38Z" fill="#F4F4F4"/>
    <path d="M293.563 334.286C293.065 333.994 292.637 333.603 292.278 333.113C291.921 332.624 291.646 332.057 291.453 331.411C291.262 330.766 291.167 330.069 291.169 329.32C291.169 328.572 291.264 327.99 291.456 327.574C291.649 327.16 291.924 326.919 292.281 326.852C292.64 326.784 293.067 326.894 293.563 327.182C294.059 327.471 294.486 327.857 294.843 328.342C295.202 328.827 295.478 329.39 295.671 330.029C295.864 330.666 295.96 331.358 295.958 332.104C295.958 332.857 295.861 333.444 295.668 333.865C295.477 334.288 295.203 334.536 294.846 334.61C294.489 334.683 294.061 334.575 293.563 334.286ZM293.563 333.083C293.903 333.281 294.174 333.241 294.377 332.964C294.58 332.686 294.68 332.152 294.678 331.36C294.678 330.84 294.632 330.38 294.539 329.98C294.448 329.581 294.319 329.246 294.151 328.974C293.985 328.703 293.789 328.502 293.563 328.371C293.226 328.175 292.955 328.213 292.753 328.486C292.55 328.759 292.448 329.284 292.446 330.062C292.446 330.589 292.491 331.056 292.582 331.461C292.675 331.866 292.805 332.205 292.973 332.479C293.141 332.751 293.338 332.952 293.563 333.083ZM299.044 337.415C298.611 337.164 298.226 336.854 297.888 336.485C297.552 336.116 297.287 335.723 297.092 335.306C296.899 334.888 296.8 334.477 296.794 334.074L298.056 334.808C298.064 334.98 298.111 335.155 298.198 335.333C298.287 335.509 298.405 335.675 298.551 335.829C298.698 335.984 298.863 336.114 299.046 336.221C299.238 336.332 299.406 336.391 299.553 336.398C299.7 336.406 299.815 336.364 299.898 336.274C299.981 336.184 300.022 336.048 300.022 335.867C300.022 335.684 299.978 335.497 299.889 335.304C299.802 335.111 299.677 334.926 299.513 334.751C299.351 334.576 299.157 334.423 298.934 334.293L298.381 333.972V332.907L298.934 333.228C299.123 333.338 299.29 333.397 299.434 333.406C299.581 333.415 299.695 333.376 299.776 333.289C299.857 333.2 299.898 333.065 299.898 332.885C299.898 332.713 299.862 332.541 299.791 332.37C299.721 332.198 299.623 332.038 299.495 331.89C299.37 331.744 299.223 331.622 299.055 331.524C298.885 331.425 298.73 331.371 298.589 331.36C298.448 331.347 298.335 331.381 298.25 331.461C298.165 331.541 298.12 331.667 298.114 331.838L296.913 331.139C296.918 330.747 297.016 330.455 297.205 330.264C297.394 330.073 297.649 329.985 297.969 330.002C298.292 330.017 298.656 330.143 299.061 330.379C299.47 330.616 299.828 330.911 300.135 331.261C300.442 331.611 300.68 331.982 300.85 332.373C301.022 332.763 301.107 333.139 301.105 333.499C301.107 333.885 301.004 334.145 300.795 334.28C300.589 334.417 300.319 334.424 299.987 334.3V334.353C300.424 334.672 300.756 335.04 300.983 335.458C301.213 335.875 301.327 336.297 301.325 336.722C301.327 337.114 301.23 337.404 301.033 337.594C300.838 337.784 300.568 337.866 300.225 337.841C299.881 337.815 299.488 337.673 299.044 337.415ZM304.551 340.674C304.053 340.382 303.625 339.991 303.266 339.501C302.909 339.012 302.634 338.445 302.441 337.799C302.249 337.154 302.155 336.458 302.157 335.708C302.157 334.96 302.252 334.379 302.443 333.963C302.636 333.548 302.912 333.307 303.269 333.24C303.628 333.172 304.055 333.282 304.551 333.571C305.047 333.859 305.474 334.245 305.831 334.73C306.19 335.215 306.466 335.778 306.659 336.417C306.852 337.054 306.948 337.746 306.946 338.493C306.946 339.245 306.849 339.832 306.656 340.253C306.465 340.676 306.191 340.924 305.834 340.998C305.477 341.072 305.049 340.964 304.551 340.674ZM304.551 339.472C304.891 339.669 305.162 339.629 305.365 339.352C305.568 339.075 305.668 338.54 305.666 337.749C305.666 337.228 305.62 336.768 305.527 336.368C305.436 335.97 305.307 335.634 305.139 335.362C304.973 335.092 304.777 334.891 304.551 334.759C304.213 334.563 303.943 334.601 303.741 334.874C303.538 335.147 303.436 335.673 303.434 336.451C303.434 336.978 303.479 337.444 303.57 337.849C303.662 338.254 303.793 338.593 303.961 338.867C304.129 339.139 304.325 339.34 304.551 339.472Z" fill="#F4F4F4"/>
    <path d="M239.654 406.956C239.155 406.664 238.727 406.273 238.368 405.783C238.011 405.294 237.736 404.727 237.543 404.081C237.352 403.436 237.257 402.739 237.259 401.99C237.259 401.242 237.355 400.66 237.546 400.244C237.739 399.83 238.014 399.589 238.371 399.522C238.73 399.454 239.157 399.564 239.654 399.852C240.15 400.141 240.576 400.527 240.933 401.012C241.292 401.497 241.568 402.059 241.761 402.699C241.954 403.336 242.05 404.027 242.048 404.774C242.048 405.527 241.951 406.114 241.758 406.535C241.567 406.958 241.293 407.206 240.936 407.279C240.579 407.353 240.152 407.245 239.654 406.956ZM239.654 405.753C239.993 405.951 240.264 405.911 240.467 405.634C240.67 405.356 240.77 404.822 240.768 404.03C240.768 403.51 240.722 403.05 240.629 402.65C240.539 402.251 240.409 401.916 240.241 401.644C240.075 401.373 239.879 401.172 239.654 401.041C239.316 400.845 239.045 400.883 238.843 401.156C238.64 401.429 238.538 401.954 238.536 402.732C238.536 403.259 238.581 403.726 238.672 404.131C238.765 404.535 238.895 404.875 239.063 405.149C239.231 405.421 239.428 405.622 239.654 405.753ZM242.942 408.717V407.672L245.053 406.638C245.232 406.542 245.383 406.449 245.504 406.358C245.628 406.27 245.721 406.167 245.785 406.05C245.849 405.93 245.881 405.78 245.881 405.599C245.881 405.398 245.841 405.202 245.762 405.011C245.683 404.818 245.575 404.642 245.438 404.484C245.301 404.324 245.145 404.194 244.972 404.093C244.79 403.987 244.632 403.938 244.497 403.944C244.362 403.95 244.257 404.011 244.184 404.127C244.111 404.243 244.074 404.41 244.074 404.629L242.884 403.937C242.884 403.489 242.972 403.15 243.147 402.922C243.323 402.693 243.569 402.581 243.886 402.584C244.202 402.587 244.567 402.709 244.98 402.949C245.405 403.196 245.775 403.498 246.089 403.855C246.406 404.211 246.652 404.593 246.827 405.001C247.003 405.409 247.091 405.811 247.091 406.206C247.091 406.465 247.047 406.695 246.958 406.895C246.871 407.097 246.716 407.287 246.492 407.465C246.268 407.641 245.952 407.824 245.545 408.016L244.679 408.494V408.541L247.169 409.989V411.175L242.942 408.717ZM250.403 413.205C249.905 412.913 249.476 412.522 249.117 412.032C248.76 411.543 248.485 410.976 248.292 410.33C248.101 409.685 248.006 408.989 248.008 408.239C248.008 407.491 248.104 406.91 248.295 406.494C248.488 406.079 248.763 405.838 249.12 405.771C249.479 405.703 249.906 405.813 250.403 406.102C250.899 406.39 251.325 406.776 251.682 407.261C252.041 407.747 252.317 408.309 252.51 408.948C252.703 409.585 252.799 410.277 252.797 411.024C252.797 411.776 252.7 412.363 252.507 412.784C252.316 413.207 252.042 413.455 251.685 413.529C251.328 413.603 250.901 413.495 250.403 413.205ZM250.403 412.003C250.742 412.2 251.013 412.16 251.216 411.883C251.419 411.606 251.519 411.071 251.517 410.28C251.517 409.759 251.471 409.299 251.378 408.899C251.288 408.501 251.158 408.165 250.99 407.893C250.824 407.623 250.628 407.422 250.403 407.291C250.065 407.094 249.794 407.132 249.592 407.405C249.389 407.678 249.287 408.204 249.285 408.982C249.285 409.509 249.33 409.975 249.421 410.381C249.514 410.785 249.644 411.124 249.812 411.398C249.98 411.67 250.177 411.871 250.403 412.003Z" fill="#F4F4F4"/>
    <path d="M221.61 255.29H209.91V274.15H221.61V255.29Z" fill="#FFA8A7"/>
    <path d="M228.6 250.97L231.38 254.97C231.501 255.142 231.556 255.351 231.536 255.561C231.516 255.77 231.421 255.965 231.27 256.11C230.574 256.87 229.625 257.35 228.6 257.46V250.97Z" fill="#F28F8F"/>
    <path d="M216.88 236.18C216.88 236.18 225.99 229.72 228.88 252.18C231.26 270.85 219.67 266.57 215.36 263.99C211.05 261.41 202.81 253.63 208.23 242.69C210.68 237.72 216.88 236.18 216.88 236.18Z" fill="#FFA8A7"/>
    <path d="M225.28 243.37C225.28 243.37 225.35 247.46 221.61 247.66C222.535 248.733 223.005 250.126 222.92 251.54C222.92 254.2 222.01 253.69 221.61 253.18C221.21 252.67 217.06 253.18 217.06 253.18L219.18 257.18C219.44 258.696 219.307 260.252 218.794 261.702C218.281 263.151 217.405 264.445 216.25 265.46C216.25 265.46 210.69 266.99 208.16 265.46C208.16 265.46 201.16 257.69 199.87 252.18C198.58 246.67 198.56 241.86 201.79 239.61C201.79 239.61 202.79 232.66 210.18 232.66C217.57 232.66 219.74 234.56 223.73 233.66C225.35 233.3 227.78 232.13 227.78 233.76C227.78 235.39 225.78 236.76 225.78 236.76C225.78 236.76 227.78 236.65 228.86 236.55C229.94 236.45 232.35 236.09 231.94 239.21C231.53 242.33 228.74 243.91 225.28 243.37Z" fill="#263238"/>
    <path d="M202.77 239.86C202.77 239.86 200.83 235.94 198.41 238.2C198.391 238.217 198.376 238.238 198.365 238.261C198.355 238.284 198.349 238.309 198.349 238.335C198.349 238.361 198.355 238.386 198.365 238.409C198.376 238.432 198.391 238.453 198.41 238.47L202.74 241.08L202.77 239.86Z" fill="#263238"/>
    <path d="M221.61 253.21V259.28C221.61 259.28 215.33 259.16 215.33 254.51C215.33 250.23 220.38 251.19 221.61 253.21Z" fill="#FFA8A7"/>
    <path d="M175.72 410.74C175.72 410.74 175.43 418.81 186.63 422.12C186.63 422.12 188.3 410.74 175.72 410.74Z" fill="#253239"/>
    <path d="M184.45 428.9V424.04C184.449 423.014 184.683 422.001 185.134 421.079C185.584 420.157 186.24 419.35 187.05 418.72C187.05 418.72 185.39 411.63 178.67 412.05C176.498 412.888 174.627 414.358 173.3 416.27C172.811 416.923 172.469 417.674 172.297 418.471C172.124 419.268 172.125 420.093 172.3 420.89V420.89C172.256 420.71 172.262 420.521 172.319 420.345C172.376 420.168 172.481 420.011 172.622 419.891C172.763 419.77 172.935 419.692 173.118 419.663C173.302 419.635 173.489 419.658 173.66 419.73L175.28 420.4C176.29 420.815 177.184 421.471 177.881 422.311C178.578 423.152 179.059 424.151 179.28 425.22L181.28 434.67C181.447 435.549 181.88 436.355 182.52 436.979C183.161 437.604 183.977 438.016 184.86 438.16H185C185.183 438.17 185.367 438.17 185.55 438.16H185.7C185.881 438.153 186.061 438.137 186.24 438.11H186.39C186.575 438.08 186.759 438.04 186.94 437.99H187.06C187.284 437.926 187.501 437.842 187.71 437.74C187.936 437.638 188.153 437.517 188.36 437.38L190.06 436.27C190.307 436.11 190.508 435.889 190.643 435.627C190.778 435.366 190.843 435.074 190.83 434.78C190.7 432.86 189.85 428.9 184.45 428.9Z" fill="#37474F"/>
    <path d="M190 436.25L188.3 437.36C188.093 437.497 187.876 437.618 187.65 437.72C187.441 437.822 187.224 437.906 187 437.97H186.88C186.699 438.02 186.515 438.06 186.33 438.09H186.18H185.97H185.64H185.29H184.94H184.83C183.963 437.948 183.16 437.547 182.524 436.941C181.889 436.334 181.452 435.549 181.27 434.69C181.275 434.66 181.275 434.63 181.27 434.6L179.27 425.15C179.049 424.081 178.568 423.082 177.871 422.241C177.174 421.401 176.28 420.745 175.27 420.33L173.65 419.66C172.94 419.34 172.48 419.89 172.19 420.17C171.922 420.407 171.729 420.716 171.633 421.06C171.537 421.404 171.543 421.769 171.65 422.11L173.65 430.9C174.097 432.908 175.286 434.673 176.98 435.84L181.25 438.77C181.945 439.212 182.73 439.496 183.547 439.602C184.365 439.707 185.195 439.631 185.98 439.38H186H186.1C186.402 439.274 186.696 439.147 186.98 439V439L188.81 438C189.204 437.786 189.546 437.486 189.809 437.123C190.072 436.759 190.25 436.341 190.33 435.9C190.242 436.036 190.13 436.154 190 436.25V436.25Z" fill="#263238"/>
    <path d="M177.28 412.69C177.28 412.69 184.96 413.43 184.93 421.55L189.7 414.1L181.87 405.92L177.28 412.69Z" fill="#FFA8A7"/>
    <path d="M194.36 318.69V331.63C194.36 336.783 194.593 341.923 195.06 347.05L196.63 364.37C196.831 366.482 196.566 368.613 195.854 370.612C195.143 372.611 194.001 374.43 192.51 375.94C190.127 378.382 188.143 381.182 186.63 384.24C181.88 393.59 175.72 410.73 175.72 410.73C175.72 410.73 186.63 410.73 186.63 422.11L211.48 380.63C213.24 377.69 214.345 374.406 214.72 371L220 323.59L194.36 318.69Z" fill="#455A64"/>
    <path d="M249.06 393.3C249.52 394.129 250.241 394.782 251.11 395.16H251.21C253.017 395.96 255.064 396.029 256.92 395.35L272.74 389.6C273.86 389.11 273.88 387.44 273.81 386.75H249.06V393.3Z" fill="#263238"/>
    <path d="M250 383.93C250 383.93 247.77 386.25 248.59 390.64C248.724 391.333 249.024 391.982 249.465 392.533C249.906 393.083 250.474 393.518 251.12 393.8L251.22 393.85C253.028 394.648 255.075 394.712 256.93 394.03L272.75 388.28C273.136 388.131 273.452 387.844 273.637 387.474C273.822 387.104 273.863 386.678 273.75 386.28C273.02 383.71 270.44 381.12 264.46 382.69C262.949 383.186 261.391 383.521 259.81 383.69L259 382.37L250 383.93Z" fill="#37474F"/>
    <path d="M259.81 383.64C258.98 385.86 255.81 386.64 252.15 385.41C251.315 385.125 250.536 384.695 249.85 384.14V384.14V375.37H259.85L259.81 383.64Z" fill="#FFA8A7"/>
    <path d="M205.68 322V323.48C205.667 327.948 207.131 332.294 209.844 335.844C212.557 339.394 216.366 341.948 220.68 343.11L246.16 349.85C246.522 349.945 246.842 350.158 247.07 350.455C247.298 350.752 247.421 351.116 247.42 351.49V381.91C247.42 381.91 259.72 388.09 263.28 378.51V345.65C263.29 342.97 262.491 340.35 260.989 338.131C259.487 335.912 257.351 334.197 254.86 333.21L228.41 322.83L205.68 322Z" fill="#455A64"/>
    <path d="M216.82 351.98L217.82 341.92C217.82 341.92 209.62 339.17 208.36 335.4C207.94 339.31 213.43 342.89 214.81 343.69C215.32 346.72 216.82 351.98 216.82 351.98Z" fill="#37474F"/>
    <path d="M207.74 273.74C207.74 273.74 207.97 268.91 209.63 268.91C210.96 268.91 217.7 270.82 220.3 271.58C221.01 271.773 221.62 272.227 222.01 272.85C223.05 274.359 223.661 276.122 223.78 277.95L207.74 273.74Z" fill="#37474F"/>
    <path d="M237.52 290.31C237.52 290.31 245.05 282.65 246.11 283.31C247.41 284.13 245.84 287.08 244.65 288.31L250.56 284.45C250.744 284.33 250.951 284.248 251.168 284.212C251.385 284.175 251.607 284.184 251.82 284.237C252.033 284.291 252.233 284.388 252.407 284.523C252.581 284.658 252.725 284.827 252.83 285.02C254.48 288.02 256.26 295.02 240.47 299.66L237.52 290.31Z" fill="#FFA8A7"/>
    <path d="M242.7 300.57C242.7 300.57 238.78 302.37 233.7 304.57C225.18 308.29 213.39 313.2 211.23 312.85C205.565 311.939 199.971 310.629 194.49 308.93L195.58 293.77L211.9 298.57L236.36 288.98L237.36 288.58C244.26 291.12 242.7 300.57 242.7 300.57Z" fill="#263238"/>
    <path d="M205.7 271.23L199.61 269.56C198.622 269.293 197.586 269.258 196.583 269.459C195.579 269.659 194.636 270.089 193.826 270.714C193.016 271.34 192.362 272.145 191.915 273.065C191.469 273.986 191.241 274.997 191.25 276.02V278.19C191.245 281.005 191.896 283.783 193.153 286.302C194.41 288.821 196.237 291.012 198.49 292.7L205.58 298L205.7 271.23Z" fill="#37474F"/>
    <path d="M231.78 313.02L236.55 334.48C236.55 334.48 223.34 341.11 209.03 336.93C194.72 332.75 193.03 329.16 193.03 329.16L194.49 308.95L195.58 293.79L196.86 276.12C196.916 275.26 197.16 274.422 197.574 273.666C197.988 272.91 198.562 272.253 199.257 271.742C199.951 271.232 200.749 270.879 201.595 270.709C202.44 270.54 203.312 270.557 204.15 270.76L224.21 275.76C227.758 276.67 230.902 278.738 233.142 281.636C235.383 284.534 236.593 288.097 236.58 291.76L233.7 304.61L231.78 313.02Z" fill="#263238"/>
    <path d="M241.33 338.47C241.33 338.47 249.2 345.61 248.7 346.76C248.2 347.91 244.95 346.68 243.7 345.56L247.83 351.31C247.96 351.49 248.051 351.694 248.099 351.91C248.147 352.126 248.15 352.35 248.107 352.568C248.065 352.785 247.979 352.992 247.854 353.174C247.729 353.357 247.567 353.512 247.38 353.63C244.52 355.46 237.67 357.63 232.26 341.94L241.33 338.47Z" fill="#FFA8A7"/>
    <path d="M227.26 276.86C227.26 276.86 219.97 290.86 217.64 313.11C217.27 316.62 231.47 344.24 231.47 344.24C231.47 344.24 240.89 345.31 243.02 338.24L231.78 313.05L236.49 292.71C236.912 290.931 236.878 289.073 236.39 287.31C235.42 283.82 233 278.52 227.26 276.86Z" fill="#37474F"/>
    <path d="M375.67 100.54L385.76 106.34V102.73C385.76 102.47 385.76 102.22 385.76 101.96C385.76 101.7 385.76 101.47 385.76 101.24V101.15C386.13 96.3699 389.71 94.5299 394.09 97.0899C396.085 98.317 397.791 99.9613 399.09 101.91C400.09 95.4099 405.32 93.0699 411.66 96.7699C418.71 100.88 424.42 110.87 424.42 119.09V126.83C424.427 127.435 424.589 128.028 424.89 128.554C425.191 129.079 425.621 129.518 426.14 129.83L432.08 133.35C433.372 134.119 434.442 135.212 435.183 136.52C435.925 137.828 436.313 139.306 436.31 140.81C436.317 141.432 436.158 142.045 435.851 142.586C435.544 143.127 435.099 143.576 434.561 143.889C434.024 144.202 433.413 144.367 432.791 144.367C432.169 144.368 431.558 144.203 431.02 143.89L375.85 111.69C374.38 110.826 373.162 109.592 372.316 108.112C371.47 106.631 371.027 104.955 371.03 103.25C371.033 102.707 371.177 102.175 371.448 101.705C371.719 101.235 372.108 100.844 372.576 100.57C373.045 100.297 373.577 100.15 374.119 100.145C374.662 100.139 375.196 100.276 375.67 100.54V100.54Z" fill="#E6E6E6"/>
    <path d="M368.47 53.5001L375 57.2501V54.9201C375 54.7501 375 54.5901 375 54.4301C375 54.2701 375 54.1101 375 53.9501C375.24 50.8601 377.55 49.6801 380.38 51.3301C381.65 52.1057 382.74 53.1419 383.58 54.3701C384.22 50.1701 387.58 48.6601 391.7 51.0501C396.25 53.7001 399.94 60.1601 399.94 65.4701V70.4701C399.934 70.8715 400.033 71.2676 400.227 71.6186C400.422 71.9696 400.706 72.2633 401.05 72.4701L404.89 74.7401C405.724 75.2378 406.414 75.9439 406.893 76.7889C407.371 77.6339 407.622 78.5889 407.62 79.5601C407.625 79.9625 407.522 80.3589 407.324 80.7091C407.126 81.0592 406.839 81.3507 406.491 81.5538C406.144 81.7569 405.749 81.8645 405.346 81.8656C404.944 81.8667 404.549 81.7613 404.2 81.5601L368.57 60.7601C367.623 60.2027 366.838 59.4076 366.292 58.4534C365.747 57.4993 365.46 56.4192 365.46 55.3201C365.443 54.9602 365.523 54.6023 365.693 54.2843C365.862 53.9663 366.115 53.7 366.423 53.5135C366.731 53.3271 367.084 53.2274 367.445 53.2251C367.805 53.2227 368.159 53.3177 368.47 53.5001V53.5001Z" fill="#E6E6E6"/>
</svg>