<svg viewBox="0 0 285 465" fill="none"
    xmlns="http://www.w3.org/2000/svg">
    <mask id="mask0_253_3199" style="mask-type:alpha" maskUnits="userSpaceOnUse" x="0" y="0" width="285" height="465">
        <path d="M0 25C0 11.1929 11.1929 0 25 0H260C273.807 0 285 11.1929 285 25V440C285 453.807 273.807 465 260 465H25C11.1929 465 0 453.807 0 440V25Z" fill="black"/>
    </mask>
    <g mask="url(#mask0_253_3199)">
        <mask id="mask1_253_3199" style="mask-type:alpha" maskUnits="userSpaceOnUse" x="0" y="0" width="285" height="465">
            <rect width="285" height="465" fill="black"/>
        </mask>
        <g mask="url(#mask1_253_3199)">
            <rect opacity="0.02" width="285" height="465" fill="#262626"/>
            <g opacity="0.06">
                <path d="M0 0L285 465" stroke="#262626"/>
                <path d="M11.1328 -18.1641L296.133 446.836" stroke="#262626"/>
                <path d="M22.2656 -36.3281L307.266 428.672" stroke="#262626"/>
                <path d="M33.3984 -54.4922L318.398 410.508" stroke="#262626"/>
                <path d="M44.5312 -72.6562L329.531 392.344" stroke="#262626"/>
                <path d="M55.6641 -90.8203L340.664 374.18" stroke="#262626"/>
                <path d="M66.7969 -108.984L351.797 356.016" stroke="#262626"/>
                <path d="M77.9297 -127.148L362.93 337.852" stroke="#262626"/>
                <path d="M89.0625 -145.312L374.062 319.688" stroke="#262626"/>
                <path d="M100.195 -163.477L385.195 301.523" stroke="#262626"/>
                <path d="M111.328 -181.641L396.328 283.359" stroke="#262626"/>
                <path d="M122.461 -199.805L407.461 265.195" stroke="#262626"/>
                <path d="M133.594 -217.969L418.594 247.031" stroke="#262626"/>
                <path d="M-11.1328 18.1641L273.867 483.164" stroke="#262626"/>
                <path d="M-22.2656 36.3282L262.734 501.328" stroke="#262626"/>
                <path d="M-33.3984 54.4923L251.602 519.492" stroke="#262626"/>
                <path d="M-44.5312 72.6562L240.469 537.656" stroke="#262626"/>
                <path d="M-55.6641 90.8203L229.336 555.82" stroke="#262626"/>
                <path d="M-66.7969 108.984L218.203 573.984" stroke="#262626"/>
                <path d="M-77.9297 127.148L207.07 592.149" stroke="#262626"/>
                <path d="M-89.0625 145.312L195.938 610.313" stroke="#262626"/>
                <path d="M-100.195 163.477L184.805 628.477" stroke="#262626"/>
                <path d="M-111.328 181.641L173.672 646.641" stroke="#262626"/>
                <path d="M-122.461 199.805L162.539 664.805" stroke="#262626"/>
                <path d="M-133.594 217.969L151.406 682.969" stroke="#262626"/>
                <path d="M-144.727 236.133L140.273 701.133" stroke="#262626"/>
            </g>
            <g opacity="0.06">
                <path d="M5.56641 -9.08203L290.566 455.918" stroke="#262626"/>
                <path d="M16.6992 -27.2461L301.699 437.754" stroke="#262626"/>
                <path d="M27.832 -45.4102L312.832 419.59" stroke="#262626"/>
                <path d="M38.9648 -63.5742L323.965 401.426" stroke="#262626"/>
                <path d="M50.0977 -81.7383L335.098 383.262" stroke="#262626"/>
                <path d="M61.2305 -99.9023L346.23 365.098" stroke="#262626"/>
                <path d="M72.3633 -118.066L357.363 346.934" stroke="#262626"/>
                <path d="M83.4961 -136.23L368.496 328.77" stroke="#262626"/>
                <path d="M94.6289 -154.395L379.629 310.605" stroke="#262626"/>
                <path d="M105.762 -172.559L390.762 292.441" stroke="#262626"/>
                <path d="M116.895 -190.723L401.895 274.277" stroke="#262626"/>
                <path d="M128.027 -208.887L413.027 256.113" stroke="#262626"/>
                <path d="M139.16 -227.051L424.16 237.949" stroke="#262626"/>
                <path d="M-5.56641 9.08203L279.434 474.082" stroke="#262626"/>
                <path d="M-16.6992 27.2461L268.301 492.246" stroke="#262626"/>
                <path d="M-27.832 45.4102L257.168 510.41" stroke="#262626"/>
                <path d="M-38.9648 63.5742L246.035 528.574" stroke="#262626"/>
                <path d="M-50.0977 81.7383L234.902 546.738" stroke="#262626"/>
                <path d="M-61.2305 99.9023L223.77 564.902" stroke="#262626"/>
                <path d="M-72.3633 118.066L212.637 583.067" stroke="#262626"/>
                <path d="M-83.4961 136.23L201.504 601.231" stroke="#262626"/>
                <path d="M-94.6289 154.395L190.371 619.395" stroke="#262626"/>
                <path d="M-105.762 172.559L179.238 637.558" stroke="#262626"/>
                <path d="M-116.895 190.723L168.105 655.723" stroke="#262626"/>
                <path d="M-128.027 208.887L156.973 673.887" stroke="#262626"/>
                <path d="M-139.16 227.051L145.84 692.051" stroke="#262626"/>
            </g>
        </g>
        <g opacity="0.5">
            <path d="M154.667 218H131.333C129.492 218 128 219.492 128 221.333V244.667C128 246.508 129.492 248 131.333 248H154.667C156.508 248 158 246.508 158 244.667V221.333C158 219.492 156.508 218 154.667 218Z" stroke="#262626" stroke-width="1.5" stroke-linecap="round" stroke-linejoin="round"/>
            <path d="M137.167 229.667C138.547 229.667 139.667 228.547 139.667 227.167C139.667 225.786 138.547 224.667 137.167 224.667C135.786 224.667 134.667 225.786 134.667 227.167C134.667 228.547 135.786 229.667 137.167 229.667Z" stroke="#262626" stroke-width="1.5" stroke-linecap="round" stroke-linejoin="round"/>
            <path d="M158 238L149.667 229.667L131.333 248" stroke="#262626" stroke-width="1.5" stroke-linecap="round" stroke-linejoin="round"/>
        </g>
    </g>
</svg>