<svg width="376" height="375" viewBox="0 0 376 375" fill="none"
    xmlns="http://www.w3.org/2000/svg">
    <path d="M66.3275 320.25C134 360.15 243.68 360.15 311.337 320.25C378.995 280.35 378.995 215.588 311.337 175.665C243.68 135.743 133.985 135.735 66.3275 175.665C-1.33002 215.595 -1.33002 280.29 66.3275 320.25Z" fill="#F5F5F5"/>
    <path d="M303.163 286.65C318.696 286.65 331.288 279.38 331.288 270.413C331.288 261.445 318.696 254.175 303.163 254.175C287.63 254.175 275.038 261.445 275.038 270.413C275.038 279.38 287.63 286.65 303.163 286.65Z" fill="#E0E0E0"/>
    <path d="M219.118 323.28C238.176 323.28 253.625 314.362 253.625 303.36C253.625 292.359 238.176 283.44 219.118 283.44C200.06 283.44 184.61 292.359 184.61 303.36C184.61 314.362 200.06 323.28 219.118 323.28Z" fill="#E0E0E0"/>
    <path d="M311.323 253.095C311.323 253.095 312.178 245.55 315.928 239.692C319.678 233.835 324.845 230.175 329.66 229.8C334.475 229.425 338.36 233.842 333.208 236.887C328.055 239.932 318.905 243 314.698 254.4L311.323 253.095Z" fill="#4674F2"/>
    <path opacity="0.1" d="M311.323 253.095C311.323 253.095 312.178 245.55 315.928 239.692C319.678 233.835 324.845 230.175 329.66 229.8C334.475 229.425 338.36 233.842 333.208 236.887C328.055 239.932 318.905 243 314.698 254.4L311.323 253.095Z" fill="black"/>
    <path d="M312.732 251.137H312.68C312.648 251.125 312.619 251.106 312.594 251.083C312.57 251.059 312.55 251.03 312.537 250.999C312.524 250.967 312.517 250.934 312.517 250.899C312.517 250.865 312.524 250.831 312.537 250.8C317.615 238.29 327.282 233.07 331.692 232.05C331.758 232.034 331.827 232.045 331.885 232.08C331.943 232.115 331.984 232.172 332 232.237C332.014 232.305 332.001 232.375 331.965 232.434C331.929 232.492 331.871 232.535 331.805 232.552C327.492 233.542 318.012 238.672 313.017 250.987C312.992 251.04 312.951 251.083 312.9 251.11C312.848 251.137 312.79 251.146 312.732 251.137Z" fill="white"/>
    <path d="M312.965 265.29C312.934 265.283 312.905 265.27 312.879 265.251C312.853 265.232 312.832 265.209 312.815 265.181C312.799 265.154 312.789 265.123 312.785 265.092C312.781 265.06 312.784 265.028 312.793 264.997C316.708 250.297 332.195 248.175 335.818 248.437C335.881 248.443 335.939 248.473 335.981 248.52C336.023 248.568 336.045 248.629 336.043 248.692C336.041 248.725 336.032 248.756 336.018 248.785C336.004 248.814 335.984 248.84 335.959 248.861C335.935 248.882 335.906 248.898 335.875 248.907C335.845 248.917 335.812 248.921 335.78 248.917C332.24 248.662 317.09 250.74 313.28 265.125C313.272 265.157 313.257 265.188 313.236 265.214C313.215 265.24 313.189 265.262 313.159 265.277C313.13 265.293 313.097 265.302 313.063 265.304C313.03 265.306 312.997 265.301 312.965 265.29Z" fill="white"/>
    <path d="M330.17 257.843C330.122 257.834 330.077 257.81 330.043 257.775C328.614 256.532 326.929 255.618 325.108 255.1C323.287 254.581 321.374 254.471 319.505 254.775C319.473 254.78 319.441 254.779 319.41 254.772C319.379 254.765 319.349 254.751 319.324 254.732C319.298 254.713 319.276 254.69 319.259 254.662C319.243 254.635 319.232 254.604 319.227 254.573C319.219 254.508 319.236 254.443 319.275 254.391C319.315 254.339 319.373 254.304 319.437 254.295C321.379 253.974 323.368 254.087 325.261 254.625C327.154 255.163 328.905 256.113 330.387 257.408C330.432 257.452 330.457 257.513 330.457 257.576C330.457 257.639 330.432 257.7 330.387 257.745C330.363 257.779 330.33 257.806 330.292 257.823C330.254 257.84 330.212 257.847 330.17 257.843Z" fill="white"/>
    <path d="M55.0025 227.587C52.306 229.976 49.029 231.613 45.5 232.335C39.4325 233.67 36.5525 230.902 36.5525 230.902C36.5525 230.902 38.6225 225.007 42.005 223.192C38.2901 224.259 34.7829 225.948 31.6325 228.187C31.6325 228.187 27.8825 228.465 26.06 222.847C26.06 222.847 28.0775 219.277 35.405 216.975C35.405 216.975 30.8075 216.105 24.3875 218.16C23.9075 218.385 21.3875 211.125 20.555 207.757C19.7225 204.39 21.0875 204.337 23.705 203.475C26.3225 202.612 35.33 201.622 37.085 202.98C38.84 204.337 39.9725 209.287 39.9725 209.287C39.9725 209.287 41.3975 206.362 40.865 203.865C42.6856 203.224 44.6583 203.153 46.52 203.662C49.565 204.525 49.4675 205.987 49.595 208.162C49.7345 210.348 49.5627 212.543 49.085 214.68C49.085 214.68 51.0425 212.775 50.72 206.197C51.67 206.598 52.5292 207.186 53.2458 207.927C53.9625 208.669 54.5218 209.547 54.89 210.51C56.405 214.717 57.1625 221.752 55.0025 227.587Z" fill="#455A64"/>
    <path d="M55.0175 227.933C54.953 227.937 54.8886 227.923 54.8316 227.893C54.7745 227.862 54.7272 227.816 54.695 227.76C49.1375 217.778 30.0425 206.94 23.3825 206.048C23.3381 206.042 23.2951 206.028 23.2562 206.005C23.2174 205.983 23.1833 205.953 23.1561 205.918C23.1288 205.882 23.109 205.841 23.0976 205.798C23.0863 205.755 23.0837 205.709 23.09 205.665C23.1013 205.575 23.1478 205.492 23.2195 205.436C23.2911 205.38 23.3821 205.354 23.4725 205.365C30.2225 206.265 49.655 217.283 55.3025 227.423C55.3456 227.502 55.3556 227.596 55.3303 227.683C55.3051 227.77 55.2466 227.843 55.1675 227.888C55.1231 227.917 55.0709 227.933 55.0175 227.933Z" fill="white"/>
    <path d="M44.2624 117.277V168.795C44.4746 170.193 45.2291 171.452 46.3624 172.297L63.3874 182.107V189.667L39.7999 176.085C38.6736 175.234 37.9231 173.978 37.7074 172.582V113.497L44.2624 117.277Z" fill="#E6E6E6"/>
    <path d="M29.255 98.8575L35.81 95.1075C38.945 93.3 42.77 93.4425 46.31 95.49L63.3875 105.3V120.75L44.2625 109.71V117.27L37.7075 113.52V172.605C37.9232 174 38.6737 175.256 39.8 176.108L63.3875 189.69V197.55L39.755 183.938C37.1286 182.356 34.9404 180.141 33.3905 177.496C31.8405 174.851 30.9783 171.859 30.8825 168.795V104.363C30.8558 102.548 31.2485 100.751 32.03 99.1125L29.255 98.8575Z" fill="#F5F5F5"/>
    <path d="M29.2549 98.8575C30.3794 98.2026 31.6289 97.7913 32.9224 97.65C35.3154 97.4327 37.715 97.9873 39.7699 99.2325L63.3874 112.867V128.325L44.2624 117.277L37.7074 113.527V172.612C37.9231 174.008 38.6737 175.264 39.7999 176.115L63.3874 189.697V205.14L33.1924 187.717C30.5675 186.136 28.3804 183.923 26.8306 181.279C25.2808 178.635 24.4176 175.645 24.3199 172.582V108.157C24.3199 104.047 26.1199 100.665 29.2549 98.8575Z" fill="#F0F0F0"/>
    <path d="M28.8125 146.948C29.197 146.948 29.566 146.795 29.8386 146.524C30.1113 146.253 30.2655 145.885 30.2675 145.5V108.96C30.2674 108.289 30.4443 107.629 30.7803 107.048C31.1164 106.467 31.5998 105.985 32.1816 105.65C32.7635 105.316 33.4233 105.14 34.0946 105.142C34.7658 105.144 35.4248 105.322 36.005 105.66C36.3371 105.859 36.7347 105.918 37.1103 105.824C37.4858 105.729 37.8085 105.49 38.0075 105.158C38.2064 104.825 38.2652 104.428 38.1709 104.052C38.0767 103.677 37.8371 103.354 37.505 103.155C36.482 102.566 35.3225 102.256 34.1422 102.255C32.9618 102.254 31.8019 102.563 30.7781 103.15C29.7543 103.738 28.9024 104.583 28.3075 105.603C27.7125 106.622 27.3953 107.78 27.3875 108.96V145.5C27.3893 145.879 27.5394 146.243 27.8056 146.514C28.0718 146.784 28.4331 146.94 28.8125 146.948Z" fill="#FAFAFA"/>
    <path d="M40.6174 108.158C41.4376 108.158 42.1024 107.493 42.1024 106.672C42.1024 105.852 41.4376 105.188 40.6174 105.188C39.7973 105.188 39.1324 105.852 39.1324 106.672C39.1324 107.493 39.7973 108.158 40.6174 108.158Z" fill="#FAFAFA"/>
    <path d="M183.327 72.51V225.15C183.327 234.608 177.08 244.065 164.577 251.28C139.587 265.71 99.0649 265.71 74.0674 251.28C61.5724 244.065 55.3174 234.608 55.3174 225.15V72.51H183.327Z" fill="#E0E0E0"/>
    <path d="M62.105 89.0775C65.5461 92.9094 69.6016 96.1411 74.105 98.64C99.1025 113.07 139.625 113.07 164.622 98.64C169.112 96.1377 173.155 92.9061 176.585 89.0775C188.585 75.2325 184.64 57.93 164.622 46.3875C139.625 31.95 99.1025 31.95 74.105 46.3875C54.05 57.93 50.0675 75.2325 62.105 89.0775Z" fill="#EBEBEB"/>
    <path d="M62.1125 92.715C62.24 85.455 67.67 78.36 77.4575 72.705C88.535 66.315 103.4 62.79 119.322 62.79C135.245 62.79 150.117 66.315 161.187 72.705C170.982 78.36 176.412 85.455 176.532 92.715V208.26C176.532 214.635 171.08 220.875 161.172 225.84C150.102 231.383 135.23 234.443 119.307 234.443C103.385 234.443 88.52 231.383 77.4425 225.84C67.5425 220.875 62.09 214.635 62.09 208.26V92.715H62.1125Z" fill="#4674F2"/>
    <path opacity="0.1" d="M62.1125 92.715C62.24 85.455 67.67 78.36 77.4575 72.705C88.535 66.315 103.4 62.79 119.322 62.79C135.245 62.79 150.117 66.315 161.187 72.705C170.982 78.36 176.412 85.455 176.532 92.715V208.26C176.532 214.635 171.08 220.875 161.172 225.84C150.102 231.383 135.23 234.443 119.307 234.443C103.385 234.443 88.52 231.383 77.4425 225.84C67.5425 220.875 62.09 214.635 62.09 208.26V92.715H62.1125Z" fill="black"/>
    <path d="M62.105 217.59V226.897C62.105 233.272 67.5575 239.512 77.4575 244.47C83.5239 247.423 89.9511 249.569 96.575 250.852C104.063 252.364 111.684 253.118 119.322 253.102C135.245 253.102 150.117 250.05 161.195 244.5C166.145 242.017 169.977 239.25 172.587 236.25C175.197 233.25 176.547 230.122 176.547 226.935V217.59C176.547 220.777 175.182 222 172.587 224.97C169.992 227.94 166.145 230.745 161.195 233.22C150.117 238.77 135.245 241.822 119.322 241.822C111.684 241.838 104.063 241.084 96.575 239.572C89.9548 238.305 83.5281 236.179 77.4575 233.25C67.5575 228.27 62.105 223.957 62.105 217.59Z" fill="#EBEBEB"/>
    <path d="M62.105 72.51C62.1864 76.2136 63.4417 79.7957 65.69 82.74C68.285 79.1175 72.2525 75.7125 77.4575 72.705C88.535 66.315 103.4 62.79 119.322 62.79C135.245 62.79 150.117 66.315 161.195 72.705C166.392 75.705 170.367 79.1175 172.962 82.74C175.211 79.7957 176.466 76.2136 176.547 72.51C176.547 65.1675 171.095 57.9675 161.195 52.26C150.117 45.87 135.245 42.3525 119.322 42.3525C103.4 42.3525 88.535 45.87 77.4575 52.26C67.5575 57.9675 62.105 65.1675 62.105 72.51Z" fill="#E0E0E0"/>
    <path d="M62.1125 84.54C62.1656 82.5167 62.6007 80.5217 63.395 78.66C63.1078 78.1497 62.9267 77.5866 62.8628 77.0045C62.7988 76.4224 62.8533 75.8334 63.0228 75.2729C63.1924 74.7125 63.4735 74.192 63.8494 73.743C64.2253 73.294 64.6881 72.9256 65.21 72.66C64.3034 71.3007 63.9099 69.6634 64.0996 68.0406C64.2893 66.4178 65.0499 64.9153 66.2455 63.8018C67.4411 62.6882 68.9938 62.0361 70.6259 61.9621C72.2581 61.888 73.8634 62.3968 75.155 63.3975C75.1235 63.1963 75.1034 62.9935 75.095 62.79C75.0924 61.9628 75.3237 61.1516 75.7623 60.4502C76.2009 59.7487 76.8288 59.1856 77.5737 58.8257C78.3186 58.4658 79.15 58.3238 79.9721 58.4162C80.7942 58.5085 81.5735 58.8314 82.22 59.3475C81.8066 57.4141 82.0555 55.3979 82.9265 53.623C83.7975 51.8481 85.24 50.4177 87.0222 49.5616C88.8043 48.7056 90.8226 48.4737 92.7524 48.9033C94.6823 49.3329 96.4116 50.3989 97.6625 51.93C98.0948 50.7066 98.8644 49.6305 99.8823 48.8259C100.9 48.0213 102.125 47.5211 103.415 47.383C104.706 47.245 106.008 47.4748 107.174 48.0458C108.339 48.6168 109.319 49.5058 110 50.61C110.951 48.9774 112.314 47.6228 113.953 46.6813C115.591 45.7398 117.448 45.2443 119.337 45.2443C121.227 45.2443 123.084 45.7398 124.722 46.6813C126.361 47.6228 127.723 48.9774 128.675 50.61C129.358 49.5101 130.337 48.6251 131.5 48.057C132.664 47.4889 133.964 47.2606 135.251 47.3985C136.538 47.5364 137.76 48.0349 138.777 48.8365C139.794 49.6381 140.563 50.7104 140.997 51.93C142.249 50.4031 143.978 49.3409 145.906 48.9138C147.834 48.4867 149.849 48.7194 151.629 49.5747C153.409 50.43 154.85 51.8583 155.721 53.6305C156.592 55.4026 156.842 57.4159 156.432 59.3475C157.079 58.8314 157.858 58.5085 158.68 58.4162C159.502 58.3238 160.334 58.4658 161.079 58.8257C161.824 59.1856 162.452 59.7487 162.89 60.4502C163.329 61.1516 163.56 61.9628 163.557 62.79C163.553 62.9937 163.533 63.1968 163.497 63.3975C164.79 62.4128 166.39 61.9167 168.013 61.9968C169.636 62.0769 171.179 62.7281 172.369 63.8353C173.559 64.9425 174.319 66.4346 174.515 68.0479C174.712 69.6613 174.332 71.2922 173.442 72.6525C174.159 73.02 174.76 73.5776 175.181 74.2642C175.602 74.9507 175.825 75.7398 175.827 76.545C175.822 77.2815 175.628 78.0043 175.265 78.645C176.065 80.5103 176.503 82.511 176.555 84.54V89.04C173.125 92.8686 169.082 96.1002 164.592 98.6025C139.595 113.033 99.0725 113.033 74.075 98.6025C69.5716 96.1036 65.5161 92.8719 62.075 89.04V84.54H62.1125Z" fill="#FAFAFA"/>
    <path d="M62.105 89.0775V98.0775C62.105 104.438 67.5575 110.685 77.4575 115.65C83.5252 118.6 89.952 120.746 96.575 122.033C104.063 123.544 111.684 124.298 119.322 124.283C135.245 124.283 150.117 121.23 161.195 115.68C166.145 113.198 169.977 110.43 172.587 107.43C175.197 104.43 176.547 101.303 176.547 98.115V89.115C173.118 92.9436 169.075 96.1752 164.585 98.6775C139.587 113.108 99.065 113.108 74.0675 98.6775C69.5747 96.1639 65.5319 92.9195 62.105 89.0775Z" fill="#F5F5F5"/>
    <path d="M62.105 72.51V89.0775C65.5461 92.9094 69.6016 96.1411 74.105 98.64C99.1025 113.07 139.625 113.07 164.622 98.64C169.112 96.1377 173.155 92.9061 176.585 89.0775V72.51C176.585 79.86 171.132 87.0525 161.232 92.76C150.155 99.1575 135.282 102.675 119.36 102.675C103.437 102.675 88.5725 99.1575 77.495 92.76C67.5575 87.0525 62.105 79.86 62.105 72.51Z" fill="#EBEBEB"/>
    <path opacity="0.1" d="M105.92 138.075V217.388C105.933 218.708 106.432 219.978 107.321 220.955C108.211 221.931 109.429 222.546 110.742 222.683C113.555 222.885 116.42 222.983 119.322 222.983C122.225 222.983 125.082 222.885 127.895 222.683C129.209 222.546 130.426 221.931 131.316 220.955C132.205 219.978 132.704 218.708 132.717 217.388V138.075C132.726 137.458 132.604 136.847 132.359 136.281C132.114 135.715 131.751 135.207 131.295 134.792C130.84 134.376 130.301 134.063 129.715 133.871C129.128 133.679 128.508 133.614 127.895 133.68C125.082 133.883 122.217 133.988 119.322 133.988C116.427 133.988 113.555 133.883 110.742 133.68C110.129 133.614 109.509 133.679 108.923 133.871C108.336 134.063 107.798 134.376 107.342 134.792C106.886 135.207 106.523 135.715 106.278 136.281C106.033 136.847 105.911 137.458 105.92 138.075Z" fill="black"/>
    <path opacity="0.1" d="M73.8424 128.25V207.555C73.8424 210.225 75.7099 213.51 78.1174 214.68C82.2516 216.676 86.566 218.276 91.0024 219.458C93.5824 220.155 95.7124 218.415 95.7124 215.708V136.418C95.6478 135.055 95.158 133.748 94.3118 132.678C93.4657 131.609 92.3057 130.831 90.9949 130.455C86.5597 129.274 82.2476 127.672 78.1174 125.67C75.7174 124.5 73.8424 125.565 73.8424 128.25Z" fill="black"/>
    <path opacity="0.1" d="M164.795 128.25V207.555C164.795 210.225 162.927 213.51 160.527 214.68C156.393 216.675 152.078 218.275 147.642 219.458C145.055 220.155 142.932 218.415 142.932 215.708V136.418C142.997 135.056 143.485 133.749 144.33 132.68C145.175 131.611 146.333 130.833 147.642 130.455C152.078 129.277 156.391 127.674 160.52 125.67C162.927 124.5 164.795 125.565 164.795 128.25Z" fill="black"/>
    <path opacity="0.3" d="M70.3925 104.595C70.3925 104.595 62.9525 100.095 59.1425 92.9625V224.033C59.1425 224.033 62.9975 231.99 70.3925 235.335V104.595Z" fill="white"/>
    <path d="M126.912 84.495C126.58 83.651 126.05 82.8989 125.367 82.3015C124.684 81.7041 123.868 81.2789 122.987 81.0612C122.107 80.8436 121.187 80.8399 120.304 81.0505C119.422 81.2611 118.602 81.6799 117.915 82.2717C117.227 82.8636 116.691 83.6115 116.352 84.4528C116.012 85.2942 115.879 86.2045 115.963 87.1079C116.047 88.0112 116.347 88.8813 116.836 89.6454C117.325 90.4095 117.99 91.0454 118.775 91.5C118.357 90.4036 118.287 89.2048 118.575 88.0673C118.864 86.9297 119.496 85.909 120.386 85.1443C121.277 84.3796 122.381 83.9084 123.549 83.7949C124.717 83.6813 125.892 83.9311 126.912 84.51V84.495Z" fill="#F0F0F0"/>
    <path d="M133.467 85.8375C133.68 85.2841 133.757 84.6878 133.692 84.0985C133.626 83.5093 133.42 82.9443 133.091 82.4511C132.762 81.9579 132.32 81.5509 131.801 81.2643C131.282 80.9777 130.702 80.8197 130.109 80.8038C129.516 80.7879 128.928 80.9145 128.395 81.1728C127.861 81.4312 127.397 81.8139 127.042 82.2887C126.687 82.7635 126.451 83.3166 126.354 83.9015C126.257 84.4864 126.302 85.086 126.485 85.65C126.729 85.0125 127.145 84.455 127.687 84.039C128.228 83.6229 128.874 83.3646 129.553 83.2924C130.232 83.2203 130.917 83.3371 131.534 83.6301C132.151 83.923 132.674 84.3806 133.047 84.9525C133.225 85.2282 133.366 85.5257 133.467 85.8375Z" fill="#F0F0F0"/>
    <path d="M150.65 71.565C151.116 70.7796 151.387 69.8934 151.438 68.9813C151.489 68.0693 151.32 67.1583 150.945 66.3255C150.569 65.4928 149.998 64.7627 149.281 64.1973C148.564 63.6318 147.721 63.2475 146.823 63.077C145.926 62.9065 145 62.9548 144.126 63.2177C143.251 63.4807 142.452 63.9505 141.797 64.5876C141.143 65.2246 140.651 66.01 140.364 66.8773C140.078 67.7446 140.004 68.6683 140.15 69.57C140.749 68.57 141.64 67.7779 142.703 67.3008C143.767 66.8236 144.951 66.6844 146.096 66.902C147.241 67.1196 148.292 67.6834 149.106 68.5174C149.921 69.3513 150.46 70.4151 150.65 71.565Z" fill="#F0F0F0"/>
    <path d="M141.56 66.6525C141.808 66.1137 141.924 65.5231 141.897 64.9303C141.87 64.3375 141.7 63.76 141.403 63.2462C141.107 62.7325 140.691 62.2976 140.191 61.9781C139.691 61.6586 139.121 61.4639 138.53 61.4103C137.939 61.3568 137.344 61.4459 136.795 61.6703C136.245 61.8948 135.758 62.2478 135.373 62.6998C134.989 63.1518 134.719 63.6896 134.585 64.2678C134.452 64.846 134.46 65.4478 134.607 66.0225C134.891 65.402 135.341 64.872 135.907 64.4911C136.473 64.1103 137.133 63.8936 137.815 63.8649C138.496 63.8361 139.173 63.9966 139.769 64.3284C140.365 64.6602 140.858 65.1505 141.192 65.745C141.354 66.0301 141.478 66.3352 141.56 66.6525Z" fill="#F0F0F0"/>
    <path d="M99.8 67.785C99.8573 66.8779 99.6962 65.9704 99.3304 65.1383C98.9645 64.3063 98.4045 63.5742 97.6973 63.0033C96.9901 62.4323 96.1564 62.0393 95.2659 61.8571C94.3755 61.6749 93.4543 61.7089 92.5797 61.9561C91.7051 62.2034 90.9025 62.6567 90.2393 63.2781C89.576 63.8996 89.0715 64.671 88.7678 65.5277C88.4642 66.3843 88.3705 67.3013 88.4944 68.2017C88.6183 69.1021 88.9563 69.9597 89.48 70.7025C89.5512 69.5076 90.0033 68.3669 90.77 67.4475C91.3281 66.7814 92.0312 66.2517 92.8255 65.899C93.6198 65.5462 94.4842 65.3798 95.3526 65.4123C96.2211 65.4449 97.0706 65.6756 97.8362 66.0869C98.6018 66.4981 99.2633 67.079 99.77 67.785H99.8Z" fill="#F0F0F0"/>
    <path d="M105.95 70.5C106.015 69.9125 105.939 69.3179 105.727 68.766C105.515 68.2142 105.174 67.7211 104.732 67.3283C104.291 66.9354 103.761 66.6542 103.188 66.5082C102.616 66.3622 102.016 66.3556 101.44 66.4891C100.864 66.6226 100.329 66.8922 99.8787 67.2753C99.4285 67.6585 99.0768 68.1439 98.8529 68.6911C98.6291 69.2382 98.5397 69.831 98.5923 70.4198C98.6448 71.0086 98.8378 71.5762 99.1549 72.075C99.2363 71.2998 99.565 70.5714 100.092 69.9975C100.475 69.5765 100.949 69.2493 101.479 69.0415C102.008 68.8337 102.579 68.7509 103.146 68.7996C103.712 68.8482 104.26 69.0269 104.747 69.3219C105.233 69.6168 105.645 70.02 105.95 70.5Z" fill="#F0F0F0"/>
    <path d="M89.9 76.7025C90.4317 76.4404 90.8928 76.0544 91.2445 75.5771C91.5962 75.0998 91.8283 74.5451 91.9211 73.9595C92.0139 73.374 91.9649 72.7747 91.7781 72.212C91.5913 71.6493 91.2722 71.1397 90.8476 70.7259C90.423 70.3121 89.9053 70.0063 89.338 69.8341C88.7707 69.6618 88.1703 69.6283 87.5873 69.7362C87.0044 69.8442 86.4558 70.0904 85.9877 70.4543C85.5197 70.8182 85.1458 71.2891 84.8975 71.8275C85.5932 71.4809 86.3815 71.3653 87.1475 71.4975C88.1101 71.6678 88.9661 72.2123 89.5283 73.012C90.0905 73.8118 90.3131 74.8016 90.1475 75.765C90.1079 76.0873 90.0246 76.4027 89.9 76.7025Z" fill="#F0F0F0"/>
    <path d="M213.245 47.535C209.6 47.175 204.672 53.25 208.25 56.1825C210.23 57.8025 214.55 57.105 214.505 54.0675C214.494 53.9844 214.456 53.907 214.398 53.8464C214.341 53.7858 214.265 53.7451 214.182 53.73C211.317 53.07 208.482 54.3 208.932 57.645C209.198 59.0665 209.934 60.3573 211.023 61.3096C212.111 62.2619 213.488 62.8203 214.932 62.895C215.105 62.895 215.045 62.595 214.932 62.565C212.442 62.04 210.087 60.4875 209.6 57.8175C209.489 57.3459 209.478 56.8561 209.57 56.3804C209.662 55.9046 209.854 55.4538 210.132 55.0575C210.473 54.6458 210.926 54.3432 211.437 54.1875C211.865 54.0525 213.402 53.8125 213.74 54.1875C214.415 54.8925 212.585 56.0625 212.045 56.25C211.506 56.4457 210.93 56.519 210.359 56.4645C209.789 56.41 209.237 56.2292 208.745 55.935C207.245 54.885 207.605 52.8825 208.34 51.435C209.33 49.5225 211.062 47.97 213.29 47.895C213.492 47.895 213.387 47.5125 213.23 47.4975L213.245 47.535Z" fill="#4674F2"/>
    <path d="M244.775 82.6425C245.923 80.0625 245.803 77.3925 249.14 76.5375C250.64 76.1625 254.075 75.7875 255.178 77.13C255.373 77.4441 255.451 77.8169 255.399 78.183C255.347 78.5492 255.168 78.8853 254.893 79.1325C254.023 79.8825 253.393 78.9825 253.145 78.1575C252.965 77.3942 253.029 76.5936 253.328 75.8685C253.626 75.1433 254.145 74.5301 254.81 74.115C256.21 73.1934 257.904 72.8293 259.558 73.0944C261.213 73.3596 262.708 74.2347 263.75 75.5475C263.87 75.705 264.005 75.5475 263.945 75.375C261.388 69.4875 249.103 73.5825 253.048 79.23C254.24 80.94 256.348 79.4325 255.95 77.625C255.508 75.6225 252.088 75.72 250.588 75.8175C249.053 75.8196 247.573 76.3886 246.433 77.415C245.098 78.735 244.933 80.805 244.633 82.5675C244.633 82.65 244.708 82.7625 244.76 82.6425H244.775Z" fill="#4674F2"/>
    <path d="M305.533 33.8474C307.925 33.1499 311.218 33.3449 313.228 34.9649C314.773 36.2024 315.658 38.9099 313.37 39.8399C312.478 40.1999 309.523 40.2074 309.17 38.9774C308.923 38.1299 309.83 37.6274 310.565 37.5149C312.71 37.1849 314.72 39.4424 314.675 41.4674C314.6 44.4674 311.068 45.5024 308.57 45.5324C308.405 45.5324 308.45 45.8399 308.57 45.8549C312.815 46.2599 317.57 42.3224 313.783 38.3549C312.763 37.2899 311.173 36.5399 309.71 37.1249C308.878 37.4549 308.21 38.2049 308.638 39.1049C309.298 40.5449 311.975 40.7924 313.265 40.4249C313.609 40.3347 313.93 40.1747 314.21 39.9547C314.489 39.7347 314.72 39.4596 314.888 39.1464C315.056 38.8333 315.158 38.4889 315.187 38.1346C315.216 37.7804 315.172 37.4239 315.058 37.0874C314.015 33.2474 308.645 32.4524 305.458 33.6074C305.368 33.6074 305.398 33.8624 305.51 33.8249L305.533 33.8474Z" fill="#4674F2"/>
    <path d="M333.343 152.295C335.735 151.597 339.027 151.792 341.037 153.405C342.582 154.65 343.467 157.357 341.18 158.287C340.28 158.647 337.325 158.647 336.973 157.425C336.725 156.577 337.64 156.075 338.367 155.925C340.52 155.587 342.523 157.852 342.478 159.877C342.403 162.877 338.87 163.912 336.372 163.935C336.207 163.935 336.252 164.25 336.372 164.257C340.625 164.67 345.372 160.732 341.622 156.757C340.602 155.692 339.013 154.935 337.543 155.52C336.718 155.85 336.043 156.6 336.478 157.507C337.138 158.947 339.808 159.195 341.105 158.827C341.448 158.736 341.769 158.576 342.048 158.355C342.326 158.135 342.557 157.86 342.725 157.547C342.893 157.234 342.995 156.89 343.025 156.537C343.054 156.183 343.011 155.826 342.898 155.49C341.847 151.65 336.478 150.847 333.29 152.002C333.2 152.04 333.237 152.257 333.35 152.227L333.343 152.295Z" fill="#4674F2"/>
    <path d="M327.702 71.3925C324.845 72.24 322.19 77.2575 324.845 79.5525C327.095 81.495 331.655 81.0525 330.905 77.3475C330.896 77.3058 330.877 77.2669 330.849 77.2342C330.822 77.2015 330.787 77.1761 330.747 77.16C327.747 76.4475 326.765 79.9425 327.387 82.2525C328.37 85.8375 331.985 85.7925 334.595 83.9175C334.685 83.8575 334.64 83.61 334.52 83.67C332.382 84.735 329.39 85.6875 328.085 82.92C327.387 81.42 327.335 79.05 328.707 77.925C329.056 77.595 329.518 77.4123 329.997 77.415C330.995 77.535 330.822 78.615 330.26 79.2975C329.367 80.3925 327.56 80.2725 326.36 79.8525C322.25 78.3975 325.077 73.1025 327.755 71.6025C327.837 71.5575 327.815 71.3475 327.702 71.385V71.3925Z" fill="#4674F2"/>
    <path d="M345.575 96.84C350.435 97.23 349.565 106.455 345.635 107.7C345.393 107.791 345.135 107.831 344.877 107.818C344.619 107.805 344.367 107.739 344.135 107.625C343.842 107.412 343.607 107.128 343.453 106.801C343.298 106.473 343.228 106.112 343.25 105.75C343.715 104.16 346.333 106.162 346.678 106.785C347.186 107.594 347.424 108.544 347.357 109.498C347.289 110.451 346.92 111.358 346.303 112.087C344.3 114.285 340.483 114.337 337.985 113.107C337.85 113.04 337.828 113.28 337.918 113.34C340.61 115.065 345.118 114.84 347.113 112.087C348.71 109.897 347.608 104.107 344.113 104.587C340.865 105.067 343.108 108.765 345.568 108.277C348.028 107.79 348.913 104.527 349.153 102.502C349.445 99.96 348.688 96.5025 345.538 96.5775C345.433 96.5775 345.448 96.8025 345.538 96.81L345.575 96.84Z" fill="#4674F2"/>
    <path d="M209.322 108.367C205.955 107.94 198.71 110.782 200.592 115.365C201.597 117.817 206.09 119.392 207.567 116.58C207.598 116.502 207.599 116.415 207.568 116.337C207.537 116.259 207.478 116.196 207.402 116.16C200.382 112.192 192.987 123.66 200.442 127.897C200.675 128.032 200.667 127.635 200.525 127.53C199.881 127.09 199.331 126.525 198.908 125.869C198.485 125.213 198.197 124.48 198.061 123.711C197.926 122.943 197.945 122.155 198.118 121.394C198.292 120.633 198.615 119.914 199.07 119.28C199.827 118.066 200.908 117.087 202.19 116.452C203.157 116.002 205.565 115.365 206.457 116.302C206.87 116.737 206.855 116.19 206.645 116.7C206.517 117.007 206.09 117.187 205.79 117.3C205.033 117.534 204.22 117.508 203.48 117.225C201.905 116.677 200.69 115.245 201.102 113.512C201.927 110.062 206.352 108.802 209.405 108.78C209.622 108.78 209.487 108.382 209.322 108.36V108.367Z" fill="#4674F2"/>
    <path d="M267.328 44.25C267.328 44.25 267.118 48 269.923 50.115L272.863 49.2225C272.863 49.2225 270.898 48.285 269.923 44.25H267.328Z" fill="#455A64"/>
    <path d="M216.5 122.25C216.5 122.25 216.29 126 219.087 128.123L222.027 127.23C222.027 127.23 220.062 126.293 219.087 122.25H216.5Z" fill="#455A64"/>
    <path d="M258.598 95.295C258.598 95.295 258.388 99.045 261.193 101.16L264.133 100.267C264.133 100.267 262.168 99.33 261.193 95.295H258.598Z" fill="#37474F"/>
    <path d="M336.56 51.8025C336.56 51.8025 334.85 55.17 331.378 55.5525L329.278 53.3025C329.278 53.3025 331.453 53.4675 334.318 50.4675L336.56 51.8025Z" fill="#455A64"/>
    <path d="M350.412 133.215C350.412 133.215 348.702 136.583 345.23 136.965L343.13 134.715C343.13 134.715 345.305 134.888 348.17 131.88L350.412 133.215Z" fill="#455A64"/>
    <path d="M274.25 120.952C274.25 120.952 272.54 124.327 269.06 124.702L266.968 122.452C266.968 122.452 269.135 122.625 272 119.617L274.25 120.952Z" fill="#4674F2"/>
    <path d="M197.053 30.555C197.053 30.555 195.343 33.9225 191.87 34.305L189.77 32.055C189.77 32.055 191.945 32.22 194.81 29.22L197.053 30.555Z" fill="#455A64"/>
    <path d="M308.525 62.655C308.525 62.655 304.775 63.12 302.488 60.465L303.178 57.465C303.178 57.465 304.25 59.3625 308.345 60.06L308.525 62.655Z" fill="#4674F2"/>
    <path d="M252.5 51.5475C252.5 51.5475 248.75 52.02 246.462 49.365L247.152 46.365C247.152 46.365 248.225 48.2625 252.32 48.9525L252.5 51.5475Z" fill="#4674F2"/>
    <path d="M245.368 94.3125C245.368 94.3125 241.618 94.7775 239.33 92.1225L240.02 89.1225C240.02 89.1225 241.093 91.0125 245.188 91.71L245.368 94.3125Z" fill="#4674F2"/>
    <path d="M301.782 104.317C301.782 104.317 298.032 104.782 295.782 102.135L296.465 99.1349C296.465 99.1349 297.545 101.025 301.632 101.722L301.782 104.317Z" fill="#4674F2"/>
    <path d="M351.238 85.17C351.238 85.17 347.488 85.635 345.238 82.98L345.928 79.98C345.928 79.98 347 81.8775 351.095 82.575L351.238 85.17Z" fill="#4674F2"/>
    <path d="M314.458 84.84C314.458 84.84 312.748 88.2075 309.268 88.59L307.175 86.34C307.175 86.34 309.74 86.73 312.605 83.73L314.458 84.84Z" fill="#455A64"/>
    <path d="M318.23 89.8124C318.23 89.8124 317.563 93.5624 314.353 94.9199L311.698 93.3749C313.574 92.5268 315.133 91.1064 316.153 89.3174L318.23 89.8124Z" fill="#37474F"/>
    <path d="M200.413 73.1625C200.413 73.1625 198.703 76.53 195.223 76.9125L193.13 74.6625C193.13 74.6625 195.695 75.0525 198.56 72.0525L200.413 73.1625Z" fill="#455A64"/>
    <path d="M204.185 78.135C204.185 78.135 203.518 81.885 200.308 83.25L197.653 81.6975C199.529 80.8524 201.087 79.431 202.1 77.64L204.185 78.135Z" fill="#37474F"/>
    <path d="M289.79 148.597C288.08 151.297 282.92 159.727 280.85 163.972L280.422 163.777C280.422 163.777 266.562 159.615 266.262 158.452C265.827 156.787 265.46 155.857 265.22 154.747C265.062 154.065 265.137 152.595 264.155 153.42C263.292 154.17 263.21 155.752 263.285 156.367C262.5 155.87 261.773 155.286 261.117 154.627C260.3 153.877 259.572 161.31 260.442 161.902C261.738 162.764 263.111 163.503 264.545 164.107C266.48 164.94 281.69 173.782 283.73 172.537C285.732 171.72 292.287 160.717 296.36 153.51L299.6 144.75C296.172 144.705 292.422 144.442 289.79 148.597Z" fill="#B16668"/>
    <path d="M261.32 156.36V161.422C261.299 161.559 261.226 161.682 261.118 161.768L259.445 162.75V163.5L261.763 162.165C261.87 162.078 261.941 161.956 261.965 161.82V156L261.32 156.36Z" fill="#E6E6E6"/>
    <path d="M262.798 154.545L262.153 154.177C261.993 154.09 261.812 154.047 261.63 154.054C261.448 154.06 261.271 154.116 261.118 154.215L259.445 155.182V156.682L261.32 155.602V156.352L261.965 155.977V161.79C261.941 161.926 261.87 162.048 261.763 162.135L259.445 163.5V164.25L261.763 162.907C262.025 162.753 262.243 162.534 262.396 162.271C262.55 162.009 262.634 161.712 262.64 161.407V155.077C262.64 154.899 262.602 154.722 262.528 154.56L262.798 154.545Z" fill="#F5F5F5"/>
    <path d="M262.798 154.545C262.687 154.482 262.564 154.443 262.438 154.432C262.202 154.407 261.965 154.459 261.763 154.582L259.445 155.925V157.425L261.32 156.337L261.965 155.962V161.775C261.941 161.911 261.87 162.033 261.763 162.12L259.445 163.5V165L262.408 163.29C262.669 163.134 262.886 162.915 263.039 162.653C263.193 162.391 263.277 162.094 263.285 161.79V155.452C263.292 155.272 263.25 155.092 263.164 154.933C263.079 154.773 262.952 154.639 262.798 154.545Z" fill="#F0F0F0"/>
    <path d="M262.842 159.278C262.805 159.278 262.768 159.263 262.742 159.236C262.715 159.209 262.7 159.173 262.7 159.135V155.543C262.699 155.476 262.682 155.411 262.649 155.353C262.616 155.295 262.569 155.247 262.512 155.213C262.455 155.177 262.389 155.159 262.321 155.159C262.254 155.159 262.188 155.177 262.13 155.213C262.097 155.23 262.058 155.234 262.022 155.224C261.986 155.214 261.955 155.191 261.935 155.16C261.926 155.144 261.919 155.126 261.917 155.107C261.915 155.089 261.916 155.07 261.921 155.052C261.926 155.034 261.934 155.017 261.945 155.002C261.957 154.987 261.971 154.974 261.987 154.965C262.089 154.906 262.204 154.876 262.321 154.876C262.438 154.876 262.553 154.906 262.655 154.965C262.756 155.024 262.839 155.108 262.897 155.21C262.955 155.311 262.985 155.426 262.985 155.543V159.135C262.983 159.172 262.968 159.207 262.941 159.234C262.915 159.26 262.88 159.276 262.842 159.278Z" fill="#FAFAFA"/>
    <path d="M261.823 155.317C261.824 155.336 261.821 155.355 261.814 155.373C261.807 155.391 261.797 155.407 261.783 155.421C261.77 155.434 261.754 155.445 261.736 155.451C261.718 155.458 261.699 155.461 261.68 155.46C261.661 155.461 261.641 155.458 261.623 155.451C261.605 155.445 261.588 155.434 261.574 155.421C261.56 155.408 261.549 155.392 261.542 155.374C261.534 155.356 261.53 155.337 261.53 155.317C261.53 155.278 261.546 155.24 261.574 155.211C261.602 155.183 261.64 155.167 261.68 155.167C261.699 155.167 261.719 155.171 261.736 155.179C261.754 155.187 261.77 155.198 261.784 155.212C261.797 155.226 261.807 155.242 261.814 155.261C261.821 155.279 261.824 155.298 261.823 155.317Z" fill="#FAFAFA"/>
    <path d="M263.285 157.417C263.905 157.945 264.346 158.653 264.545 159.442C264.995 160.897 265.115 162.84 263.915 163.537C262.715 164.235 263.285 157.417 263.285 157.417Z" fill="#9A4A4D"/>
    <path d="M261.26 156.36C261.988 156.556 262.661 156.918 263.225 157.417C264.53 158.917 264.875 163.785 263.225 163.905C262.535 163.957 261.193 163.95 260.173 162.037V157.042L261.26 156.36Z" fill="#B16668"/>
    <path d="M247.655 151.957V166.957C247.655 167.887 248.263 168.817 249.493 169.522C250.872 170.222 252.397 170.586 253.944 170.586C255.49 170.586 257.015 170.222 258.395 169.522C259.618 168.817 260.233 167.887 260.233 166.957V151.957H247.655Z" fill="#E0E0E0"/>
    <path d="M259.565 153.585C259.229 153.962 258.834 154.281 258.395 154.53C257.014 155.223 255.489 155.582 253.944 155.577C252.399 155.571 250.876 155.203 249.5 154.5C249.06 154.249 248.663 153.93 248.322 153.555C247.145 152.198 247.535 150.495 249.5 149.362C250.879 148.66 252.404 148.294 253.951 148.294C255.498 148.294 257.024 148.66 258.402 149.362C260.36 150.525 260.75 152.25 259.565 153.585Z" fill="#EBEBEB"/>
    <path d="M259.565 153.945C259.505 153.516 259.335 153.11 259.072 152.766C258.81 152.422 258.463 152.151 258.065 151.98C256.786 151.335 255.373 150.999 253.94 150.999C252.507 150.999 251.094 151.335 249.815 151.98C249.416 152.15 249.069 152.42 248.806 152.765C248.543 153.109 248.374 153.516 248.315 153.945V165.3C248.315 165.93 248.855 166.545 249.815 167.032C251.105 167.616 252.509 167.903 253.925 167.872C255.343 167.904 256.75 167.617 258.042 167.032C259.017 166.545 259.542 165.93 259.542 165.3V153.945H259.565Z" fill="#4674F2"/>
    <path d="M259.565 166.223V167.138C259.565 167.76 259.032 168.375 258.065 168.863C257.469 169.15 256.839 169.361 256.19 169.493C255.449 169.64 254.695 169.713 253.94 169.71C252.524 169.742 251.118 169.452 249.83 168.863C249.409 168.663 249.027 168.389 248.705 168.053C248.468 167.805 248.329 167.48 248.315 167.138V166.223C248.315 166.53 248.45 166.65 248.705 166.973C249.025 167.311 249.407 167.586 249.83 167.783C251.118 168.372 252.524 168.662 253.94 168.63C254.695 168.633 255.449 168.56 256.19 168.413C256.84 168.288 257.471 168.076 258.065 167.783C259.032 167.25 259.565 166.845 259.565 166.223Z" fill="#EBEBEB"/>
    <path d="M259.565 151.958C259.577 152.33 259.466 152.696 259.25 153C258.938 152.595 258.545 152.261 258.095 152.018C256.816 151.373 255.403 151.037 253.97 151.037C252.537 151.037 251.125 151.373 249.845 152.018C249.394 152.261 248.998 152.595 248.683 153C248.464 152.709 248.341 152.358 248.33 151.995C248.33 151.245 248.87 150.57 249.83 150.008C251.11 149.363 252.522 149.027 253.955 149.027C255.388 149.027 256.801 149.363 258.08 150.008C259.033 150.533 259.565 151.238 259.565 151.958Z" fill="#E0E0E0"/>
    <path d="M259.565 153.142C259.563 152.943 259.52 152.747 259.438 152.565C259.475 152.501 259.496 152.429 259.498 152.355C259.496 152.276 259.474 152.199 259.433 152.132C259.392 152.065 259.334 152.01 259.265 151.972C259.338 151.861 259.377 151.731 259.378 151.597C259.378 151.508 259.36 151.42 259.326 151.337C259.291 151.255 259.241 151.18 259.177 151.118C259.114 151.055 259.038 151.005 258.956 150.972C258.873 150.938 258.784 150.921 258.695 150.922C258.546 150.924 258.401 150.974 258.283 151.065C258.286 151.045 258.286 151.025 258.283 151.005C258.283 150.89 258.237 150.779 258.155 150.697C258.074 150.616 257.963 150.57 257.848 150.57C257.752 150.572 257.659 150.606 257.585 150.667C257.589 150.605 257.589 150.542 257.585 150.48C257.585 150.251 257.494 150.032 257.332 149.87C257.171 149.708 256.951 149.617 256.723 149.617C256.594 149.617 256.467 149.645 256.35 149.7C256.233 149.754 256.13 149.834 256.048 149.932C256.002 149.8 255.916 149.685 255.801 149.605C255.687 149.524 255.55 149.481 255.41 149.482C255.296 149.484 255.183 149.515 255.084 149.571C254.984 149.627 254.9 149.708 254.84 149.805C254.746 149.645 254.612 149.512 254.451 149.42C254.29 149.327 254.107 149.279 253.921 149.279C253.736 149.279 253.553 149.327 253.392 149.42C253.231 149.512 253.097 149.645 253.003 149.805C252.942 149.708 252.858 149.627 252.759 149.571C252.659 149.515 252.547 149.484 252.433 149.482C252.293 149.481 252.156 149.524 252.041 149.605C251.927 149.685 251.841 149.8 251.795 149.932C251.713 149.834 251.609 149.754 251.493 149.7C251.376 149.645 251.249 149.617 251.12 149.617C250.891 149.617 250.672 149.708 250.51 149.87C250.348 150.032 250.258 150.251 250.258 150.48C250.254 150.542 250.254 150.605 250.258 150.667C250.184 150.606 250.091 150.572 249.995 150.57C249.88 150.57 249.769 150.616 249.688 150.697C249.606 150.779 249.56 150.89 249.56 151.005C249.557 151.025 249.557 151.045 249.56 151.065C249.442 150.974 249.297 150.924 249.148 150.922C249.058 150.921 248.97 150.938 248.887 150.972C248.804 151.005 248.729 151.055 248.665 151.118C248.602 151.18 248.552 151.255 248.517 151.337C248.483 151.42 248.465 151.508 248.465 151.597C248.466 151.731 248.505 151.861 248.578 151.972C248.508 152.01 248.45 152.065 248.409 152.132C248.369 152.199 248.346 152.276 248.345 152.355C248.347 152.428 248.365 152.5 248.398 152.565C248.321 152.748 248.281 152.944 248.278 153.142V153.585C248.634 153.953 249.047 154.262 249.5 154.5C250.88 155.199 252.405 155.563 253.951 155.563C255.498 155.563 257.023 155.199 258.403 154.5C258.842 154.251 259.237 153.932 259.573 153.555V153.112L259.565 153.142Z" fill="#FAFAFA"/>
    <path d="M259.565 153.585V154.5C259.565 155.13 259.032 155.745 258.065 156.232C257.47 156.52 256.839 156.729 256.19 156.855C255.449 157.003 254.695 157.076 253.94 157.072C252.524 157.103 251.12 156.816 249.83 156.232C249.408 156.031 249.027 155.754 248.705 155.415C248.467 155.168 248.328 154.843 248.315 154.5V153.615C248.662 153.969 249.062 154.268 249.5 154.5C250.88 155.199 252.405 155.563 253.951 155.563C255.498 155.563 257.023 155.199 258.402 154.5C258.836 154.259 259.229 153.95 259.565 153.585Z" fill="#F5F5F5"/>
    <path d="M259.565 151.957V153.585C259.229 153.962 258.834 154.281 258.395 154.53C257.014 155.223 255.489 155.582 253.944 155.577C252.399 155.571 250.876 155.203 249.5 154.5C249.06 154.249 248.663 153.93 248.323 153.555V151.927C248.378 152.362 248.545 152.774 248.808 153.124C249.071 153.474 249.421 153.749 249.823 153.922C251.102 154.567 252.515 154.903 253.948 154.903C255.38 154.903 256.793 154.567 258.073 153.922C258.469 153.751 258.815 153.48 259.077 153.136C259.338 152.792 259.506 152.386 259.565 151.957Z" fill="#EBEBEB"/>
    <path opacity="0.05" d="M255.26 158.4V166.2C255.259 166.329 255.21 166.454 255.123 166.549C255.036 166.645 254.916 166.705 254.788 166.718C254.51 166.718 254.225 166.718 253.94 166.718C253.655 166.718 253.378 166.718 253.1 166.718C252.971 166.705 252.852 166.645 252.765 166.549C252.678 166.454 252.629 166.329 252.628 166.2V158.4C252.626 158.34 252.638 158.279 252.661 158.224C252.685 158.168 252.721 158.118 252.766 158.078C252.811 158.037 252.864 158.007 252.921 157.989C252.979 157.97 253.04 157.965 253.1 157.973C253.378 157.973 253.663 157.973 253.94 157.973C254.218 157.973 254.51 157.973 254.788 157.973C254.848 157.965 254.909 157.97 254.966 157.989C255.024 158.007 255.077 158.037 255.122 158.078C255.167 158.118 255.202 158.168 255.226 158.224C255.25 158.279 255.262 158.34 255.26 158.4Z" fill="black"/>
    <path opacity="0.05" d="M258.417 157.433V165.233C258.412 165.375 258.37 165.513 258.297 165.635C258.223 165.757 258.12 165.858 257.997 165.93C257.59 166.126 257.166 166.284 256.73 166.403C256.674 166.42 256.615 166.423 256.558 166.412C256.501 166.402 256.447 166.377 256.401 166.341C256.355 166.305 256.319 166.258 256.295 166.205C256.272 166.151 256.261 166.093 256.265 166.035V158.25C256.271 158.116 256.319 157.987 256.403 157.882C256.486 157.777 256.601 157.701 256.73 157.665C257.164 157.548 257.586 157.39 257.99 157.193C258.23 157.065 258.417 157.17 258.417 157.433Z" fill="black"/>
    <path opacity="0.05" d="M249.5 157.433V165.233C249.506 165.375 249.547 165.513 249.621 165.635C249.694 165.757 249.797 165.858 249.92 165.93C250.327 166.126 250.751 166.284 251.188 166.403C251.243 166.42 251.302 166.423 251.36 166.412C251.417 166.402 251.471 166.377 251.516 166.341C251.562 166.305 251.598 166.258 251.622 166.205C251.646 166.151 251.656 166.093 251.652 166.035V158.25C251.646 158.116 251.598 157.987 251.515 157.882C251.431 157.777 251.317 157.701 251.188 157.665C250.751 157.547 250.327 157.388 249.92 157.193C249.657 157.065 249.5 157.17 249.5 157.433Z" fill="black"/>
    <path opacity="0.3" d="M258.755 155.115C259.206 154.822 259.583 154.429 259.858 153.967V166.852C259.614 167.328 259.229 167.715 258.755 167.962V155.115Z" fill="white"/>
    <path d="M253.198 153.135C253.241 153.025 253.318 152.932 253.418 152.869C253.517 152.806 253.634 152.775 253.752 152.782C253.869 152.788 253.982 152.832 254.074 152.906C254.165 152.98 254.231 153.081 254.263 153.195C254.291 153.314 254.281 153.44 254.234 153.553C254.187 153.666 254.105 153.761 254 153.825C254.034 153.713 254.034 153.592 254 153.48C253.982 153.409 253.949 153.342 253.905 153.283C253.861 153.225 253.805 153.176 253.742 153.139C253.678 153.102 253.608 153.078 253.535 153.068C253.462 153.058 253.388 153.063 253.318 153.082C253.275 153.095 253.235 153.112 253.198 153.135Z" fill="#F0F0F0"/>
    <path d="M252.553 153.27C252.532 153.216 252.525 153.158 252.532 153.101C252.538 153.043 252.558 152.988 252.59 152.94C252.615 152.899 252.648 152.864 252.688 152.836C252.727 152.808 252.772 152.789 252.819 152.779C252.866 152.769 252.914 152.769 252.961 152.779C253.008 152.788 253.053 152.807 253.093 152.835C253.16 152.878 253.211 152.941 253.238 153.016C253.265 153.09 253.267 153.172 253.243 153.247C253.213 153.178 253.163 153.118 253.1 153.075C253.06 153.049 253.016 153.03 252.969 153.021C252.922 153.012 252.874 153.012 252.827 153.022C252.78 153.032 252.736 153.051 252.696 153.078C252.657 153.105 252.623 153.14 252.598 153.18C252.577 153.207 252.561 153.237 252.553 153.27Z" fill="#F0F0F0"/>
    <path d="M250.865 151.868C250.807 151.765 250.782 151.647 250.794 151.529C250.807 151.412 250.856 151.301 250.935 151.213C251.013 151.125 251.118 151.064 251.233 151.039C251.349 151.014 251.469 151.025 251.578 151.073C251.69 151.123 251.782 151.21 251.84 151.318C251.898 151.427 251.919 151.551 251.9 151.673C251.845 151.568 251.755 151.486 251.645 151.44C251.577 151.409 251.504 151.391 251.429 151.389C251.355 151.386 251.28 151.399 251.21 151.425C251.141 151.452 251.077 151.492 251.023 151.543C250.968 151.595 250.925 151.657 250.895 151.725C250.881 151.771 250.871 151.819 250.865 151.868Z" fill="#F0F0F0"/>
    <path d="M251.75 151.38C251.716 151.31 251.706 151.231 251.721 151.155C251.735 151.079 251.774 151.01 251.832 150.957C251.889 150.905 251.962 150.873 252.039 150.865C252.116 150.857 252.194 150.875 252.26 150.915C252.33 150.954 252.384 151.015 252.415 151.088C252.447 151.161 252.453 151.243 252.433 151.32C252.402 151.25 252.349 151.192 252.283 151.155C252.199 151.108 252.1 151.097 252.008 151.122C251.915 151.147 251.836 151.207 251.788 151.29C251.772 151.319 251.759 151.349 251.75 151.38Z" fill="#F0F0F0"/>
    <path d="M255.86 151.5C255.856 151.412 255.872 151.324 255.907 151.244C255.942 151.163 255.995 151.092 256.063 151.035C256.177 150.941 256.324 150.897 256.472 150.911C256.619 150.925 256.755 150.996 256.85 151.11C256.924 151.207 256.964 151.325 256.964 151.447C256.964 151.57 256.924 151.688 256.85 151.785C256.842 151.683 256.805 151.585 256.746 151.502C256.686 151.419 256.604 151.354 256.51 151.314C256.416 151.274 256.313 151.261 256.211 151.275C256.11 151.289 256.015 151.331 255.935 151.395C255.907 151.428 255.882 151.463 255.86 151.5Z" fill="#F0F0F0"/>
    <path d="M255.26 151.755C255.252 151.698 255.258 151.641 255.278 151.587C255.297 151.533 255.33 151.485 255.373 151.447C255.439 151.392 255.522 151.361 255.609 151.361C255.695 151.361 255.779 151.391 255.846 151.447C255.912 151.502 255.956 151.579 255.971 151.665C255.987 151.75 255.971 151.838 255.928 151.912C255.92 151.837 255.889 151.766 255.838 151.71C255.769 151.642 255.676 151.603 255.579 151.603C255.482 151.603 255.389 151.642 255.32 151.71L255.26 151.755Z" fill="#F0F0F0"/>
    <path d="M256.835 152.37C256.784 152.344 256.74 152.307 256.707 152.262C256.673 152.216 256.65 152.163 256.64 152.107C256.63 152.06 256.63 152.011 256.641 151.964C256.651 151.916 256.67 151.872 256.698 151.832C256.727 151.793 256.763 151.76 256.804 151.735C256.846 151.71 256.892 151.694 256.94 151.687C257.018 151.673 257.099 151.686 257.169 151.722C257.24 151.759 257.296 151.818 257.33 151.89C257.257 151.867 257.178 151.867 257.105 151.89C257.01 151.907 256.925 151.96 256.869 152.038C256.813 152.117 256.79 152.215 256.805 152.31C256.813 152.331 256.823 152.351 256.835 152.37Z" fill="#F0F0F0"/>
    <path d="M311.645 120.052L314.353 120.622C314.42 120.312 314.404 119.989 314.306 119.687C314.208 119.384 314.031 119.114 313.793 118.902C313.556 118.691 313.267 118.546 312.955 118.483C312.644 118.421 312.321 118.442 312.02 118.545L313.385 117.045C313.092 116.771 312.715 116.602 312.315 116.567C311.915 116.531 311.515 116.63 311.178 116.848C310.841 117.067 310.586 117.391 310.455 117.771C310.323 118.15 310.323 118.563 310.453 118.942C308.245 117.181 305.499 116.231 302.675 116.25H301.745C300.113 116.25 298.496 116.572 296.988 117.197C295.479 117.822 294.109 118.738 292.955 119.893C291.801 121.047 290.886 122.418 290.261 123.927C289.637 125.436 289.317 127.052 289.318 128.685V142.477H307.318C309.376 142.477 311.351 141.66 312.807 140.204C314.262 138.748 315.08 136.774 315.08 134.715V128.715C315.108 125.49 313.876 122.382 311.645 120.052Z" fill="#4674F2"/>
    <path opacity="0.6" d="M311.645 120.052L314.353 120.622C314.42 120.312 314.404 119.989 314.306 119.687C314.208 119.384 314.031 119.114 313.793 118.902C313.556 118.691 313.267 118.546 312.955 118.483C312.644 118.421 312.321 118.442 312.02 118.545L313.385 117.045C313.092 116.771 312.715 116.602 312.315 116.567C311.915 116.531 311.515 116.63 311.178 116.848C310.841 117.067 310.586 117.391 310.455 117.771C310.323 118.15 310.323 118.563 310.453 118.942C308.245 117.181 305.499 116.231 302.675 116.25H301.745C300.113 116.25 298.496 116.572 296.988 117.197C295.479 117.822 294.109 118.738 292.955 119.893C291.801 121.047 290.886 122.418 290.261 123.927C289.637 125.436 289.317 127.052 289.318 128.685V142.477H307.318C309.376 142.477 311.351 141.66 312.807 140.204C314.262 138.748 315.08 136.774 315.08 134.715V128.715C315.108 125.49 313.876 122.382 311.645 120.052Z" fill="black"/>
    <path d="M296.158 258.938C296.109 259.565 295.868 260.162 295.468 260.648C294.447 261.911 293.293 263.06 292.025 264.075C290.24 265.538 287.638 267.203 285.763 268.44C284.72 269.123 284.525 270.345 285.763 270.96C288.16 271.908 290.828 271.908 293.225 270.96C295.003 270.293 297.935 266.46 299.405 266.055C301.085 265.553 302.03 265.305 302.668 264.66C303.62 263.67 303.935 262.883 303.418 261.51C302.855 260.01 302.023 257.708 301.528 257.888L301.61 258.353C301.093 259.44 297.815 260.34 296.263 259.808L296.158 258.938Z" fill="#263238"/>
    <path d="M301.565 257.857C301.723 255.405 301.843 253.447 302.03 247.56C302.218 241.672 302.495 236.902 302.48 232.642C302.361 229.291 301.825 225.968 300.883 222.75L303.215 197.055C303.215 197.055 303.56 219.157 304.558 224.805C305.353 229.305 305.66 234.975 306.583 242.715C307.46 250.125 308.045 257.895 308.375 263.152C308.48 264.892 308.503 269.4 308.503 269.4H313.865V265.777C313.865 264.142 314 262.508 314.27 260.895C315.08 255.967 316.888 244.68 317.27 240.862C317.848 234.802 315.665 227.197 315.665 227.197C315.665 227.197 316.543 218.467 317.255 210.997C318.005 203.325 320.053 191.032 317.923 181.92L290.173 183.277C289.385 192.277 289.175 218.272 290.023 223.185C290.675 226.972 295.048 252.172 296.135 258.472" fill="#B16668"/>
    <path d="M296.15 258.427C296.15 258.622 296.15 258.802 296.15 258.96C296.11 259.581 295.871 260.173 295.468 260.647C294.446 261.912 293.291 263.063 292.025 264.082C291.155 264.787 290.09 265.582 289.025 266.28C288.928 266.391 288.861 266.525 288.83 266.67C288.718 267.54 290.803 268.057 292.093 267.862C293.722 267.523 295.202 266.678 296.323 265.447C297.163 264.585 299.023 262.972 300.223 261.742C300.633 261.368 300.995 260.945 301.303 260.482C301.663 259.9 301.803 259.209 301.7 258.532L301.663 258.322C301.663 258.165 301.61 258.007 301.588 257.857" fill="#B16668"/>
    <path d="M307.287 145.005C307.287 145.005 314.877 145.882 315.785 146.287C310.34 152.617 314.727 161.182 314.727 161.182L311.727 171.015C314.398 174.257 316.498 177.929 317.937 181.875C319.752 186.637 320.937 190.267 322.295 205.552C315.14 212.145 291.312 212.302 285.252 204.337C285.252 204.337 287.112 193.672 289.52 183.615C291.282 176.265 293.022 172.11 292.595 169.71C289.4 159.877 289.152 157.305 289.715 155.115C291.312 148.942 297.597 144.772 299.15 144.772L307.287 145.005Z" fill="#37474F"/>
    <path d="M327.777 139.027C326.945 140.902 321.927 149.182 320.015 152.527C318.102 155.872 316.31 158.677 314.765 161.16C308.622 158.16 313.932 145.927 313.932 145.927C313.932 145.927 321.815 135.615 322.062 135.112C322.308 134.638 322.489 134.134 322.602 133.612C322.775 132.667 323.787 123.022 323.352 119.467C323.273 118.84 322.966 118.264 322.49 117.847C321.23 116.707 320.81 115.702 319.94 114.397C319.257 113.377 318.582 113.032 318.74 112.777C318.952 112.497 319.263 112.308 319.61 112.248C319.957 112.188 320.313 112.262 320.607 112.455C321.27 112.86 321.882 113.344 322.43 113.895C322.164 112.525 321.675 111.207 320.982 109.995C319.422 107.212 319.595 105.697 323.615 106.365C326.135 106.777 327.875 108.675 328.805 114.547C329.02 116.67 329.103 118.804 329.052 120.937C329.105 125.88 328.932 131.7 328.677 135.112C328.711 136.472 328.401 137.819 327.777 139.027Z" fill="#B16668"/>
    <path d="M308.495 266.707V265.957C307.837 268.509 306.512 270.839 304.655 272.707C302.967 274.252 300.657 276.037 300.065 277.755C299.472 279.472 302.795 280.26 304.985 280.005C307.111 279.745 309.07 278.721 310.497 277.125C311.892 275.527 311.862 274.432 312.515 273.555C313.167 272.677 314.66 271.695 315.012 270.675C315.123 269.726 315.018 268.765 314.705 267.862C314.457 266.91 314.187 265.867 313.865 265.957V266.542C313.099 267.142 312.152 267.462 311.18 267.45C310.392 267.465 308.487 267.307 308.495 266.707Z" fill="#263238"/>
    <path d="M313.865 266.527C313.098 267.124 312.152 267.444 311.18 267.435C310.393 267.435 308.705 267.06 308.713 266.46L308.443 265.095C308.443 267.127 306.793 270.72 304.693 272.662L303.403 273.81C302.503 274.807 302.758 275.685 304.903 275.872C307.048 276.06 308.878 274.777 310.483 272.805C312.088 270.832 313.865 266.527 313.865 266.527Z" fill="#B16668"/>
    <path d="M294.17 121.792C292.813 122.595 291.125 126.022 291.29 133.207C291.433 139.29 293.405 140.797 294.395 141.232C295.385 141.667 297.298 141.397 299.158 141.09V144.75C299.158 144.75 296.585 147.75 296.75 149.407C296.915 151.065 300.455 151.477 302.855 149.842C304.597 148.496 306.096 146.863 307.288 145.012L307.25 136.612C307.25 136.612 308.345 137.67 310.198 136.05C311.698 134.715 312.245 132.457 311.053 131.242C310.743 130.955 310.369 130.745 309.963 130.63C309.556 130.515 309.128 130.498 308.713 130.581C308.299 130.664 307.91 130.844 307.579 131.106C307.247 131.368 306.983 131.706 306.808 132.09C306.808 132.09 305.773 129.225 301.498 127.822C297.628 126.562 295.52 125.107 294.17 121.792Z" fill="#B16668"/>
    <path d="M298.085 131.678C298.08 131.776 298.095 131.874 298.128 131.967C298.161 132.06 298.212 132.146 298.278 132.219C298.344 132.292 298.424 132.351 298.513 132.394C298.602 132.436 298.699 132.46 298.797 132.465C298.896 132.47 298.994 132.455 299.087 132.422C299.18 132.389 299.266 132.338 299.339 132.272C299.412 132.206 299.471 132.126 299.513 132.037C299.556 131.948 299.58 131.851 299.585 131.752C299.597 131.647 299.586 131.541 299.553 131.44C299.521 131.339 299.468 131.247 299.397 131.168C299.326 131.089 299.239 131.027 299.142 130.984C299.046 130.941 298.941 130.919 298.835 130.92C298.736 130.92 298.638 130.94 298.546 130.978C298.455 131.016 298.372 131.072 298.302 131.142C298.232 131.213 298.177 131.296 298.14 131.388C298.103 131.48 298.084 131.578 298.085 131.678Z" fill="#263238"/>
    <path d="M297.882 136.837L296.105 137.4C296.137 137.519 296.192 137.63 296.268 137.727C296.344 137.824 296.439 137.905 296.547 137.965C296.655 138.024 296.773 138.061 296.896 138.074C297.018 138.086 297.142 138.074 297.26 138.037C297.501 137.96 297.702 137.79 297.818 137.566C297.935 137.341 297.958 137.079 297.882 136.837Z" fill="#9A4A4D"/>
    <path d="M291.815 129.322L293.36 128.25C293.296 128.146 293.21 128.056 293.11 127.986C293.009 127.916 292.896 127.867 292.775 127.842C292.655 127.818 292.532 127.818 292.412 127.843C292.292 127.868 292.178 127.917 292.078 127.987C291.872 128.134 291.73 128.354 291.681 128.603C291.632 128.851 291.68 129.109 291.815 129.322Z" fill="#263238"/>
    <path d="M300.313 129.893L298.768 128.82C298.832 128.716 298.917 128.626 299.018 128.556C299.118 128.486 299.232 128.437 299.352 128.412C299.472 128.388 299.596 128.388 299.716 128.413C299.836 128.438 299.95 128.487 300.05 128.558C300.258 128.703 300.401 128.923 300.45 129.172C300.499 129.421 300.45 129.679 300.313 129.893Z" fill="#263238"/>
    <path d="M292.168 131.123C292.156 131.228 292.167 131.334 292.199 131.435C292.232 131.536 292.285 131.628 292.356 131.707C292.427 131.786 292.513 131.848 292.61 131.891C292.707 131.934 292.812 131.956 292.918 131.955C293.123 131.959 293.321 131.883 293.471 131.743C293.621 131.603 293.71 131.41 293.72 131.205C293.725 131.107 293.711 131.008 293.677 130.915C293.644 130.822 293.593 130.737 293.527 130.664C293.461 130.591 293.381 130.531 293.292 130.489C293.203 130.447 293.106 130.422 293.008 130.418C292.909 130.413 292.811 130.427 292.718 130.46C292.625 130.493 292.539 130.544 292.466 130.611C292.393 130.677 292.334 130.757 292.292 130.846C292.249 130.935 292.225 131.032 292.22 131.13L292.168 131.123Z" fill="#263238"/>
    <path d="M295.782 130.688L295.655 135.292L293.232 134.542L295.782 130.688Z" fill="#9A4A4D"/>
    <path d="M299.157 141.09C301.115 140.835 305.157 139.672 305.765 138.09C305.514 138.896 305.022 139.606 304.355 140.122C303.155 141.157 299.157 142.312 299.157 142.312V141.09Z" fill="#9A4A4D"/>
    <path d="M313.16 166.267L307.663 173.602L311.698 171.015L313.16 166.267Z" fill="#263238"/>
    <path d="M253.153 182.61V187.672C253.174 187.809 253.246 187.932 253.355 188.018L255.035 188.978V189.728L252.71 188.393C252.603 188.306 252.531 188.183 252.508 188.047V182.25L253.153 182.61Z" fill="#E0E0E0"/>
    <path d="M251.675 180.795L252.32 180.427C252.48 180.34 252.661 180.297 252.843 180.304C253.025 180.31 253.202 180.366 253.355 180.465L255.035 181.432V182.932L253.153 181.852V182.602L252.5 182.25V188.062C252.524 188.198 252.596 188.321 252.703 188.407L255.028 189.742V190.492L252.703 189.15C252.443 188.993 252.227 188.774 252.075 188.512C251.923 188.249 251.84 187.953 251.833 187.65V181.32C251.829 181.141 251.867 180.964 251.945 180.802L251.675 180.795Z" fill="#EBEBEB"/>
    <path d="M251.675 180.795C251.786 180.733 251.908 180.695 252.035 180.682C252.27 180.655 252.508 180.708 252.71 180.832L255.035 182.175V183.675L253.152 182.587L252.5 182.25V188.062C252.523 188.198 252.595 188.321 252.702 188.407L255.027 189.742V191.242L252.027 189.532C251.768 189.375 251.553 189.156 251.401 188.894C251.249 188.631 251.165 188.335 251.157 188.032V181.695C251.154 181.512 251.201 181.332 251.292 181.174C251.383 181.015 251.515 180.884 251.675 180.795Z" fill="#E6E6E6"/>
    <path d="M251.638 185.527C251.675 185.526 251.71 185.51 251.736 185.484C251.763 185.457 251.778 185.422 251.78 185.385V181.792C251.779 181.726 251.796 181.66 251.829 181.602C251.862 181.544 251.91 181.496 251.968 181.462C252.024 181.427 252.089 181.408 252.155 181.408C252.221 181.408 252.286 181.427 252.343 181.462C252.375 181.481 252.414 181.486 252.451 181.477C252.488 181.467 252.519 181.443 252.538 181.41C252.556 181.377 252.562 181.338 252.552 181.302C252.542 181.265 252.518 181.234 252.485 181.215C252.385 181.156 252.271 181.125 252.155 181.125C252.039 181.125 251.925 181.156 251.825 181.215C251.722 181.272 251.637 181.356 251.578 181.458C251.518 181.559 251.487 181.675 251.488 181.792V185.385C251.489 185.423 251.506 185.46 251.534 185.486C251.562 185.513 251.599 185.528 251.638 185.527Z" fill="#FAFAFA"/>
    <path d="M252.65 181.567C252.649 181.586 252.652 181.605 252.659 181.623C252.665 181.641 252.676 181.657 252.689 181.671C252.703 181.684 252.719 181.695 252.737 181.701C252.754 181.708 252.773 181.711 252.792 181.71C252.812 181.711 252.831 181.708 252.849 181.701C252.867 181.695 252.884 181.684 252.898 181.671C252.912 181.658 252.923 181.642 252.931 181.624C252.938 181.606 252.942 181.587 252.942 181.567C252.942 181.528 252.927 181.49 252.898 181.461C252.87 181.433 252.832 181.417 252.792 181.417C252.773 181.417 252.754 181.421 252.736 181.429C252.718 181.437 252.702 181.448 252.689 181.462C252.676 181.476 252.665 181.492 252.658 181.511C252.652 181.529 252.649 181.548 252.65 181.567Z" fill="#FAFAFA"/>
    <path d="M254.75 179.415V194.415C254.75 195.345 255.365 196.275 256.588 196.98C257.966 197.683 259.491 198.049 261.039 198.049C262.586 198.049 264.111 197.683 265.49 196.98C266.713 196.275 267.327 195.345 267.327 194.415V179.415H254.75Z" fill="#E0E0E0"/>
    <path d="M266.668 181.042C266.331 181.417 265.936 181.733 265.498 181.98C264.118 182.679 262.593 183.043 261.046 183.043C259.5 183.043 257.975 182.679 256.595 181.98C256.157 181.733 255.761 181.417 255.425 181.042C254.24 179.677 254.63 177.975 256.595 176.842C257.975 176.143 259.5 175.779 261.046 175.779C262.593 175.779 264.118 176.143 265.498 176.842C267.5 177.975 267.853 179.677 266.668 181.042Z" fill="#EBEBEB"/>
    <path d="M266.667 181.395C266.609 180.966 266.44 180.559 266.177 180.215C265.914 179.87 265.566 179.6 265.167 179.43C263.888 178.785 262.475 178.449 261.042 178.449C259.61 178.449 258.197 178.785 256.917 179.43C256.519 179.6 256.171 179.87 255.908 180.215C255.645 180.559 255.476 180.966 255.417 181.395V192.75C255.417 193.372 255.95 193.987 256.917 194.475C258.208 195.065 259.616 195.355 261.035 195.322C262.451 195.354 263.857 195.064 265.145 194.475C266.12 193.987 266.645 193.372 266.645 192.75V181.395H266.667Z" fill="#4674F2"/>
    <path d="M266.667 193.672V194.587C266.667 195.21 266.135 195.825 265.167 196.312C264.574 196.606 263.943 196.818 263.292 196.942C262.552 197.09 261.798 197.163 261.042 197.16C259.624 197.192 258.216 196.903 256.925 196.312C256.502 196.116 256.12 195.841 255.8 195.502C255.564 195.255 255.428 194.929 255.417 194.587V193.672C255.417 193.987 255.545 194.107 255.8 194.422C256.122 194.759 256.504 195.033 256.925 195.232C258.216 195.823 259.624 196.112 261.042 196.08C261.798 196.083 262.552 196.01 263.292 195.862C263.942 195.735 264.572 195.523 265.167 195.232C266.135 194.722 266.667 194.295 266.667 193.672Z" fill="#EBEBEB"/>
    <path d="M266.667 179.415C266.659 179.779 266.535 180.131 266.315 180.42C266.005 180.011 265.612 179.673 265.16 179.43C263.88 178.785 262.468 178.449 261.035 178.449C259.602 178.449 258.189 178.785 256.91 179.43C256.458 179.675 256.062 180.013 255.747 180.42C255.532 180.128 255.412 179.777 255.402 179.415C255.402 178.665 255.935 177.982 256.902 177.42C258.182 176.775 259.595 176.439 261.027 176.439C262.46 176.439 263.873 176.775 265.152 177.42C266.135 177.982 266.667 178.687 266.667 179.415Z" fill="#E0E0E0"/>
    <path d="M266.667 180.593C266.664 180.394 266.624 180.198 266.547 180.015C266.581 179.95 266.599 179.878 266.6 179.805C266.599 179.726 266.576 179.649 266.536 179.582C266.495 179.515 266.437 179.46 266.367 179.423C266.461 179.289 266.503 179.126 266.485 178.963C266.467 178.801 266.392 178.651 266.272 178.54C266.152 178.43 265.996 178.366 265.833 178.361C265.67 178.357 265.511 178.411 265.385 178.515C265.389 178.495 265.389 178.475 265.385 178.455C265.385 178.398 265.374 178.341 265.352 178.289C265.33 178.236 265.298 178.188 265.257 178.147C265.217 178.107 265.169 178.075 265.116 178.053C265.064 178.031 265.007 178.02 264.95 178.02C264.854 178.022 264.761 178.056 264.687 178.118C264.691 178.058 264.691 177.997 264.687 177.938C264.688 177.824 264.667 177.711 264.624 177.605C264.581 177.5 264.518 177.404 264.437 177.323C264.357 177.242 264.262 177.178 264.157 177.134C264.052 177.09 263.939 177.068 263.825 177.068C263.696 177.069 263.568 177.098 263.452 177.154C263.335 177.21 263.232 177.29 263.15 177.39C263.104 177.258 263.018 177.143 262.904 177.062C262.789 176.981 262.652 176.939 262.512 176.94C262.399 176.94 262.287 176.969 262.187 177.024C262.087 177.079 262.003 177.159 261.942 177.255C261.848 177.095 261.714 176.962 261.553 176.87C261.392 176.777 261.209 176.729 261.024 176.729C260.838 176.729 260.655 176.777 260.494 176.87C260.333 176.962 260.199 177.095 260.105 177.255C260.044 177.159 259.96 177.079 259.86 177.024C259.761 176.969 259.649 176.94 259.535 176.94C259.395 176.939 259.258 176.981 259.144 177.062C259.029 177.143 258.943 177.258 258.897 177.39C258.815 177.29 258.712 177.21 258.596 177.154C258.479 177.098 258.352 177.069 258.222 177.068C258.108 177.068 257.996 177.09 257.891 177.134C257.785 177.178 257.69 177.242 257.61 177.323C257.53 177.404 257.466 177.5 257.423 177.605C257.38 177.711 257.359 177.824 257.36 177.938C257.356 177.997 257.356 178.058 257.36 178.118C257.286 178.056 257.193 178.022 257.097 178.02C257.04 178.02 256.984 178.031 256.931 178.053C256.878 178.075 256.83 178.107 256.79 178.147C256.749 178.188 256.717 178.236 256.695 178.289C256.674 178.341 256.662 178.398 256.662 178.455C256.659 178.475 256.659 178.495 256.662 178.515C256.545 178.422 256.4 178.371 256.25 178.373C256.128 178.373 256.008 178.407 255.904 178.47C255.799 178.533 255.713 178.622 255.655 178.729C255.597 178.837 255.569 178.957 255.573 179.079C255.577 179.201 255.614 179.32 255.68 179.423C255.611 179.46 255.553 179.515 255.512 179.582C255.471 179.649 255.449 179.726 255.447 179.805C255.448 179.879 255.469 179.952 255.507 180.015C255.425 180.197 255.382 180.393 255.38 180.593V181.043C255.716 181.417 256.111 181.733 256.55 181.98C257.93 182.679 259.454 183.043 261.001 183.043C262.548 183.043 264.073 182.679 265.452 181.98C265.891 181.733 266.286 181.417 266.622 181.043V180.593H266.667Z" fill="#FAFAFA"/>
    <path d="M266.667 181.042V181.927C266.667 182.55 266.135 183.165 265.167 183.652C264.574 183.946 263.943 184.158 263.292 184.282C262.552 184.43 261.798 184.503 261.042 184.5C259.624 184.532 258.216 184.243 256.925 183.652C256.502 183.456 256.12 183.181 255.8 182.842C255.565 182.594 255.429 182.269 255.417 181.927V181.042C255.754 181.417 256.149 181.733 256.587 181.98C257.967 182.679 259.492 183.043 261.039 183.043C262.585 183.043 264.11 182.679 265.49 181.98C265.931 181.734 266.329 181.417 266.667 181.042Z" fill="#F5F5F5"/>
    <path d="M266.668 179.415V181.043C266.331 181.417 265.936 181.733 265.498 181.98C264.118 182.679 262.593 183.043 261.046 183.043C259.5 183.043 257.975 182.679 256.595 181.98C256.157 181.733 255.761 181.417 255.425 181.043V179.415C255.425 180.165 255.958 180.84 256.925 181.403C258.204 182.047 259.617 182.383 261.05 182.383C262.483 182.383 263.896 182.047 265.175 181.403C266.135 180.84 266.668 180.135 266.668 179.415Z" fill="#EBEBEB"/>
    <path opacity="0.05" d="M262.362 185.858V193.65C262.361 193.78 262.313 193.905 262.226 194.002C262.139 194.099 262.019 194.16 261.89 194.175C261.612 194.175 261.335 194.175 261.05 194.175C260.765 194.175 260.48 194.175 260.202 194.175C260.073 194.16 259.954 194.099 259.867 194.002C259.78 193.905 259.731 193.78 259.73 193.65V185.858C259.73 185.797 259.742 185.737 259.766 185.682C259.79 185.627 259.826 185.577 259.87 185.536C259.915 185.495 259.967 185.464 260.024 185.444C260.082 185.425 260.142 185.417 260.202 185.423C260.48 185.423 260.765 185.423 261.05 185.423C261.335 185.423 261.612 185.423 261.89 185.423C261.95 185.417 262.011 185.425 262.068 185.444C262.125 185.464 262.178 185.495 262.222 185.536C262.267 185.577 262.302 185.627 262.326 185.682C262.35 185.737 262.363 185.797 262.362 185.858Z" fill="black"/>
    <path opacity="0.05" d="M265.52 184.89V192.683C265.513 192.825 265.471 192.964 265.397 193.087C265.324 193.21 265.222 193.313 265.1 193.388C264.693 193.581 264.268 193.737 263.832 193.853C263.777 193.871 263.718 193.876 263.661 193.866C263.603 193.857 263.549 193.833 263.503 193.798C263.457 193.762 263.421 193.715 263.397 193.662C263.373 193.609 263.363 193.551 263.367 193.493V185.693C263.374 185.559 263.422 185.43 263.505 185.325C263.589 185.22 263.703 185.144 263.832 185.108C264.268 184.989 264.693 184.831 265.1 184.635C265.332 184.5 265.52 184.628 265.52 184.89Z" fill="black"/>
    <path opacity="0.05" d="M256.58 184.89V192.683C256.586 192.825 256.627 192.964 256.698 193.086C256.77 193.209 256.871 193.313 256.993 193.388C257.4 193.581 257.824 193.737 258.26 193.853C258.315 193.871 258.374 193.876 258.432 193.866C258.489 193.857 258.543 193.833 258.589 193.798C258.635 193.762 258.672 193.715 258.696 193.662C258.719 193.609 258.729 193.551 258.725 193.493V185.693C258.719 185.559 258.671 185.43 258.587 185.325C258.504 185.22 258.389 185.144 258.26 185.108C257.826 184.99 257.404 184.832 257 184.635C256.76 184.5 256.58 184.628 256.58 184.89Z" fill="black"/>
    <path d="M260.3 180.593C260.331 180.507 260.382 180.43 260.449 180.369C260.516 180.307 260.597 180.263 260.685 180.24C260.772 180.216 260.865 180.215 260.953 180.235C261.042 180.255 261.124 180.296 261.194 180.355C261.263 180.414 261.317 180.489 261.351 180.573C261.385 180.657 261.398 180.748 261.389 180.839C261.38 180.929 261.349 181.016 261.299 181.092C261.25 181.168 261.182 181.231 261.103 181.275C261.137 181.163 261.137 181.043 261.103 180.93C261.084 180.859 261.052 180.792 261.008 180.733C260.963 180.675 260.908 180.626 260.844 180.589C260.781 180.552 260.711 180.528 260.638 180.518C260.565 180.508 260.491 180.513 260.42 180.533C260.378 180.547 260.337 180.568 260.3 180.593Z" fill="#F0F0F0"/>
    <path d="M259.655 180.75C259.63 180.699 259.617 180.642 259.617 180.585C259.617 180.528 259.63 180.471 259.655 180.42C259.681 180.38 259.714 180.345 259.754 180.318C259.793 180.291 259.837 180.272 259.884 180.262C259.931 180.252 259.979 180.252 260.026 180.261C260.073 180.27 260.118 180.288 260.157 180.315C260.225 180.359 260.276 180.424 260.303 180.5C260.331 180.575 260.332 180.658 260.307 180.735C260.28 180.662 260.23 180.599 260.165 180.555C260.125 180.529 260.08 180.511 260.032 180.502C259.985 180.494 259.937 180.495 259.89 180.505C259.843 180.516 259.799 180.536 259.76 180.563C259.721 180.591 259.688 180.627 259.662 180.667C259.654 180.694 259.651 180.722 259.655 180.75Z" fill="#F0F0F0"/>
    <path d="M257.968 179.317C257.927 179.239 257.906 179.151 257.906 179.062C257.906 178.974 257.927 178.886 257.968 178.807C257.998 178.74 258.042 178.679 258.097 178.628C258.151 178.577 258.215 178.538 258.285 178.512C258.354 178.486 258.429 178.475 258.503 178.478C258.577 178.481 258.65 178.499 258.718 178.53C258.829 178.58 258.921 178.665 258.979 178.772C259.037 178.879 259.059 179.002 259.04 179.122C258.98 179.021 258.891 178.94 258.785 178.89C258.717 178.859 258.644 178.841 258.569 178.839C258.495 178.836 258.42 178.849 258.35 178.875C258.28 178.902 258.217 178.942 258.163 178.993C258.108 179.045 258.065 179.107 258.035 179.175C258.006 179.219 257.983 179.267 257.968 179.317Z" fill="#F0F0F0"/>
    <path d="M258.86 178.838C258.834 178.786 258.821 178.73 258.821 178.673C258.821 178.615 258.834 178.559 258.86 178.508C258.9 178.427 258.969 178.364 259.053 178.332C259.137 178.3 259.23 178.3 259.314 178.333C259.398 178.366 259.466 178.429 259.506 178.51C259.545 178.591 259.553 178.684 259.527 178.77C259.494 178.702 259.442 178.645 259.377 178.605C259.336 178.581 259.29 178.566 259.242 178.561C259.194 178.555 259.146 178.559 259.1 178.572C259.054 178.585 259.011 178.608 258.973 178.638C258.936 178.668 258.905 178.705 258.882 178.748C258.872 178.777 258.864 178.807 258.86 178.838Z" fill="#F0F0F0"/>
    <path d="M263 178.95C262.995 178.861 263.011 178.772 263.046 178.69C263.081 178.608 263.134 178.535 263.202 178.478C263.307 178.396 263.438 178.354 263.571 178.359C263.704 178.365 263.83 178.417 263.928 178.507C264.026 178.597 264.089 178.718 264.106 178.85C264.123 178.982 264.092 179.116 264.02 179.228C264.01 179.11 263.966 178.998 263.892 178.905C263.797 178.791 263.662 178.72 263.514 178.706C263.367 178.692 263.22 178.736 263.105 178.83C263.064 178.864 263.028 178.905 263 178.95Z" fill="#F0F0F0"/>
    <path d="M262.362 179.25C262.354 179.193 262.36 179.136 262.38 179.082C262.4 179.028 262.432 178.98 262.475 178.942C262.537 178.874 262.623 178.832 262.716 178.825C262.808 178.818 262.9 178.847 262.971 178.906C263.043 178.965 263.089 179.049 263.1 179.141C263.11 179.233 263.086 179.326 263.03 179.4C263.021 179.325 262.99 179.254 262.94 179.197C262.871 179.129 262.778 179.091 262.681 179.091C262.584 179.091 262.491 179.129 262.422 179.197C262.4 179.212 262.38 179.23 262.362 179.25Z" fill="#F0F0F0"/>
    <path d="M263.937 179.82C263.887 179.793 263.844 179.755 263.812 179.708C263.779 179.661 263.758 179.608 263.751 179.551C263.743 179.495 263.749 179.437 263.768 179.384C263.787 179.33 263.818 179.282 263.859 179.242C263.9 179.203 263.95 179.174 264.004 179.158C264.059 179.142 264.117 179.138 264.172 179.149C264.228 179.159 264.281 179.182 264.326 179.217C264.371 179.251 264.408 179.296 264.432 179.348C264.36 179.321 264.28 179.321 264.207 179.348C264.113 179.366 264.029 179.42 263.974 179.498C263.918 179.576 263.894 179.672 263.907 179.768C263.916 179.786 263.926 179.804 263.937 179.82Z" fill="#F0F0F0"/>
    <path d="M199.062 209.573C198.5 188.775 200.172 183.788 205.707 179.978L207.852 192C207.852 192 205.332 206.205 205.602 210.938C205.842 215.093 206.247 220.29 207.23 223.65C207.409 224.243 207.798 224.75 208.325 225.075C209.742 225.96 210.305 226.86 211.37 227.978C212.202 228.848 212.87 229.065 212.802 229.335C212.643 229.642 212.373 229.876 212.047 229.992C211.722 230.108 211.364 230.095 211.047 229.958C210.34 229.677 209.668 229.314 209.045 228.878C209.535 230.152 210.226 231.34 211.092 232.395C213.072 234.818 213.162 236.31 209.165 236.348C206.667 236.348 204.665 234.848 202.782 229.313C202.051 227.292 201.465 225.222 201.027 223.118C200.075 217.695 199.152 212.925 199.062 209.573Z" fill="#FFA8A7"/>
    <path d="M210.365 178.395C208.662 178.093 206.908 178.351 205.365 179.132C203.821 179.912 202.573 181.172 201.807 182.723C199.49 186.87 198.92 194.01 198.657 201.113C198.657 201.113 203.27 204.968 208.797 203.07L210.365 178.395Z" fill="#37474F"/>
    <path d="M202.588 292.807C202.168 292.965 202.063 293.767 202.003 295.357C201.95 296.557 201.695 298.657 203.105 299.107C204.515 299.557 206.577 299.31 207.477 298.177C208.61 296.76 209.368 295.515 210.98 293.79C212.375 292.29 213.882 290.895 214.445 288.795C214.955 286.897 214.527 286.072 213.237 285.517C211.452 284.767 208.655 287.242 207.237 287.632C206.06 287.94 203 292.65 202.588 292.807Z" fill="#263238"/>
    <path d="M202.587 291.338V293.287C203.32 293.756 204.167 294.017 205.036 294.041C205.906 294.064 206.765 293.851 207.522 293.423C207.605 293.235 208.032 290.625 208.032 290.625L202.587 291.338Z" fill="#FFA8A7"/>
    <path d="M218.397 304.057C218.056 305.102 217.768 306.163 217.535 307.237C217.295 308.415 216.95 310.387 217.362 311.28C217.775 312.172 219.387 312.735 221.862 312.72C223.475 312.72 226.002 313.807 227.727 314.767C229.452 315.727 233.217 316.162 235.107 315.937C237.357 315.675 239.607 314.392 239.997 313.47C240.387 312.547 239.877 311.595 234.635 309.36C234.59 309.36 227.352 306.982 224.817 304.185L218.397 304.057Z" fill="#263238"/>
    <path d="M218.397 301.943C218.397 301.943 218.397 303.398 218.397 304.193C218.397 304.988 219.365 306.255 221.9 306.165C223.677 306.098 224.9 305.618 224.847 304.155V302.048L218.397 301.943Z" fill="#FFA8A7"/>
    <path d="M201.32 265.433C201.752 261.977 202.526 258.573 203.63 255.27C203.63 255.27 202.932 246.495 202.595 238.178C202.235 229.178 202.595 217.928 202.445 215.678C202.445 215.678 231.425 209.813 231.942 220.178C232.46 230.543 230.802 256.995 230.442 261.555C230.082 266.115 229.31 270.15 228.372 277.545C227.435 284.94 224.832 302.07 224.832 302.07C223.829 302.581 222.716 302.835 221.59 302.812C220.465 302.788 219.363 302.487 218.382 301.935C218.382 301.935 216.342 281.175 216.56 275.91C216.72 272.012 217.391 268.151 218.555 264.428C218.555 264.428 218 255.863 217.52 248.415C217.04 240.968 216.522 237.39 216.41 234.165L215.78 233.858C215.78 233.858 215.15 246.705 214.805 251.265C214.46 255.825 213.732 260.205 212.42 268.673C211.272 276.023 207.86 291.578 207.86 291.578C204.552 293.37 202.572 291.345 202.572 291.345C202.572 291.345 200.427 271.808 201.32 265.433Z" fill="#4674F2"/>
    <g opacity="0.3">
        <path d="M201.32 265.433C201.752 261.977 202.526 258.573 203.63 255.27C203.63 255.27 202.932 246.495 202.595 238.178C202.235 229.178 202.595 217.928 202.445 215.678C202.445 215.678 231.425 209.813 231.942 220.178C232.46 230.543 230.802 256.995 230.442 261.555C230.082 266.115 229.31 270.15 228.372 277.545C227.435 284.94 224.832 302.07 224.832 302.07C223.829 302.581 222.716 302.835 221.59 302.812C220.465 302.788 219.363 302.487 218.382 301.935C218.382 301.935 216.342 281.175 216.56 275.91C216.72 272.012 217.391 268.151 218.555 264.428C218.555 264.428 218 255.863 217.52 248.415C217.04 240.968 216.522 237.39 216.41 234.165L215.78 233.858C215.78 233.858 215.15 246.705 214.805 251.265C214.46 255.825 213.732 260.205 212.42 268.673C211.272 276.023 207.86 291.578 207.86 291.578C204.552 293.37 202.572 291.345 202.572 291.345C202.572 291.345 200.427 271.808 201.32 265.433Z" fill="black"/>
    </g>
    <g opacity="0.2">
        <path d="M216.425 234.158C216.425 234.158 209.39 230.7 205.873 227.573C205.873 227.573 209.143 232.178 213.425 234.218C213.425 234.218 214.925 250.178 214.925 249.863L215.773 233.85L216.425 234.158Z" fill="black"/>
    </g>
    <path d="M222.68 175.11L220.963 184.545L212.435 183.923L214.228 173.228L222.68 175.11Z" fill="#FFA8A7"/>
    <path d="M203.435 183.232C204.275 180.667 207.53 177.877 210.792 178.477C215.627 179.302 220.391 180.495 225.042 182.047C228.042 183.112 230.75 185.685 230.99 195.502C230.99 195.502 231.995 218.377 232.01 222.802C224.51 225.765 216.732 225.675 212.42 224.73C203.457 222.772 202.377 219.052 202.377 219.052C202.377 219.052 202.265 202.605 202.527 195.502C202.775 189.465 202.85 184.995 203.435 183.232Z" fill="#F5F5F5"/>
    <path d="M229.25 163.627C229.25 163.627 231.41 167.077 231.147 167.377C230.885 167.677 229.25 168 229.25 168V163.627Z" fill="#F28F8F"/>
    <path d="M223.25 154.087C227.75 155.145 229.025 157.17 229.287 164.377C229.565 171.877 228.747 174.247 227.735 175.237C227.052 175.912 223.347 175.95 221.487 175.395C219.162 174.697 213.912 172.702 211.52 168.862C208.707 164.362 208.085 158.295 211.257 155.895C215.75 152.512 221.42 153.66 223.25 154.087Z" fill="#FFA8A7"/>
    <path d="M229.25 156C227.923 158.25 225.05 159.352 225.05 159.352C224.187 160.335 224.667 164.175 223.145 164.782C223.145 164.782 222.492 161.992 220.145 162.285C217.797 162.577 217.392 165.585 218.84 167.445C220.287 169.305 221.683 168.637 221.683 168.637C221.683 168.637 221.525 172.605 219.71 174.817C219.71 174.817 217.693 175.417 214.025 174.547C211.775 174.015 208.633 171.112 207.358 168.082C204.65 161.685 204.583 155.97 208.67 154.35C209.173 151.44 211.498 150.18 214.138 149.64C219.815 148.47 223.467 152.01 227.84 151.702C230.322 151.5 230.788 153.307 229.25 156Z" fill="#263238"/>
    <path d="M208.557 155.287L205.887 153.63C206.121 153.306 206.468 153.083 206.86 153.005C207.251 152.928 207.657 153.001 207.996 153.212C208.335 153.422 208.582 153.754 208.686 154.139C208.79 154.524 208.744 154.935 208.557 155.287Z" fill="#263238"/>
    <path d="M261.118 199.035C259.715 199.657 243.193 211.867 240.62 210.45C238.048 209.032 224.825 193.582 224.825 193.582C223.712 191.857 223.119 189.846 223.119 187.792C223.119 185.739 223.712 183.728 224.825 182.002C224.825 182.002 229.063 182.79 231.283 186.142C233.503 189.495 243.073 201.502 243.073 201.502C245.433 200.317 247.79 199.117 250.145 197.902C252.08 196.897 254.023 195.9 255.913 194.82C256.447 194.576 256.951 194.269 257.413 193.905C258.35 192.975 258.163 190.74 258.163 189.525C258.165 188.956 258.137 188.388 258.08 187.822C257.998 187.132 257.863 185.43 259.115 185.97C259.353 186.086 259.559 186.258 259.715 186.472C259.911 186.73 260.06 187.019 260.158 187.327C260.398 188.077 260.323 188.827 260.54 189.577C260.562 189.687 260.614 189.788 260.69 189.87C260.745 189.915 260.809 189.949 260.877 189.97C260.945 189.99 261.017 189.997 261.088 189.99C262.903 189.937 264.628 187.387 265.468 186.03C265.765 185.382 266.245 184.835 266.848 184.455C267.845 183.99 269.038 184.657 269.683 185.55C270.464 186.732 270.784 188.16 270.583 189.562C270.419 191.468 269.575 193.252 268.205 194.587C266.118 196.469 263.72 197.974 261.118 199.035Z" fill="#FFA8A7"/>
    <path d="M223.483 181.5C225.305 181.71 228.335 181.845 231.298 185.205C234.763 189.135 239.33 195.54 239.33 195.54C238.859 197.425 237.856 199.135 236.439 200.465C235.023 201.795 233.254 202.689 231.343 203.04C231.343 203.04 225.088 196.635 223.348 193.11C221.608 189.585 221.338 183.885 223.483 181.5Z" fill="#37474F"/>
</svg>