<svg viewBox="0 0 25 25" fill="none"
    xmlns="http://www.w3.org/2000/svg">
    <g id="icon/social/person_add_24px">
        <path id="icon/social/person_add_24px_2" fill-rule="evenodd" clip-rule="evenodd" d="M15.9706 12.8944C18.1806 12.8944 19.9706 11.1044 19.9706 8.89441C19.9706 6.68441 18.1806 4.89441 15.9706 4.89441C13.7606 4.89441 11.9706 6.68441 11.9706 8.89441C11.9706 11.1044 13.7606 12.8944 15.9706 12.8944ZM15.9706 6.89441C17.0706 6.89441 17.9706 7.79441 17.9706 8.89441C17.9706 9.99441 17.0706 10.8944 15.9706 10.8944C14.8706 10.8944 13.9706 9.99441 13.9706 8.89441C13.9706 7.79441 14.8706 6.89441 15.9706 6.89441ZM7.97058 18.8944C7.97058 16.2344 13.3006 14.8944 15.9706 14.8944C18.6406 14.8944 23.9706 16.2344 23.9706 18.8944V20.8944H7.97058V18.8944ZM9.97058 18.8944C10.1906 18.1744 13.2806 16.8944 15.9706 16.8944C18.6706 16.8944 21.7706 18.1844 21.9706 18.8944H9.97058ZM6.97058 12.8944V15.8944H4.97058V12.8944H1.97058V10.8944H4.97058V7.89441H6.97058V10.8944H9.97058V12.8944H6.97058Z"/>
    </g>
</svg>