<svg viewBox="0 0 25 25" fill="none"
    xmlns="http://www.w3.org/2000/svg">
    <g id="icon/editor/attach_money_24px">
        <path id="icon/editor/attach_money_24px_2" d="M12.8606 11.2154C10.5906 10.6254 9.86055 10.0154 9.86055 9.06543C9.86055 7.97543 10.8706 7.21543 12.5606 7.21543C14.3406 7.21543 15.0006 8.06543 15.0606 9.31543H17.2706C17.2006 7.59543 16.1506 6.01543 14.0606 5.50543V3.31543H11.0606V5.47543C9.12055 5.89543 7.56055 7.15543 7.56055 9.08543C7.56055 11.3954 9.47055 12.5454 12.2606 13.2154C14.7606 13.8154 15.2606 14.6954 15.2606 15.6254C15.2606 16.3154 14.7706 17.4154 12.5606 17.4154C10.5006 17.4154 9.69055 16.4954 9.58055 15.3154H7.38055C7.50055 17.5054 9.14055 18.7354 11.0606 19.1454V21.3154H14.0606V19.1654C16.0106 18.7954 17.5606 17.6654 17.5606 15.6154C17.5606 12.7754 15.1306 11.8054 12.8606 11.2154Z"/>
    </g>
</svg>