<svg width="30" height="50" viewBox="0 0 30 50" fill="none" xmlns="http://www.w3.org/2000/svg">
<g clip-path="url(#clip0_175_2461)">
<path d="M8.04844 21.9578H18.9516L15.1266 14.6439C14.8406 14.0927 15.0562 13.4135 15.6047 13.1268C16.1578 12.8402 16.8375 13.0547 17.1234 13.6061L21.4875 21.9578H25.5C26.3297 21.9578 27 22.6703 27 23.4578C27 24.3297 26.3297 24.9578 25.5 24.9578L23.0672 34.7266C22.6922 36.0625 21.5344 37 20.1562 37H6.80156C5.46563 37 4.26562 36.0625 3.93187 34.7266L1.5 24.9578C0.671719 24.9578 0 24.3297 0 23.4578C0 22.6703 0.671719 21.9578 1.5 21.9578H5.5125L9.87656 13.6061C10.1625 13.0547 10.8422 12.8402 11.3953 13.1268C11.9438 13.4135 12.1594 14.0927 11.8734 14.6439L8.04844 21.9578ZM8.95781 27.2078C8.95781 26.8328 8.6625 26.4578 8.20781 26.4578C7.8375 26.4578 7.45781 26.8328 7.45781 27.2078V31.7078C7.45781 32.1625 7.8375 32.4578 8.20781 32.4578C8.6625 32.4578 8.95781 32.1625 8.95781 31.7078V27.2078ZM12.7078 27.2078V31.7078C12.7078 32.1625 13.0875 32.4578 13.4578 32.4578C13.9125 32.4578 14.25 32.1625 14.25 31.7078V27.2078C14.25 26.8328 13.9125 26.4578 13.4578 26.4578C13.0875 26.4578 12.7078 26.8328 12.7078 27.2078ZM19.5 27.2078C19.5 26.8328 19.1625 26.4578 18.75 26.4578C18.3375 26.4578 18 26.8328 18 27.2078V31.7078C18 32.1625 18.3375 32.4578 18.75 32.4578C19.1625 32.4578 19.5 32.1625 19.5 31.7078V27.2078Z" fill="#2C2C2C"/>
</g>
<defs>
<clipPath id="clip0_175_2461">
<rect width="27" height="24" fill="white" transform="translate(0 13)"/>
</clipPath>
</defs>
</svg>
