<svg viewBox="0 0 28 25" fill="none"
    xmlns="http://www.w3.org/2000/svg">
    <g clip-path="url(#clip0_461_3282)">
        <path d="M8.51902 9.85221H19.4221L15.5971 2.5383C15.3112 1.98705 15.5268 1.30788 16.0753 1.02124C16.6284 0.734598 17.3081 0.949098 17.594 1.50049L21.9581 9.85221H25.9706C26.8003 9.85221 27.4706 10.5647 27.4706 11.3522C27.4706 12.2241 26.8003 12.8522 25.9706 12.8522L23.5378 22.621C23.1628 23.9569 22.005 24.8944 20.6268 24.8944H7.27214C5.93621 24.8944 4.73621 23.9569 4.40246 22.621L1.97058 12.8522C1.1423 12.8522 0.470581 12.2241 0.470581 11.3522C0.470581 10.5647 1.1423 9.85221 1.97058 9.85221H5.98308L10.3471 1.50049C10.6331 0.949098 11.3128 0.734598 11.8659 1.02124C12.4143 1.30788 12.63 1.98705 12.344 2.5383L8.51902 9.85221ZM9.42839 15.1022C9.42839 14.7272 9.13308 14.3522 8.67839 14.3522C8.30808 14.3522 7.92839 14.7272 7.92839 15.1022V19.6022C7.92839 20.0569 8.30808 20.3522 8.67839 20.3522C9.13308 20.3522 9.42839 20.0569 9.42839 19.6022V15.1022ZM13.1784 15.1022V19.6022C13.1784 20.0569 13.5581 20.3522 13.9284 20.3522C14.3831 20.3522 14.7206 20.0569 14.7206 19.6022V15.1022C14.7206 14.7272 14.3831 14.3522 13.9284 14.3522C13.5581 14.3522 13.1784 14.7272 13.1784 15.1022ZM19.9706 15.1022C19.9706 14.7272 19.6331 14.3522 19.2206 14.3522C18.8081 14.3522 18.4706 14.7272 18.4706 15.1022V19.6022C18.4706 20.0569 18.8081 20.3522 19.2206 20.3522C19.6331 20.3522 19.9706 20.0569 19.9706 19.6022V15.1022Z"/>
    </g>
</svg>