<svg width="27" height="24" viewBox="0 0 27 24" fill="none" xmlns="http://www.w3.org/2000/svg">
<g clip-path="url(#clip0_176_2299)">
<path d="M8.04844 8.9578H18.9516L15.1266 1.64389C14.8406 1.09264 15.0562 0.41347 15.6047 0.12683C16.1578 -0.159811 16.8375 0.054689 17.1234 0.60608L21.4875 8.9578H25.5C26.3297 8.9578 27 9.6703 27 10.4578C27 11.3297 26.3297 11.9578 25.5 11.9578L23.0672 21.7265C22.6922 23.0625 21.5344 24 20.1562 24H6.80156C5.46563 24 4.26562 23.0625 3.93187 21.7265L1.5 11.9578C0.671719 11.9578 0 11.3297 0 10.4578C0 9.6703 0.671719 8.9578 1.5 8.9578H5.5125L9.87656 0.60608C10.1625 0.054689 10.8422 -0.159811 11.3953 0.12683C11.9438 0.41347 12.1594 1.09264 11.8734 1.64389L8.04844 8.9578ZM8.95781 14.2078C8.95781 13.8328 8.6625 13.4578 8.20781 13.4578C7.8375 13.4578 7.45781 13.8328 7.45781 14.2078V18.7078C7.45781 19.1625 7.8375 19.4578 8.20781 19.4578C8.6625 19.4578 8.95781 19.1625 8.95781 18.7078V14.2078ZM12.7078 14.2078V18.7078C12.7078 19.1625 13.0875 19.4578 13.4578 19.4578C13.9125 19.4578 14.25 19.1625 14.25 18.7078V14.2078C14.25 13.8328 13.9125 13.4578 13.4578 13.4578C13.0875 13.4578 12.7078 13.8328 12.7078 14.2078ZM19.5 14.2078C19.5 13.8328 19.1625 13.4578 18.75 13.4578C18.3375 13.4578 18 13.8328 18 14.2078V18.7078C18 19.1625 18.3375 19.4578 18.75 19.4578C19.1625 19.4578 19.5 19.1625 19.5 18.7078V14.2078Z" fill="white"/>
</g>
<defs>
<clipPath id="clip0_176_2299">
<rect width="27" height="24" fill="white"/>
</clipPath>
</defs>
</svg>
