<svg viewBox="0 0 25 28" fill="none"
    xmlns="http://www.w3.org/2000/svg">
    <g clip-path="url(#clip0_1365_3899)">
        <path d="M12.0474 22.1906C11.592 22.737 10.7777 22.737 10.2742 22.1906L6.84558 18.762C6.34737 18.3066 6.34737 17.4923 6.84558 16.9888C7.34915 16.4906 8.16344 16.4906 8.6188 16.9888L11.1849 19.512L16.2742 14.4173C16.7777 13.9191 17.592 13.9191 18.0474 14.4173C18.5938 14.9209 18.5938 15.7352 18.0474 16.1906L12.0474 22.1906ZM7.32772 0.328064C8.04022 0.328064 8.61344 0.903957 8.61344 1.61378V3.75664H16.3277V1.61378C16.3277 0.903957 16.9009 0.328064 17.6134 0.328064C18.3259 0.328064 18.8992 0.903957 18.8992 1.61378V3.75664H21.042C22.9331 3.75664 24.4706 5.29146 24.4706 7.18521V24.3281C24.4706 26.2191 22.9331 27.7566 21.042 27.7566H3.89915C2.0054 27.7566 0.470581 26.2191 0.470581 24.3281V7.18521C0.470581 5.29146 2.0054 3.75664 3.89915 3.75664H6.04201V1.61378C6.04201 0.903957 6.61522 0.328064 7.32772 0.328064ZM21.8992 10.6138H3.04201V24.3281C3.04201 24.7995 3.42558 25.1852 3.89915 25.1852H21.042C21.5134 25.1852 21.8992 24.7995 21.8992 24.3281V10.6138Z"/>
    </g>
</svg>