<svg viewBox="0 0 25 25" fill="none"
    xmlns="http://www.w3.org/2000/svg">
    <g clip-path="url(#clip0_1305_5215)">
        <path d="M13.9706 0.470886C14.8003 0.470886 15.4706 1.1426 15.4706 1.97089V4.97089C15.4706 5.80057 14.8003 6.47089 13.9706 6.47089H10.2206V7.97089H20.3503C21.8737 7.97089 23.1346 9.0537 23.355 10.5209L24.419 17.5381C24.4518 17.7584 24.4706 17.9834 24.4706 18.2084V21.4709C24.4706 23.1256 23.1253 24.4709 21.4706 24.4709H3.47058C1.81355 24.4709 0.470581 23.1256 0.470581 21.4709V18.2084C0.470581 17.9834 0.487559 17.7584 0.521347 17.5381L1.58433 10.5209C1.80652 9.0537 3.06699 7.97089 4.55011 7.97089H7.17839V6.47089H3.42839C2.6423 6.47089 1.92839 5.80057 1.92839 4.97089V1.97089C1.92839 1.1426 2.6423 0.470886 3.42839 0.470886H13.9706ZM4.97058 2.72089C4.55621 2.72089 4.22058 3.05651 4.22058 3.47089C4.22058 3.88526 4.55621 4.22089 4.97058 4.22089H12.4706C12.8831 4.22089 13.2206 3.88526 13.2206 3.47089C13.2206 3.05651 12.8831 2.72089 12.4706 2.72089H4.97058ZM4.22058 21.4709H20.7206C21.1331 21.4709 21.4706 21.1334 21.4706 20.7209C21.4706 20.3084 21.1331 19.9709 20.7206 19.9709H4.22058C3.80621 19.9709 3.47058 20.3084 3.47058 20.7209C3.47058 21.1334 3.80621 21.4709 4.22058 21.4709ZM5.72058 10.5959C5.09949 10.5959 4.59558 11.0974 4.59558 11.7209C4.59558 12.3443 5.09949 12.8459 5.72058 12.8459C6.34402 12.8459 6.84558 12.3443 6.84558 11.7209C6.84558 11.0974 6.34402 10.5959 5.72058 10.5959ZM10.2206 12.8459C10.844 12.8459 11.3456 12.3443 11.3456 11.7209C11.3456 11.0974 10.844 10.5959 10.2206 10.5959C9.59714 10.5959 9.09558 11.0974 9.09558 11.7209C9.09558 12.3443 9.59714 12.8459 10.2206 12.8459ZM7.97058 14.3459C7.34714 14.3459 6.84558 14.8474 6.84558 15.4709C6.84558 16.0943 7.34714 16.5959 7.97058 16.5959C8.59402 16.5959 9.09558 16.0943 9.09558 15.4709C9.09558 14.8474 8.59402 14.3459 7.97058 14.3459ZM14.7206 12.8459C15.344 12.8459 15.8456 12.3443 15.8456 11.7209C15.8456 11.0974 15.344 10.5959 14.7206 10.5959C14.0971 10.5959 13.5956 11.0974 13.5956 11.7209C13.5956 12.3443 14.0971 12.8459 14.7206 12.8459ZM12.4706 14.3459C11.8471 14.3459 11.3456 14.8474 11.3456 15.4709C11.3456 16.0943 11.8471 16.5959 12.4706 16.5959C13.094 16.5959 13.5956 16.0943 13.5956 15.4709C13.5956 14.8474 13.094 14.3459 12.4706 14.3459ZM19.2206 12.8459C19.844 12.8459 20.3456 12.3443 20.3456 11.7209C20.3456 11.0974 19.844 10.5959 19.2206 10.5959C18.5971 10.5959 18.0956 11.0974 18.0956 11.7209C18.0956 12.3443 18.5971 12.8459 19.2206 12.8459ZM16.9706 14.3459C16.3471 14.3459 15.8456 14.8474 15.8456 15.4709C15.8456 16.0943 16.3471 16.5959 16.9706 16.5959C17.594 16.5959 18.0956 16.0943 18.0956 15.4709C18.0956 14.8474 17.594 14.3459 16.9706 14.3459Z"/>
    </g>
</svg>