<svg viewBox="0 0 25 25" fill="none"
    xmlns="http://www.w3.org/2000/svg">
    <g id="icon/maps/category_24px">
        <path id="icon/maps/category_24px_2" fill-rule="evenodd" clip-rule="evenodd" d="M6.47058 11.3154L11.9706 2.31543L17.4706 11.3154H6.47058ZM13.9006 9.31543L11.9706 6.15543L10.0306 9.31543H13.9006ZM17.4706 13.3154C14.9806 13.3154 12.9706 15.3254 12.9706 17.8154C12.9706 20.3054 14.9806 22.3154 17.4706 22.3154C19.9606 22.3154 21.9706 20.3054 21.9706 17.8154C21.9706 15.3254 19.9606 13.3154 17.4706 13.3154ZM14.9706 17.8154C14.9706 19.1954 16.0906 20.3154 17.4706 20.3154C18.8506 20.3154 19.9706 19.1954 19.9706 17.8154C19.9706 16.4354 18.8506 15.3154 17.4706 15.3154C16.0906 15.3154 14.9706 16.4354 14.9706 17.8154ZM2.97058 21.8154H10.9706V13.8154H2.97058V21.8154ZM8.97058 15.8154H4.97058V19.8154H8.97058V15.8154Z"/>
    </g>
</svg>