<svg width="24" height="25" viewBox="0 0 24 25" fill="none" xmlns="http://www.w3.org/2000/svg">
<path fill-rule="evenodd" clip-rule="evenodd" d="M6 11.5L11.5 2.5L17 11.5H6ZM13.43 9.5L11.5 6.34L9.56 9.5H13.43ZM17 13.5C14.51 13.5 12.5 15.51 12.5 18C12.5 20.49 14.51 22.5 17 22.5C19.49 22.5 21.5 20.49 21.5 18C21.5 15.51 19.49 13.5 17 13.5ZM14.5 18C14.5 19.38 15.62 20.5 17 20.5C18.38 20.5 19.5 19.38 19.5 18C19.5 16.62 18.38 15.5 17 15.5C15.62 15.5 14.5 16.62 14.5 18ZM2.5 22H10.5V14H2.5V22ZM8.5 16H4.5V20H8.5V16Z" fill="#2C2C2C"/>
</svg>
