<svg width="25" height="25" viewBox="0 0 25 25" fill="none" xmlns="http://www.w3.org/2000/svg">
<path fill-rule="evenodd" clip-rule="evenodd" d="M6.5 11.5L12 2.5L17.5 11.5H6.5ZM13.93 9.5L12 6.34L10.06 9.5H13.93ZM17.5 13.5C15.01 13.5 13 15.51 13 18C13 20.49 15.01 22.5 17.5 22.5C19.99 22.5 22 20.49 22 18C22 15.51 19.99 13.5 17.5 13.5ZM15 18C15 19.38 16.12 20.5 17.5 20.5C18.88 20.5 20 19.38 20 18C20 16.62 18.88 15.5 17.5 15.5C16.12 15.5 15 16.62 15 18ZM3 22H11V14H3V22ZM9 16H5V20H9V16Z" fill="white"/>
</svg>
