<svg viewBox="0 0 25 25" fill="none"
    xmlns="http://www.w3.org/2000/svg">
    <g id="icon/action/check_circle_24px">
        <path id="icon/action/check_circle_24px_2" fill-rule="evenodd" clip-rule="evenodd" d="M12.4706 2.75659C6.95058 2.75659 2.47058 7.23659 2.47058 12.7566C2.47058 18.2766 6.95058 22.7566 12.4706 22.7566C17.9906 22.7566 22.4706 18.2766 22.4706 12.7566C22.4706 7.23659 17.9906 2.75659 12.4706 2.75659ZM12.4706 20.7566C8.06058 20.7566 4.47058 17.1666 4.47058 12.7566C4.47058 8.34659 8.06058 4.75659 12.4706 4.75659C16.8806 4.75659 20.4706 8.34659 20.4706 12.7566C20.4706 17.1666 16.8806 20.7566 12.4706 20.7566ZM10.4706 14.9266L17.0606 8.33659L18.4706 9.75659L10.4706 17.7566L6.47058 13.7566L7.88058 12.3466L10.4706 14.9266Z"/>
    </g>
</svg>