<svg viewBox="0 0 25 28" fill="none"
    xmlns="http://www.w3.org/2000/svg">
    <g clip-path="url(#clip0_1247_5444)">
        <path d="M10.7563 3.47094C10.7563 2.52433 11.5224 1.75665 12.4706 1.75665H15.8992C16.8474 1.75665 17.6134 2.52433 17.6134 3.47094V6.89951C17.6134 7.84772 16.8474 8.6138 15.8992 8.6138H12.4706C11.5224 8.6138 10.7563 7.84772 10.7563 6.89951V3.47094ZM7.8688 9.36915C8.68844 8.94058 9.69022 9.22451 10.2099 10.0442L11.9242 13.012C12.3956 13.8317 12.117 14.8334 11.2974 15.3531L8.32951 17.0674C7.50987 17.5388 6.45987 17.2602 5.94022 16.4406L4.27201 13.4727C3.79844 12.6531 4.07969 11.6031 4.89933 11.0834L7.8688 9.36915ZM19.3277 10.3281C20.2759 10.3281 21.042 11.0942 21.042 12.0424V15.4709C21.042 16.4192 20.2759 17.1852 19.3277 17.1852H15.8992C14.9509 17.1852 14.1849 16.4192 14.1849 15.4709V12.0424C14.1849 11.0942 14.9509 10.3281 15.8992 10.3281H19.3277ZM22.7563 18.8995C23.7045 18.8995 24.4706 19.6656 24.4706 20.6138V24.0424C24.4706 24.9906 23.7045 25.7567 22.7563 25.7567H19.3277C18.3795 25.7567 17.6134 24.9906 17.6134 24.0424V20.6138C17.6134 19.6656 18.3795 18.8995 19.3277 18.8995H22.7563ZM9.04201 20.6138C9.04201 19.6656 9.80808 18.8995 10.7563 18.8995H14.1849C15.1331 18.8995 15.8992 19.6656 15.8992 20.6138V24.0424C15.8992 24.9906 15.1331 25.7567 14.1849 25.7567H10.7563C9.80808 25.7567 9.04201 24.9906 9.04201 24.0424V20.6138ZM5.61344 18.8995C6.56165 18.8995 7.32772 19.6656 7.32772 20.6138V24.0424C7.32772 24.9906 6.56165 25.7567 5.61344 25.7567H2.18487C1.23826 25.7567 0.470581 24.9906 0.470581 24.0424V20.6138C0.470581 19.6656 1.23826 18.8995 2.18487 18.8995H5.61344Z"/>
    </g>
</svg>