<svg viewBox="0 0 24 24" fill="none"
    xmlns="http://www.w3.org/2000/svg">
    <path d="M19.0168 19.0508C19.456 18.7159 19.5407 18.0885 19.2059 17.6492C18.8711 17.21 18.2436 17.1254 17.8044 17.4602L19.0168 19.0508ZM12.4706 20.3155V21.3155C12.476 21.3155 12.4815 21.3154 12.4869 21.3153L12.4706 20.3155ZM1.47058 12.3155L0.589425 11.8426C0.435791 12.1289 0.430842 12.472 0.576154 12.7627L1.47058 12.3155ZM7.13748 7.17023C7.57643 6.83505 7.66054 6.2075 7.32536 5.76855C6.99018 5.32961 6.36262 5.2455 5.92368 5.58068L7.13748 7.17023ZM10.1427 3.58177C9.60492 3.70765 9.27103 4.24562 9.3969 4.78337C9.52277 5.32112 10.0607 5.65501 10.5985 5.52914L10.1427 3.58177ZM12.4706 4.31545L12.4682 5.31545H12.4706V4.31545ZM23.4706 12.3155L24.3525 12.7869C24.5054 12.5008 24.5101 12.1584 24.365 11.8682L23.4706 12.3155ZM20.5454 14.8616C20.1898 15.2842 20.2442 15.915 20.6667 16.2706C21.0893 16.6262 21.7201 16.5719 22.0757 16.1493L20.5454 14.8616ZM15.3222 15.1172C15.6987 14.7131 15.6764 14.0803 15.2723 13.7038C14.8682 13.3273 14.2355 13.3497 13.859 13.7537L15.3222 15.1172ZM11.0323 10.9271C11.4364 10.5506 11.4587 9.91779 11.0822 9.51373C10.7057 9.10968 10.0729 9.08734 9.66886 9.46384L11.0323 10.9271ZM17.8044 17.4602C16.2647 18.6338 14.3899 19.2839 12.4542 19.3156L12.4869 21.3153C14.8495 21.2767 17.1376 20.4832 19.0168 19.0508L17.8044 17.4602ZM12.4706 19.3155C9.37009 19.3155 6.8661 17.5419 5.07512 15.6315C4.18875 14.6861 3.50602 13.7368 3.045 13.0229C2.81511 12.667 2.64198 12.3721 2.5277 12.1689C2.4706 12.0674 2.42831 11.989 2.40109 11.9376C2.38748 11.9119 2.37765 11.8929 2.37162 11.8812C2.36861 11.8753 2.36655 11.8713 2.36544 11.8691C2.36489 11.868 2.36458 11.8674 2.36451 11.8672C2.36447 11.8672 2.36449 11.8672 2.36458 11.8674C2.36462 11.8675 2.36473 11.8677 2.36475 11.8677C2.36487 11.868 2.36501 11.8682 1.47058 12.3155C0.576154 12.7627 0.576322 12.763 0.576506 12.7634C0.576588 12.7635 0.576787 12.7639 0.576951 12.7643C0.577279 12.7649 0.577668 12.7657 0.57812 12.7666C0.579023 12.7684 0.580173 12.7707 0.581571 12.7734C0.584366 12.7789 0.58815 12.7864 0.592919 12.7956C0.602456 12.8142 0.615938 12.8401 0.633334 12.873C0.668121 12.9388 0.718604 13.0322 0.784552 13.1495C0.916373 13.3838 1.11043 13.7139 1.36492 14.108C1.87265 14.8941 2.62742 15.9449 3.61604 16.9994C5.57506 19.089 8.57107 21.3155 12.4706 21.3155V19.3155ZM2.35174 12.7883C3.52821 10.5958 5.15994 8.6803 7.13748 7.17023L5.92368 5.58068C3.71949 7.26382 1.90073 9.39888 0.589425 11.8426L2.35174 12.7883ZM10.5985 5.52914C11.2114 5.38568 11.8388 5.31397 12.4682 5.31545L12.4729 3.31546C11.6885 3.31361 10.9065 3.40299 10.1427 3.58177L10.5985 5.52914ZM12.4706 5.31545C15.5711 5.31545 18.0751 7.08902 19.866 8.9994C20.7524 9.94486 21.4351 10.8941 21.8962 11.608C22.1261 11.9639 22.2992 12.2588 22.4135 12.462C22.4706 12.5635 22.5128 12.6419 22.5401 12.6933C22.5537 12.719 22.5635 12.738 22.5695 12.7497C22.5726 12.7556 22.5746 12.7596 22.5757 12.7618C22.5763 12.7629 22.5766 12.7635 22.5767 12.7637C22.5767 12.7637 22.5767 12.7637 22.5766 12.7635C22.5765 12.7634 22.5764 12.7632 22.5764 12.7632C22.5763 12.7629 22.5762 12.7627 23.4706 12.3155C24.365 11.8682 24.3648 11.8679 24.3647 11.8675C24.3646 11.8674 24.3644 11.867 24.3642 11.8666C24.3639 11.866 24.3635 11.8652 24.363 11.8643C24.3621 11.8625 24.361 11.8603 24.3596 11.8575C24.3568 11.852 24.353 11.8446 24.3482 11.8353C24.3387 11.8167 24.3252 11.7908 24.3078 11.7579C24.273 11.6922 24.2226 11.5987 24.1566 11.4814C24.0248 11.2471 23.8307 10.917 23.5762 10.5229C23.0685 9.73677 22.3137 8.68605 21.3251 7.63151C19.3661 5.54189 16.3701 3.31545 12.4706 3.31545V5.31545ZM22.5887 11.844C22.0145 12.9183 21.3297 13.9296 20.5454 14.8616L22.0757 16.1493C22.9496 15.1108 23.7127 13.9839 24.3525 12.7869L22.5887 11.844ZM13.859 13.7537C13.3604 14.2888 12.6095 14.5091 11.9009 14.3281L11.406 16.2659C12.8232 16.6278 14.325 16.1873 15.3222 15.1172L13.859 13.7537ZM11.9009 14.3281C11.1922 14.1471 10.6389 13.5938 10.4579 12.8852L8.52014 13.3801C8.88208 14.7973 9.98874 15.904 11.406 16.2659L11.9009 14.3281ZM10.4579 12.8852C10.277 12.1765 10.4972 11.4257 11.0323 10.9271L9.66886 9.46384C8.59871 10.461 8.1582 11.9628 8.52014 13.3801L10.4579 12.8852Z"/>
    <path d="M1.47058 1.31543L23.4706 23.3154" stroke-width="2" stroke-linecap="round" stroke-linejoin="round"/>
</svg>