<svg viewBox="0 0 25 22" fill="none"
    xmlns="http://www.w3.org/2000/svg">
    <g clip-path="url(#clip0_46_890)">
        <path d="M22.4706 17.5611H21.1343L17.371 13.5469L23.2293 10.254C23.9952 9.8269 24.4689 9.01981 24.4689 8.14481C24.4689 7.24898 23.9793 6.43648 23.1981 6.0094C21.5106 5.08231 19.0702 4.28315 19.0702 4.28315C18.7872 2.73565 17.4414 1.56107 15.8039 1.56107C14.1664 1.56107 12.8135 2.73815 12.5322 4.29023C5.74974 4.93607 0.449748 10.6486 0.470581 17.6027C0.47579 19.0569 1.68433 20.2277 3.13724 20.2277H15.8039C16.1737 20.2277 16.4706 19.9309 16.4706 19.5611C16.4706 18.4565 15.5752 17.5611 14.5081 17.5611H12.3164L13.3135 16.2119C14.3239 14.7065 13.746 12.5348 11.9122 11.7744C10.9206 11.3569 9.76224 11.5777 8.90391 12.2277L7.53724 13.2486C7.24037 13.4725 6.82391 13.4152 6.60474 13.1184C6.38079 12.8215 6.43808 12.405 6.73495 12.1859L8.18287 11.0975C9.71912 9.94669 11.865 9.94669 13.3954 11.0975C13.8487 11.4361 15.307 12.7225 15.0987 14.9779L20.0372 20.2277H23.8031C24.1729 20.2277 24.4697 19.9309 24.4697 19.5611C24.4706 18.4569 23.5747 17.5611 22.4706 17.5611ZM14.8039 4.8944C14.8039 4.34232 15.2518 3.8944 15.8039 3.8944C16.356 3.8944 16.8039 4.34232 16.8039 4.8944C16.8039 5.44648 16.356 5.8944 15.8039 5.8944C15.2518 5.8944 14.8039 5.44857 14.8039 4.8944Z"/>
    </g>
</svg>