<svg viewBox="0 0 28 25" fill="none"
    xmlns="http://www.w3.org/2000/svg">
    <g clip-path="url(#clip0_159_1926)">
        <path d="M25.2206 1.83557H2.72058C1.47792 1.83557 0.470581 2.84292 0.470581 4.08557V4.83557H27.4706V4.08557C27.4706 2.84292 26.4628 1.83557 25.2206 1.83557ZM0.470581 20.5856C0.470581 21.8278 1.47792 22.8356 2.72058 22.8356H25.2206C26.4632 22.8356 27.4706 21.8282 27.4706 20.5856V6.33557H0.470581V20.5856ZM17.7206 9.33557H23.7206C24.1331 9.33557 24.4706 9.67307 24.4706 10.0856C24.4706 10.4981 24.1331 10.8356 23.7206 10.8356H17.7206C17.3081 10.8356 16.9706 10.4981 16.9706 10.0856C16.9706 9.67307 17.3081 9.33557 17.7206 9.33557ZM17.7206 12.3356H23.7206C24.1331 12.3356 24.4706 12.6731 24.4706 13.0856C24.4706 13.4981 24.1331 13.8356 23.7206 13.8356H17.7206C17.3081 13.8356 16.9706 13.4981 16.9706 13.0856C16.9706 12.6731 17.3081 12.3356 17.7206 12.3356ZM17.7206 15.3356H23.7206C24.1348 15.3356 24.4706 15.6714 24.4706 16.0856C24.4706 16.4998 24.1331 16.8356 23.7206 16.8356H17.7206C17.3064 16.8356 16.9706 16.4998 16.9706 16.0856C16.9706 15.6714 17.3081 15.3356 17.7206 15.3356ZM8.72058 9.33557C10.3776 9.33557 11.7206 10.679 11.7206 12.3356C11.7206 13.9921 10.3776 15.3356 8.72058 15.3356C7.06355 15.3356 5.72058 13.9921 5.72058 12.3356C5.72058 10.679 7.06589 9.33557 8.72058 9.33557ZM5.72058 16.8356H11.7206C12.9632 16.8356 13.9706 17.8429 13.9706 19.0856C13.9706 19.4998 13.6348 19.8356 13.2206 19.8356H4.22058C3.80621 19.8356 3.47058 19.4981 3.47058 19.0856C3.47058 17.8434 4.47792 16.8356 5.72058 16.8356Z"/>
    </g>
</svg>