<svg width="25" height="25" viewBox="0 0 25 25" fill="none" xmlns="http://www.w3.org/2000/svg">
<path fill-rule="evenodd" clip-rule="evenodd" d="M12.9706 2.89441C9.11058 2.89441 5.97058 6.03441 5.97058 9.89441C5.97058 15.1444 12.9706 22.8944 12.9706 22.8944C12.9706 22.8944 19.9706 15.1444 19.9706 9.89441C19.9706 6.03441 16.8306 2.89441 12.9706 2.89441ZM7.97058 9.89441C7.97058 7.13441 10.2106 4.89441 12.9706 4.89441C15.7306 4.89441 17.9706 7.13441 17.9706 9.89441C17.9706 12.7744 15.0906 17.0844 12.9706 19.7744C10.8906 17.1044 7.97058 12.7444 7.97058 9.89441ZM11.9706 8.89441V6.89441H13.9706V8.89441H15.9706V10.8944H13.9706V12.8944H11.9706V10.8944H9.97058V8.89441H11.9706Z" fill="black"/>
</svg>
