<svg viewBox="0 0 24 24" fill="none"
    xmlns="http://www.w3.org/2000/svg">
    <path fill-rule="evenodd" clip-rule="evenodd" d="M17.4706 8.81543H18.4706C19.5706 8.81543 20.4706 9.71543 20.4706 10.8154V20.8154C20.4706 21.9154 19.5706 22.8154 18.4706 22.8154H6.47058C5.37058 22.8154 4.47058 21.9154 4.47058 20.8154V10.8154C4.47058 9.71543 5.37058 8.81543 6.47058 8.81543H7.47058V6.81543C7.47058 4.05543 9.71058 1.81543 12.4706 1.81543C15.2306 1.81543 17.4706 4.05543 17.4706 6.81543V8.81543ZM12.4706 3.81543C10.8106 3.81543 9.47058 5.15543 9.47058 6.81543V8.81543H15.4706V6.81543C15.4706 5.15543 14.1306 3.81543 12.4706 3.81543ZM6.47058 20.8154V10.8154H18.4706V20.8154H6.47058ZM14.4706 15.8154C14.4706 16.9154 13.5706 17.8154 12.4706 17.8154C11.3706 17.8154 10.4706 16.9154 10.4706 15.8154C10.4706 14.7154 11.3706 13.8154 12.4706 13.8154C13.5706 13.8154 14.4706 14.7154 14.4706 15.8154Z"/>
</svg>