<svg viewBox="0 0 25 25" fill="none"
    xmlns="http://www.w3.org/2000/svg">
    <path d="M4.47058 13.7563C4.47058 11.8707 4.47058 10.9279 5.05637 10.3421C5.64215 9.75635 6.58496 9.75635 8.47058 9.75635H16.4706C18.3562 9.75635 19.299 9.75635 19.8848 10.3421C20.4706 10.9279 20.4706 11.8707 20.4706 13.7563V15.7563C20.4706 18.5848 20.4706 19.999 19.5919 20.8777C18.7132 21.7563 17.299 21.7563 14.4706 21.7563H10.4706C7.64215 21.7563 6.22794 21.7563 5.34926 20.8777C4.47058 19.999 4.47058 18.5848 4.47058 15.7563V13.7563Z" stroke-width="2" fill="none"/>
    <path d="M16.4706 8.75635V7.75635C16.4706 5.54721 14.6797 3.75635 12.4706 3.75635V3.75635C10.2614 3.75635 8.47058 5.54721 8.47058 7.75635V8.75635" stroke-width="2" stroke-linecap="round" fill="none"/>
    <circle cx="12.4706" cy="15.7563" r="2" stroke-width="2" fill="none"/>
</svg>