<svg width="24" height="25" viewBox="0 0 24 25" fill="none" xmlns="http://www.w3.org/2000/svg">
<g id="icon/action/lock_24px">
<path id="icon/action/lock_24px_2" fill-rule="evenodd" clip-rule="evenodd" d="M17 9H18C19.1 9 20 9.9 20 11V21C20 22.1 19.1 23 18 23H6C4.9 23 4 22.1 4 21V11C4 9.9 4.9 9 6 9H7V7C7 4.24 9.24 2 12 2C14.76 2 17 4.24 17 7V9ZM12 4C10.34 4 9 5.34 9 7V9H15V7C15 5.34 13.66 4 12 4ZM6 21V11H18V21H6ZM14 16C14 17.1 13.1 18 12 18C10.9 18 10 17.1 10 16C10 14.9 10.9 14 12 14C13.1 14 14 14.9 14 16Z" fill="#2C2C2C"/>
</g>
</svg>
