<svg viewBox="0 0 25 22" fill="none"
    xmlns="http://www.w3.org/2000/svg">
    <g clip-path="url(#clip0_46_892)">
        <path d="M10.9331 8.85689C10.9331 8.39855 11.3081 8.02355 11.7664 8.02355H12.4331C12.9289 8.02355 13.3039 8.39855 13.3039 8.85689V11.6902H13.4706C13.9289 11.6902 14.3039 12.0652 14.3039 12.5236C14.3039 13.0194 13.9289 13.3569 13.4706 13.3569H11.4331C10.9747 13.3569 10.5997 13.0194 10.5997 12.5236C10.5997 12.0652 10.9747 11.6902 11.4331 11.6902H11.5997V9.71105C11.2581 9.63189 10.9331 9.29855 10.9331 8.85689ZM2.49808 3.5248C5.82058 4.43189 9.14558 3.58564 12.4706 2.73814C16.0956 1.81439 19.7206 0.890219 23.3456 2.24355C24.0497 2.50647 24.4706 3.21189 24.4706 3.96355V16.8736C24.4706 17.8694 23.4039 18.5277 22.4414 18.2652C19.1206 17.3569 15.7956 18.2027 12.4706 19.0486C8.80808 19.9736 5.18308 20.8986 1.59433 19.5444C0.889748 19.2819 0.470581 18.5777 0.470581 17.8236V4.91522C0.470581 3.91897 1.53766 3.2623 2.49808 3.5248ZM5.76641 17.5611C5.76641 16.0902 4.61016 14.8944 3.09975 14.8944V17.5611H5.76641ZM3.09975 9.52355C4.61016 9.52355 5.76641 8.36522 5.76641 6.85689H3.09975V9.52355ZM21.8039 14.8944V12.1902C20.3331 12.1902 19.1372 13.4236 19.1372 14.8944H21.8039ZM21.8039 4.19022H19.1372C19.1372 5.69855 20.3331 6.85689 21.8039 6.85689V4.19022ZM12.4331 6.19022C10.2247 6.19022 8.43308 8.31522 8.43308 10.8569C8.43308 13.4736 10.2247 15.5611 12.4331 15.5611C14.6789 15.5611 16.4706 13.4736 16.4706 10.8569C16.4706 8.31522 14.6789 6.19022 12.4331 6.19022Z"/>
    </g>
</svg>