<svg width="24" height="25" viewBox="0 0 24 25" fill="none" xmlns="http://www.w3.org/2000/svg">
<path d="M12.3902 11.4C10.1202 10.81 9.39016 10.2 9.39016 9.25C9.39016 8.16 10.4002 7.4 12.0902 7.4C13.8702 7.4 14.5302 8.25 14.5902 9.5H16.8002C16.7302 7.78 15.6802 6.2 13.5902 5.69V3.5H10.5902V5.66C8.65016 6.08 7.09016 7.34 7.09016 9.27C7.09016 11.58 9.00016 12.73 11.7902 13.4C14.2902 14 14.7902 14.88 14.7902 15.81C14.7902 16.5 14.3002 17.6 12.0902 17.6C10.0302 17.6 9.22016 16.68 9.11016 15.5H6.91016C7.03016 17.69 8.67016 18.92 10.5902 19.33V21.5H13.5902V19.35C15.5402 18.98 17.0902 17.85 17.0902 15.8C17.0902 12.96 14.6602 11.99 12.3902 11.4Z" fill="#2C2C2C"/>
</svg>
