<svg viewBox="0 0 25 25" fill="none"
    xmlns="http://www.w3.org/2000/svg">
    <path id="Round" fill-rule="evenodd" clip-rule="evenodd" d="M18.4719 11.0654V16.0654L19.7619 17.3554C20.3919 17.9854 19.9419 19.0654 19.0519 19.0654H5.88185C4.99185 19.0654 4.55185 17.9854 5.18185 17.3554L6.47185 16.0654V11.0654C6.47185 7.98543 8.10185 5.42543 10.9719 4.74543V4.06543C10.9719 3.23543 11.6419 2.56543 12.4719 2.56543C13.3019 2.56543 13.9719 3.23543 13.9719 4.06543V4.74543C16.8319 5.42543 18.4719 7.99543 18.4719 11.0654ZM14.4719 20.0654C14.4719 21.1654 13.5719 22.0654 12.4719 22.0654C11.3619 22.0654 10.4719 21.1654 10.4719 20.0654H14.4719Z"/>
</svg>