<svg viewBox="0 0 17 20" fill="none"
    xmlns="http://www.w3.org/2000/svg">
    <path fill-rule="evenodd" clip-rule="evenodd" d="M14.4719 8.93518V13.9352L15.7619 15.2252C16.3919 15.8552 15.9419 16.9352 15.0519 16.9352H1.88185C0.991853 16.9352 0.551853 15.8552 1.18185 15.2252L2.47185 13.9352V8.93518C2.47185 5.85518 4.10185 3.29518 6.97185 2.61518V1.93518C6.97185 1.10518 7.64185 0.435181 8.47185 0.435181C9.30185 0.435181 9.97185 1.10518 9.97185 1.93518V2.61518C12.8319 3.29518 14.4719 5.86518 14.4719 8.93518ZM10.4719 17.9352C10.4719 19.0352 9.57185 19.9352 8.47185 19.9352C7.36185 19.9352 6.47185 19.0352 6.47185 17.9352H10.4719Z"/>
</svg>