<svg viewBox="0 0 25 25" fill="none"
    xmlns="http://www.w3.org/2000/svg">
    <path fill-rule="evenodd" clip-rule="evenodd" d="M4.97058 3.89441H8.47058C9.02058 3.89441 9.47058 4.34441 9.47058 4.89441C9.47058 6.14441 9.67058 7.34441 10.0406 8.46441C10.1506 8.81441 10.0706 9.20441 9.79058 9.48441L7.59058 11.6844C9.03058 14.5144 11.3506 16.8244 14.1806 18.2744L16.3806 16.0744C16.5806 15.8844 16.8306 15.7844 17.0906 15.7844C17.1906 15.7844 17.3006 15.7944 17.4006 15.8344C18.5206 16.2044 19.7306 16.4044 20.9706 16.4044C21.5206 16.4044 21.9706 16.8544 21.9706 17.4044V20.8944C21.9706 21.4444 21.5206 21.8944 20.9706 21.8944C11.5806 21.8944 3.97058 14.2844 3.97058 4.89441C3.97058 4.34441 4.42058 3.89441 4.97058 3.89441ZM7.51058 5.89441C7.57058 6.78441 7.72058 7.65441 7.96058 8.48441L6.76058 9.68441C6.35058 8.48441 6.09058 7.21441 6.00058 5.89441H7.51058ZM17.3706 17.9144C18.2206 18.1544 19.0906 18.3044 19.9706 18.3644V19.8544C18.6506 19.7644 17.3806 19.5044 16.1706 19.1044L17.3706 17.9144Z"/>
</svg>