<svg viewBox="0 0 25 25" fill="none"
    xmlns="http://www.w3.org/2000/svg">
    <g clip-path="url(#clip0_468_3291)">
        <path d="M15.4706 4.81543H9.47058L7.24871 1.48168C6.91589 0.98293 7.27214 0.31543 7.87214 0.31543H17.069C17.669 0.31543 18.0253 0.98293 17.6925 1.48168L15.4706 4.81543ZM9.47058 6.31543H15.4706C15.6487 6.43262 15.8503 6.56387 16.0378 6.70918C18.7378 8.41074 24.4706 12.0764 24.4706 19.8154C24.4706 22.2998 22.455 24.3154 19.9706 24.3154H4.97058C2.48527 24.3154 0.470581 22.2998 0.470581 19.8154C0.470581 12.0764 6.20339 8.41074 8.86121 6.70918C9.09089 6.56387 9.29246 6.43262 9.47058 6.31543ZM13.4128 10.8154C13.4128 10.2951 12.9909 9.87324 12.4284 9.87324C11.9503 9.87324 11.5284 10.2951 11.5284 10.8154V11.0967C11.2659 11.1529 10.9753 11.2326 10.7831 11.3357C10.0846 11.6545 9.47527 12.2451 9.32527 13.1029C9.24089 13.5811 9.28777 14.0451 9.48464 14.4623C9.68152 14.8748 9.98621 15.1654 10.2956 15.3764C10.8393 15.7467 11.5565 15.9623 12.105 16.1264L12.2081 16.1545C12.8643 16.3561 13.305 16.5014 13.5815 16.7029C13.6987 16.7873 13.7409 16.8529 13.755 16.8951C13.7737 16.9326 13.8018 17.017 13.769 17.2045C13.7409 17.3686 13.6518 17.5092 13.394 17.617C13.1081 17.7389 12.644 17.7998 12.044 17.7061C11.7628 17.6592 11.2612 17.4904 10.8159 17.3404C10.7128 17.3029 10.6096 17.2701 10.5159 17.2373C10.0237 17.0732 9.49402 17.3404 9.32996 17.8326C9.16589 18.3248 9.43308 18.8545 9.92527 18.9764C9.98152 19.0373 10.0518 19.0607 10.1315 19.0889C10.4596 19.2154 11.0831 19.4123 11.5284 19.5154V19.8154C11.5284 20.3357 11.9503 20.7576 12.4284 20.7576C12.9909 20.7576 13.4128 20.3357 13.4128 19.8154V19.5576C13.6612 19.5107 13.905 19.3982 14.13 19.342C14.8706 19.0279 15.4612 18.4186 15.6159 17.5279C15.7003 17.0404 15.6628 16.5717 15.4753 16.1451C15.2925 15.7232 14.9971 15.4139 14.6831 15.1889C14.1159 14.7717 13.3565 14.5467 12.7893 14.3732L12.7096 14.3639C12.0862 14.1623 11.6362 14.0217 11.3503 13.8248C11.2284 13.7404 11.1909 13.6842 11.1815 13.6607C11.1721 13.642 11.144 13.5857 11.1721 13.4264C11.1909 13.3326 11.2612 13.1779 11.5565 13.0467C11.819 12.9107 12.3253 12.8357 12.8971 12.8826C13.1034 12.9576 13.7362 13.0795 13.919 13.1264C14.4159 13.2623 14.9315 12.9623 15.0628 12.4607C15.1987 11.9639 14.8987 11.4482 14.3971 11.317C14.1909 11.2607 13.7221 11.167 13.4128 11.1107V10.8154Z"/>
    </g>
</svg>