<svg viewBox="0 0 25 25" fill="none"
    xmlns="http://www.w3.org/2000/svg">
    <g id="icon/image/timer_off_24px">
        <path id="icon/image/timer_off_24px_2" fill-rule="evenodd" clip-rule="evenodd" d="M10.0956 1.47089H16.0956V3.47089H10.0956V1.47089ZM12.0956 8.47089V9.33089L14.0956 11.3309V8.47089H12.0956ZM20.0956 13.4709C20.0956 9.60089 16.9656 6.47089 13.0956 6.47089C11.9756 6.47089 10.9156 6.74089 9.97558 7.21089L8.50558 5.74089C9.84558 4.94089 11.4156 4.47089 13.0956 4.47089C15.2156 4.47089 17.1656 5.21089 18.7156 6.45089L20.1356 5.03089C20.6456 5.45089 21.1156 5.93089 21.5456 6.44089L20.1256 7.86089C21.3556 9.40089 22.0956 11.3509 22.0956 13.4709C22.0956 15.1509 21.6256 16.7209 20.8256 18.0609L19.3556 16.5909C19.8256 15.6509 20.0956 14.5909 20.0956 13.4709ZM4.25558 4.33089L2.84558 5.74089L5.59558 8.49089C4.65558 9.92089 4.09558 11.6309 4.09558 13.4709C4.09558 18.4409 8.11558 22.4709 13.0956 22.4709C14.9356 22.4709 16.6456 21.9209 18.0756 20.9709L20.5756 23.4709L21.9856 22.0609L4.25558 4.33089ZM6.09558 13.4709C6.09558 17.3409 9.22558 20.4709 13.0956 20.4709C14.3856 20.4709 15.5856 20.1209 16.6256 19.5209L7.05558 9.95089C6.44558 10.9809 6.09558 12.1809 6.09558 13.4709Z"/>
    </g>
</svg>