<svg viewBox="0 0 25 25" fill="none"
    xmlns="http://www.w3.org/2000/svg">
    <g id="icon/image/timer_24px">
        <path id="icon/image/timer_24px_2" fill-rule="evenodd" clip-rule="evenodd" d="M9.47058 1.97589H15.4706V3.97589H9.47058V1.97589ZM11.4706 14.9759V8.97589H13.4706V14.9759H11.4706ZM19.5006 8.35589L20.9206 6.93589C20.4906 6.42589 20.0206 5.94589 19.5106 5.52589L18.0906 6.94589C16.5406 5.70589 14.5906 4.96589 12.4706 4.96589C7.50058 4.96589 3.47058 8.99589 3.47058 13.9659C3.47058 18.9359 7.49058 22.9659 12.4706 22.9659C17.4506 22.9659 21.4706 18.9359 21.4706 13.9659C21.4706 11.8559 20.7306 9.90589 19.5006 8.35589ZM5.47058 13.9759C5.47058 17.8459 8.60058 20.9759 12.4706 20.9759C16.3406 20.9759 19.4706 17.8459 19.4706 13.9759C19.4706 10.1059 16.3406 6.97589 12.4706 6.97589C8.60058 6.97589 5.47058 10.1059 5.47058 13.9759Z"/>
    </g>
</svg>