<svg viewBox="0 0 31 25" fill="none"
    xmlns="http://www.w3.org/2000/svg">
    <g clip-path="url(#clip0_148_1816)">
        <path d="M15.4659 15.8944C18.157 15.8944 20.2987 13.7119 20.2987 11.0194C20.2987 8.32691 18.1171 6.14441 15.4659 6.14441C12.7748 6.14441 10.6331 8.32691 10.6331 11.0194C10.5909 13.71 12.7753 15.8944 15.4659 15.8944ZM17.8096 17.3944H13.1315C9.45183 17.3944 6.47058 20.1928 6.47058 23.6428C6.47058 24.3366 7.06589 24.8944 7.80183 24.8944H23.1393C23.8753 24.8944 24.4706 24.3366 24.4706 23.6428C24.4706 20.1928 21.4893 17.3944 17.8096 17.3944ZM24.4706 8.39441C26.5415 8.39441 28.2206 6.71535 28.2206 4.64441C28.2206 2.57347 26.5425 0.894409 24.4706 0.894409C22.3996 0.894409 20.7206 2.57347 20.7206 4.64441C20.7206 6.71535 22.3987 8.39441 24.4706 8.39441ZM9.09089 11.0194C9.09089 10.764 9.13694 10.5211 9.16632 10.2736C8.65496 9.99285 8.09246 9.89441 7.49714 9.89441H4.59933C2.31933 9.89441 0.470581 11.8538 0.470581 14.2678C0.470581 14.7507 0.840284 15.1444 1.29652 15.1444H10.6481C9.69089 14.0288 9.09089 12.5991 9.09089 11.0194ZM6.47058 8.39441C8.54152 8.39441 10.2206 6.71535 10.2206 4.64441C10.2206 2.57347 8.54246 0.894409 6.47058 0.894409C4.39964 0.894409 2.72058 2.57347 2.72058 4.64441C2.72058 6.71535 4.39964 8.39441 6.47058 8.39441ZM26.3409 9.89441H23.4421C22.8421 9.89441 22.2759 10.0368 21.7612 10.2807C21.7893 10.5272 21.8362 10.7663 21.8362 11.0194C21.8362 12.5996 21.2371 14.0293 20.2818 15.1444H29.6428C30.1003 15.1444 30.4706 14.7507 30.4706 14.2678C30.4706 11.8538 28.6237 9.89441 26.3409 9.89441Z"/>
    </g>
</svg>