<svg width="24" height="25" viewBox="0 0 24 25" fill="none" xmlns="http://www.w3.org/2000/svg">
<g clip-path="url(#clip0_391_1684)">
<path d="M23.7797 4.15647L20.5978 1.06887C20.3047 0.78458 19.83 0.78458 19.537 1.06887L18.4762 2.09776C18.1833 2.38223 18.1832 2.84283 18.4762 3.12711L14.8842 6.61272C12.6984 5.71436 10.0842 6.12374 8.30293 7.85221L0.87793 15.0572C-0.293945 16.1944 -0.293945 18.037 0.87793 19.1742L5.12059 23.2916C6.29246 24.4287 8.19137 24.4287 9.36324 23.2916L16.7882 16.0866C18.5695 14.3581 18.9914 11.8218 18.0656 9.70031L21.6576 6.21471C21.9506 6.499 22.4311 6.499 22.724 6.21471L23.7848 5.18536C24.0703 4.90153 24.0703 4.44075 23.7797 4.15647ZM8.40468 20.1053L4.16202 15.9883L9.88077 10.439L14.1234 14.5564L8.40468 20.1053Z" fill="#2C2C2C"/>
</g>
<defs>
<clipPath id="clip0_391_1684">
<rect width="24" height="23.2889" fill="white" transform="translate(0 0.85553)"/>
</clipPath>
</defs>
</svg>
