<svg viewBox="0 0 25 24" fill="none"
    xmlns="http://www.w3.org/2000/svg">
    <g clip-path="url(#clip0_44_1447)">
        <path d="M24.2503 3.5509L21.0684 0.463308C20.7753 0.17902 20.3006 0.17902 20.0076 0.463308L18.9468 1.4922C18.6539 1.77667 18.6538 2.23727 18.9468 2.52155L15.3548 6.00715C13.169 5.1088 10.5548 5.51818 8.77351 7.24665L1.34851 14.4517C0.176636 15.5888 0.176636 17.4314 1.34851 18.5686L5.59117 22.686C6.76304 23.8232 8.66195 23.8232 9.83382 22.686L17.2588 15.481C19.0401 13.7525 19.4619 11.2162 18.5362 9.09475L22.1282 5.60915C22.4212 5.89344 22.9016 5.89344 23.1946 5.60915L24.2554 4.5798C24.5409 4.29597 24.5409 3.83519 24.2503 3.5509ZM8.87526 19.4997L4.6326 15.3828L10.3514 9.83345L14.594 13.9508L8.87526 19.4997Z"/>
    </g>
</svg>